<svg xmlns="http://www.w3.org/2000/svg" width="38" height="38" viewBox="0 0 38 38">
  <g id="Group_57424" data-name="Group 57424" transform="translate(-18 -578)">
    <circle id="Ellipse_142" data-name="Ellipse 142" cx="19" cy="19" r="19" transform="translate(18 578)" fill="#466fff"/>
    <path id="Path_529" data-name="Path 529" d="M33.924,611.118a3.9,3.9,0,0,0,.137,5.191,3.86,3.86,0,0,0,6.307-1.1l4.975-9.645a.319.319,0,0,0-.427-.426l-9.645,4.975A3.9,3.9,0,0,0,33.924,611.118Zm1.758,1.359a1.641,1.641,0,0,1,1.164-.485,1.651,1.651,0,1,1,0,3.3,1.65,1.65,0,0,1-1.164-2.816Zm11.493,2.384a10.292,10.292,0,0,0-1.39-5.175,1.275,1.275,0,0,1,2.206-1.279,12.887,12.887,0,0,1,1.732,6.454,1.274,1.274,0,0,1-2.548,0Zm-23.175,0A12.876,12.876,0,0,1,36.861,602a12.7,12.7,0,0,1,4.77.916,1.272,1.272,0,0,1-.942,2.364,10.323,10.323,0,0,0-14.141,9.581,1.274,1.274,0,0,1-2.548,0Z" transform="translate(0 -14)" fill="#fff"/>
  </g>
</svg>
