<svg xmlns="http://www.w3.org/2000/svg" width="24.011" height="23.05" viewBox="0 0 24.011 23.05">
  <path id="Icon_awesome-plus" data-name="Icon awesome-plus" d="M22.3,11.305H14.578V3.9A1.682,1.682,0,0,0,12.863,2.25H11.148A1.682,1.682,0,0,0,9.433,3.9v7.409H1.715A1.682,1.682,0,0,0,0,12.952V14.6a1.682,1.682,0,0,0,1.715,1.646H9.433v7.409A1.682,1.682,0,0,0,11.148,25.3h1.715a1.682,1.682,0,0,0,1.715-1.646V16.245H22.3A1.682,1.682,0,0,0,24.011,14.6V12.952A1.682,1.682,0,0,0,22.3,11.305Z" transform="translate(0 -2.25)" fill="#6b00c3"/>
</svg>
