<svg xmlns="http://www.w3.org/2000/svg" width="15.699" height="15.204" viewBox="0 0 15.699 15.204">
  <g id="age" transform="translate(0 -8.079)">
    <path id="Path_64952" data-name="Path 64952" d="M12.85,20.524A7.14,7.14,0,1,1,11.38,9.62a.23.23,0,1,0,.244-.391,7.606,7.606,0,1,0,1.563,11.607.23.23,0,0,0-.339-.313Z" fill="#d3abf6"/>
    <path id="Path_64953" data-name="Path 64953" d="M56.979,56.165a.23.23,0,0,0-.211-.139h-.325a7.519,7.519,0,0,0-.863-2.679A7.6,7.6,0,0,0,53.7,51.081a.23.23,0,0,0-.291.357,7.129,7.129,0,0,1,2.6,4.84.23.23,0,0,0,.227.208l-.734.782-.735-.782h.157a.232.232,0,0,0,.229-.258,6.3,6.3,0,1,0-11.609,4.058.23.23,0,0,0,.392-.242,5.835,5.835,0,1,1,10.723-4.019h-.424a.232.232,0,0,0-.168.388l1.267,1.349a.232.232,0,0,0,.336,0l1.267-1.349A.23.23,0,0,0,56.979,56.165Z" transform="translate(-41.299 -41.299)" fill="#d3abf6"/>
    <path id="Path_64954" data-name="Path 64954" d="M101.683,312.093h-1.365a.23.23,0,0,0-.218.156,5.836,5.836,0,0,1-9.971,1.9.23.23,0,1,0-.351.3,6.3,6.3,0,0,0,10.7-1.9h.894a7.094,7.094,0,0,1-.989,1.968.23.23,0,0,0,.375.268,7.551,7.551,0,0,0,1.145-2.405.23.23,0,0,0-.222-.291Z" transform="translate(-86.971 -294.692)" fill="#d3abf6"/>
    <path id="Path_64955" data-name="Path 64955" d="M100.912,205.41a.23.23,0,0,0,.3-.133l.22-.578H102.9l.218.577a.23.23,0,1,0,.431-.163l-1.1-2.917,0-.006a.3.3,0,0,0-.275-.184h0a.3.3,0,0,0-.275.185l0,.005-1.111,2.917A.23.23,0,0,0,100.912,205.41Zm1.254-2.646.556,1.474H101.6Z" transform="translate(-97.673 -187.98)" fill="#d3abf6"/>
    <path id="Path_64956" data-name="Path 64956" d="M317.951,202.907a.23.23,0,0,0,0-.461h-1.235a.23.23,0,0,0-.23.23v2.932a.23.23,0,0,0,.23.23h1.235a.23.23,0,0,0,0-.461h-1.005v-1.005h.914a.23.23,0,0,0,0-.461h-.914v-1.005h1.005Z" transform="translate(-306.781 -188.407)" fill="#d3abf6"/>
    <path id="Path_64957" data-name="Path 64957" d="M198.044,202.467a1.242,1.242,0,0,1,.7.213A.23.23,0,0,0,199,202.3a1.71,1.71,0,1,0-.956,3.128,1.548,1.548,0,0,0,1.508-1.71.23.23,0,0,0-.23-.23h-.885a.23.23,0,1,0,0,.461h.642a1.033,1.033,0,0,1-1.034,1.019,1.249,1.249,0,0,1,0-2.5Z" transform="translate(-190.314 -187.981)" fill="#d3abf6"/>
  </g>
</svg>
