<svg xmlns="http://www.w3.org/2000/svg" width="19" height="22.61" viewBox="0 0 19 22.61">
  <path id="Icon_awesome-apple" data-name="Icon awesome-apple" d="M16.167,14.2a4.712,4.712,0,0,1,2.524-4.281,5.424,5.424,0,0,0-4.276-2.251c-1.792-.141-3.751,1.045-4.467,1.045-.757,0-2.494-.994-3.857-.994C3.275,7.762.281,9.963.281,14.44a12.581,12.581,0,0,0,.727,4.1c.646,1.853,2.978,6.4,5.411,6.32,1.272-.03,2.171-.9,3.826-.9,1.605,0,2.438.9,3.857.9,2.453-.035,4.563-4.164,5.179-6.022A5,5,0,0,1,16.167,14.2ZM13.31,5.91a4.754,4.754,0,0,0,1.211-3.66,5.353,5.353,0,0,0-3.427,1.762A4.829,4.829,0,0,0,9.8,7.641,4.239,4.239,0,0,0,13.31,5.91Z" transform="translate(-0.281 -2.25)" fill="#6b00c3"/>
</svg>
