<svg xmlns="http://www.w3.org/2000/svg" width="98.094" height="116.392" viewBox="0 0 98.094 116.392">
  <g id="brotherhood" transform="translate(-0.5 -0.001)">
    <path id="Path_65083" data-name="Path 65083" d="M107.182,25.355a1.723,1.723,0,0,0,1.492,0c.609-.3,14.906-7.375,13.486-17.752-.708-5.173-4.366-7.3-7.554-7.569a8.495,8.495,0,0,0-6.678,2.273A8.493,8.493,0,0,0,101.25.034C98.061.3,94.4,2.43,93.695,7.6,92.276,17.98,106.573,25.058,107.182,25.355ZM97.075,8.066c.532-3.889,3.3-4.536,4.46-4.634.157-.013.313-.02.468-.02,2,0,3.832,1.065,4.3,2.551a1.706,1.706,0,0,0,3.255,0c.5-1.6,2.6-2.714,4.764-2.532,1.165.1,3.929.745,4.461,4.634.549,4.012-2.508,7.6-5.168,9.9a34.18,34.18,0,0,1-5.685,3.925,34.181,34.181,0,0,1-5.684-3.925C99.582,15.665,96.526,12.078,97.075,8.066Zm0,0" transform="translate(-71.933 0)" fill="#c2a3dd"/>
    <path id="Path_65084" data-name="Path 65084" d="M271.705,280.237q.039.377.084.753a35.814,35.814,0,0,0,11.171,21.715,1.723,1.723,0,0,0,2.411-.081,1.706,1.706,0,0,0-.081-2.411,32.391,32.391,0,0,1-10.115-19.638c-.028-.228-.053-.456-.077-.685a30.2,30.2,0,0,0-7.312-17.042,1.705,1.705,0,1,0-2.544,2.272A26.759,26.759,0,0,1,271.705,280.237Zm0,0" transform="translate(-204.224 -202.655)" fill="#c2a3dd"/>
    <path id="Path_65085" data-name="Path 65085" d="M144.075,416.748l-11.982-11.2a1.705,1.705,0,0,0-2.329,2.492l8.825,8.252H98.8c-2.787-2.662-5.99-4.644-13.023-6.639a38.431,38.431,0,0,1-4.33-1.522A42.1,42.1,0,0,1,64.1,394.516l-.971-1.292a1.705,1.705,0,0,0-2.727,2.048l.971,1.293a45.517,45.517,0,0,0,18.75,14.709,42.043,42.043,0,0,0,4.716,1.658c5.236,1.484,8.708,2.922,12.054,6.268a1.7,1.7,0,0,0,1.206.5H142.91a1.706,1.706,0,0,0,1.165-2.951Zm0,0" transform="translate(-46.022 -303.306)" fill="#c2a3dd"/>
    <path id="Path_65086" data-name="Path 65086" d="M4.638,149.355a3.663,3.663,0,0,1,5.7-4.59l6.613,7.678a1.705,1.705,0,1,0,2.584-2.225l-6.613-7.679L9.6,138.671a4.615,4.615,0,1,1,6.995-6.023l8.535,9.908a1.705,1.705,0,1,0,2.584-2.225l-9.9-11.5A4.615,4.615,0,1,1,24.8,122.81l12.55,14.57a1.705,1.705,0,0,0,2.584-2.226l-12.55-14.57L17.8,109.454a4.617,4.617,0,0,1,.485-6.51c2.73-2.35,5.554-.349,6.652.632.6.562,21.67,20.151,31.389,30.07a1.705,1.705,0,1,0,2.436-2.387c-1.209-1.235-2.595-2.619-4.092-4.1l-.295-24.452a4.309,4.309,0,0,0-5.4-4.141,14.48,14.48,0,0,0-10.423,10.594L38,111.15c-5.971-5.641-10.651-9.99-10.75-10.083l-.022-.02c-3.615-3.241-7.893-3.5-11.166-.686a8.026,8.026,0,0,0-.844,11.319l5.3,6.155a8.034,8.034,0,0,0-7.03,9.812,8.023,8.023,0,0,0-7.029,12.526A7.069,7.069,0,0,0,1.911,151.4l8.369,11.145a1.705,1.705,0,0,0,2.727-2.049Zm37.206-39.3.016-.06a11.072,11.072,0,0,1,7.977-8.125.9.9,0,0,1,1.126.872l.253,21.044c-3.357-3.262-7-6.748-10.421-9.988Zm0,0" transform="translate(0 -76.043)" fill="#c2a3dd"/>
  </g>
</svg>
