<svg xmlns="http://www.w3.org/2000/svg" width="29.276" height="29.278" viewBox="0 0 29.276 29.278">
  <g id="management" transform="translate(-0.014)">
    <g id="Group_57273" data-name="Group 57273" transform="translate(0.014 6.773)">
      <g id="Group_57272" data-name="Group 57272" transform="translate(0)">
        <path id="Path_64982" data-name="Path 64982" d="M26.233,131.131l-1.908-.456V130a3.577,3.577,0,0,0,1.763-3.081v-2.53a3.58,3.58,0,0,0-3.576-3.576h-.4A3.568,3.568,0,0,0,19.461,122a5.032,5.032,0,0,0-9.618,0,3.568,3.568,0,0,0-2.656-1.184h-.4a3.58,3.58,0,0,0-3.576,3.576v2.53A3.577,3.577,0,0,0,4.979,130v.67l-1.908.456A3.969,3.969,0,0,0,.014,135v1.721a.572.572,0,0,0,.572.572H5.2a5.4,5.4,0,0,0-.044.687v1.829H1.729a.572.572,0,0,0,0,1.144H27.575a.572.572,0,0,0,0-1.144H24.144v-1.826a5.4,5.4,0,0,0-.044-.69h4.619a.572.572,0,0,0,.572-.572V135A3.969,3.969,0,0,0,26.233,131.131Zm-6.549-6.737a2.435,2.435,0,0,1,2.433-2.433h.4a2.435,2.435,0,0,1,2.433,2.433v.147a4.318,4.318,0,0,1-2.317-.706.571.571,0,0,0-.626,0,4.317,4.317,0,0,1-2.317.706v-.147Zm0,2.064v-.773a5.456,5.456,0,0,0,2.63-.7,5.455,5.455,0,0,0,2.63.7v1.24a2.435,2.435,0,0,1-2.433,2.433h-.4a2.435,2.435,0,0,1-2.433-2.433v-.466Zm1.1,6.582a5.392,5.392,0,0,0-.722-.228l-1.817-.434a2.835,2.835,0,0,1,.417-.135l1.806-.433Zm-.473-3.032v.664l-1.915.459a3.973,3.973,0,0,0-1.164.484v-.836a5.069,5.069,0,0,0,1.862-1.952A3.6,3.6,0,0,0,20.307,130.006Zm-1.767-3.549a3.888,3.888,0,1,1-7.776,0v-1.675h.628a7.364,7.364,0,0,0,4.392-1.442l.131.2a2.8,2.8,0,0,0,2.334,1.247h.291v1.675Zm-7.777-2.973a3.888,3.888,0,0,1,7.776,0v.155h-.291a1.661,1.661,0,0,1-1.383-.739l-.211-.316q.257-.261.491-.549a.572.572,0,1,0-.889-.719,6.226,6.226,0,0,1-4.864,2.323h-.628Zm-.55,5.342a5.069,5.069,0,0,0,1.868,1.955v.836a3.973,3.973,0,0,0-1.169-.488L9,130.67v-.664A3.6,3.6,0,0,0,10.214,128.826Zm.843,3.548-1.815.435a5.388,5.388,0,0,0-.717.227l.315-1.227,1.806.433A2.829,2.829,0,0,1,11.056,132.374Zm-6.7-7.981a2.435,2.435,0,0,1,2.433-2.433h.4a2.435,2.435,0,0,1,2.433,2.433v.147a4.318,4.318,0,0,1-2.317-.706.571.571,0,0,0-.626,0,4.316,4.316,0,0,1-2.317.706v-.147Zm0,2.53v-1.24a5.456,5.456,0,0,0,2.63-.7,5.455,5.455,0,0,0,2.63.7v1.24a2.435,2.435,0,0,1-2.433,2.433h-.4A2.435,2.435,0,0,1,4.36,126.924Zm1.123,9.23H1.158V135a2.829,2.829,0,0,1,2.179-2.761l1.8-.43.851,3.316A5.29,5.29,0,0,0,5.483,136.153Zm.64-5.717a3.576,3.576,0,0,0,.669.064h.4a3.576,3.576,0,0,0,.666-.063v.612l-.717,2.793c-.084.067-.166.137-.245.209l-.769-3v-.618Zm.181,9.377v-1.828a4.165,4.165,0,0,1,1.746-3.4l5.229,5.229Zm2.815-5.778c.127-.044.257-.082.39-.114l2.731-.654,1.342,5.231Zm4.106-1.528v-1.225a5.035,5.035,0,0,0,2.86,0v1.233l-1.429,5.57Zm3.846.765,2.723.65c.137.033.27.073.4.118l-4.467,4.467Zm5.93,6.54H16.04l5.221-5.221a4.164,4.164,0,0,1,1.739,3.4Zm.181-8.759h0l-.769,3c-.079-.072-.161-.141-.244-.208l-.717-2.8v-.612a3.578,3.578,0,0,0,.666.063h.4a3.578,3.578,0,0,0,.669-.064v.618Zm4.965,5.1H23.82a5.294,5.294,0,0,0-.5-1.023l.851-3.317,1.8.43A2.829,2.829,0,0,1,28.146,135v1.15Z" transform="translate(-0.014 -118.452)" fill="#363d4e"/>
      </g>
    </g>
    <g id="Group_57275" data-name="Group 57275" transform="translate(14.08)">
      <g id="Group_57274" data-name="Group 57274">
        <path id="Path_64983" data-name="Path 64983" d="M246.572,0A.572.572,0,0,0,246,.572V3.02a.572.572,0,0,0,1.144,0V.572A.572.572,0,0,0,246.572,0Z" transform="translate(-246)" fill="#363d4e"/>
      </g>
    </g>
    <g id="Group_57277" data-name="Group 57277" transform="translate(14.08 4.437)">
      <g id="Group_57276" data-name="Group 57276">
        <path id="Path_64984" data-name="Path 64984" d="M246.975,77.753a.571.571,0,1,0,.168.4A.576.576,0,0,0,246.975,77.753Z" transform="translate(-245.999 -77.585)" fill="#363d4e"/>
      </g>
    </g>
    <g id="Group_57279" data-name="Group 57279" transform="translate(7.755 2.448)">
      <g id="Group_57278" data-name="Group 57278">
        <path id="Path_64985" data-name="Path 64985" d="M138.478,45.1l-2.119-2.118a.572.572,0,1,0-.809.809l2.119,2.118a.572.572,0,1,0,.809-.809Z" transform="translate(-135.384 -42.813)" fill="#363d4e"/>
      </g>
    </g>
    <g id="Group_57281" data-name="Group 57281" transform="translate(18.243 2.359)">
      <g id="Group_57280" data-name="Group 57280">
        <path id="Path_64986" data-name="Path 64986" d="M322.027,41.427a.572.572,0,0,0-.809,0l-2.248,2.248a.572.572,0,0,0,.809.809l2.248-2.248A.572.572,0,0,0,322.027,41.427Z" transform="translate(-318.803 -41.26)" fill="#363d4e"/>
      </g>
    </g>
  </g>
</svg>
