<svg xmlns="http://www.w3.org/2000/svg" width="15.834" height="17.083" viewBox="0 0 15.834 17.083">
  <path id="Path_68" data-name="Path 68" d="M151.917,718a.834.834,0,0,1-.736.828l-.1.005h-.7l-1.026,10.434a2.291,2.291,0,0,1-2.281,2.066h-6.145a2.289,2.289,0,0,1-2.28-2.066l-1.026-10.434h-.7a.833.833,0,1,1,0-1.666h4.166a2.917,2.917,0,0,1,5.834,0h4.166a.833.833,0,0,1,.834.833Zm-6.042,2.708a.624.624,0,0,0-.619.54l-.006.085v5.834l.006.085a.625.625,0,0,0,1.238,0l.006-.085v-5.834l-.006-.085a.624.624,0,0,0-.619-.54Zm-3.75,0a.624.624,0,0,0-.619.54l-.006.085v5.834l.006.085a.625.625,0,0,0,1.238,0l.006-.085v-5.834l-.006-.085a.624.624,0,0,0-.619-.54ZM144,715.917a1.25,1.25,0,0,0-1.25,1.25h2.5a1.25,1.25,0,0,0-1.25-1.25Z" transform="translate(-136.083 -714.25)" fill="#fff"/>
</svg>
