<svg xmlns="http://www.w3.org/2000/svg" width="24.374" height="21.937" viewBox="0 0 24.374 21.937">
  <path id="Path_62017" data-name="Path 62017" d="M273,75.281a1.222,1.222,0,0,0,1.219,1.219h7.312V74.062h-7.312A1.222,1.222,0,0,0,273,75.281Zm13.406,2.437V76.5h9.75a1.219,1.219,0,0,0,0-2.437h-9.75V72.843a1.219,1.219,0,1,0-2.437,0v4.875a1.219,1.219,0,0,0,2.437,0Zm-7.312-12.187V66.75h-4.875a1.219,1.219,0,1,0,0,2.437h4.875v1.219a1.219,1.219,0,1,0,2.437,0V65.531a1.219,1.219,0,1,0-2.437,0Zm18.281,2.437a1.222,1.222,0,0,0-1.219-1.219H283.968v2.437h12.187A1.222,1.222,0,0,0,297.374,67.968ZM273,60.656a1.222,1.222,0,0,0,1.219,1.219h12.187V59.437H274.219A1.222,1.222,0,0,0,273,60.656Zm17.062,3.656a1.222,1.222,0,0,0,1.219-1.219V61.875h4.875a1.219,1.219,0,0,0,0-2.437h-4.875V58.219a1.219,1.219,0,0,0-2.437,0v4.875A1.222,1.222,0,0,0,290.062,64.312Z" transform="translate(-273 -57)" fill="#9c29fa" fill-rule="evenodd"/>
</svg>
