<svg xmlns="http://www.w3.org/2000/svg" width="141.131" height="163.853" viewBox="0 0 141.131 163.853">
  <g id="cheers" transform="translate(-35.498 0)">
    <path id="Path_65006" data-name="Path 65006" d="M286.59,23.524a3.19,3.19,0,0,0,3.82-2.419L293.5,7.367a3.2,3.2,0,1,0-6.236-1.407L284.174,19.7A3.2,3.2,0,0,0,286.59,23.524Z" transform="translate(-169.04 -2.354)" fill="#6b00c3"/>
    <path id="Path_65007" data-name="Path 65007" d="M227.813,16.81a3.2,3.2,0,1,0,5.4-3.42l-7.51-11.9a3.2,3.2,0,1,0-5.4,3.419Z" transform="translate(-125.326 0)" fill="#6b00c3"/>
    <path id="Path_65008" data-name="Path 65008" d="M328.118,46a3.181,3.181,0,0,0,1.705-.5l11.892-7.53a3.2,3.2,0,0,0-3.416-5.41L326.407,40.1A3.2,3.2,0,0,0,328.118,46Z" transform="translate(-196.799 -21.809)" fill="#6b00c3"/>
    <path id="Path_65009" data-name="Path 65009" d="M170.989,174.734l-20.24-8.727L144.26,141.75a35.467,35.467,0,0,0,19.391-17.807A29.939,29.939,0,0,0,164.4,99.2c-.024-.059-.22-.518-.3-.689L150.186,67.349a3.2,3.2,0,0,0-3.745-1.785l-30.581,8.2.469-4.533A3.2,3.2,0,0,0,114,65.819l-10.01-2.762a3.2,3.2,0,0,0-1.7,6.171l7.4,2.042-1.366,13.2c-9.077-4.168-20.994-3.723-29.212,1.558-6.657,4.278-17.239,4.348-24.394.458L66.666,59.74l8.07,2.166a3.2,3.2,0,0,0,1.655-6.183l-10.7-2.873a3.2,3.2,0,0,0-3.745,1.784L48.021,85.809a29.932,29.932,0,0,0,.453,25.421,35.487,35.487,0,0,0,19.4,17.816L61.381,153.3l-20.242,8.719a9.205,9.205,0,0,0-5.623,8.953c.242,3.793,2.946,6.883,7.058,8.066l.056.015,28.3,7.585.051.013a11.361,11.361,0,0,0,2.762.351,8.645,8.645,0,0,0,7.387-3.79,9.207,9.207,0,0,0-.4-10.568L67.556,154.96,74.044,130.7a34.271,34.271,0,0,0,5.674.471,35.495,35.495,0,0,0,20.021-6.19q.775-.534,1.508-1.1a30.563,30.563,0,0,0,12.415,14.643,35.838,35.838,0,0,0,18.82,5.34,34.218,34.218,0,0,0,5.6-.459l6.489,24.258L131.4,185.351A9.21,9.21,0,0,0,131,195.918a8.649,8.649,0,0,0,7.394,3.8,11.368,11.368,0,0,0,2.751-.348l.054-.014,28.3-7.594.053-.015c4.12-1.183,6.828-4.276,7.068-8.073a9.187,9.187,0,0,0-5.623-8.937ZM115.155,80.584l30.308-8.131L157.4,99.2c-7.152,3.891-17.733,3.819-24.4-.463-5.237-3.369-12.335-4.852-19.3-4.164ZM75.808,179.665c-.788,1.184-2.368,1-3.256.785l-28.238-7.569c-.876-.256-2.328-.893-2.418-2.314a2.825,2.825,0,0,1,1.772-2.666l19.345-8.333,12.588,16.9A2.822,2.822,0,0,1,75.808,179.665Zm20.309-59.952a29.214,29.214,0,0,1-23.545,4.13h0a29.27,29.27,0,0,1-18.325-15.366,23.811,23.811,0,0,1-1.78-15.946,31.77,31.77,0,0,0,14.189,3.246,29.667,29.667,0,0,0,15.915-4.36c6.863-4.411,17.9-4.352,25.05-.1l-1.161,11.218a23.575,23.575,0,0,1-10.34,17.175Zm20.924,13.379a23.942,23.942,0,0,1-10.7-14.173,29.56,29.56,0,0,0,6.477-15.722l.217-2.1c5.971-.9,12.136.2,16.522,3.019a29.678,29.678,0,0,0,15.925,4.365,31.756,31.756,0,0,0,14.181-3.244,23.808,23.808,0,0,1-1.78,15.949,29.248,29.248,0,0,1-18.321,15.357h0A29.03,29.03,0,0,1,117.041,133.091Zm50.766,52.493-28.236,7.578c-.888.218-2.466.395-3.253-.791a2.825,2.825,0,0,1,.21-3.2l12.589-16.9,19.348,8.342a2.81,2.81,0,0,1,1.769,2.653c-.089,1.423-1.547,2.061-2.426,2.317Z" transform="translate(0 -35.862)" fill="#6b00c3"/>
    <path id="Path_65010" data-name="Path 65010" d="M195.885,79.382a3.2,3.2,0,0,0,0-6.4h-.019a3.2,3.2,0,0,0,.019,6.4Z" transform="translate(-106.88 -49.625)" fill="#6b00c3"/>
  </g>
</svg>
