<svg xmlns="http://www.w3.org/2000/svg" width="9.336" height="11.633" viewBox="0 0 9.336 11.633">
  <path id="Path_83" data-name="Path 83" d="M314.083,86.667h-8.166a.583.583,0,1,0,0,1.167h8.166a.583.583,0,1,0,0-1.167ZM305.917,85.5h.052l2.433-.222a1.165,1.165,0,0,0,.7-.332l5.25-5.25a1.119,1.119,0,0,0-.04-1.581l-1.6-1.6a1.166,1.166,0,0,0-1.551-.041l-5.25,5.25a1.167,1.167,0,0,0-.333.706l-.251,2.432a.588.588,0,0,0,.169.467.592.592,0,0,0,.191.126A.584.584,0,0,0,305.917,85.5Zm5.99-8.167,1.593,1.592-1.167,1.138L310.77,78.5Z" transform="translate(-305.331 -76.2)" fill="#fff"/>
</svg>
