<svg xmlns="http://www.w3.org/2000/svg" width="222.19" height="181.484" viewBox="0 0 222.19 181.484">
  <g id="mortarboard" transform="translate(0 -45.908)">
    <path id="Path_65030" data-name="Path 65030" d="M213.729,87.095,123.568,48.453a31.823,31.823,0,0,0-24.96.007L8.467,87.093a13.963,13.963,0,0,0-.005,25.669l10.655,4.567a3.336,3.336,0,0,0-.017.334v50.424a10.408,10.408,0,0,0-4.45,16.8,11.067,11.067,0,0,0-3.272,6.931L8.825,219.9a6.872,6.872,0,0,0,6.844,7.494H29.181a6.872,6.872,0,0,0,6.844-7.494l-2.553-28.083a11.067,11.067,0,0,0-3.272-6.931,10.408,10.408,0,0,0-4.45-16.8V120.172l18.194,7.8a3.327,3.327,0,0,0-.017.334v25.387c0,10.6,7.255,20.4,20.429,27.6,12.539,6.856,29.138,10.632,46.738,10.632s34.2-3.776,46.738-10.632c13.174-7.2,20.429-17.006,20.429-27.6V128.3a3.308,3.308,0,0,0-.017-.333l35.479-15.205a13.964,13.964,0,0,0,.006-25.67ZM29.345,220.669a.207.207,0,0,1-.164.072H15.668a.222.222,0,0,1-.221-.242L18,192.418a4.443,4.443,0,0,1,8.849,0L29.4,220.5A.207.207,0,0,1,29.345,220.669Zm-6.92-38.942a3.768,3.768,0,1,1,3.768-3.768A3.773,3.773,0,0,1,22.425,181.727ZM171.612,139.5c0,8.6-7.077,16.993-19.416,23.032a3.325,3.325,0,1,0,2.924,5.973,50.6,50.6,0,0,0,16.237-11.967c-1.247,7.012-7.069,13.642-16.714,18.916-11.578,6.331-27.043,9.817-43.548,9.817s-31.97-3.486-43.548-9.817c-9.61-5.255-15.426-11.856-16.7-18.84a48.567,48.567,0,0,0,13.511,10.488c12.539,6.856,29.138,10.632,46.738,10.632a119.047,119.047,0,0,0,14.6-.89,3.325,3.325,0,1,0-.818-6.6,112.319,112.319,0,0,1-13.778.84c-16.5,0-31.97-3.486-43.548-9.817C56.6,155.287,50.578,147.557,50.578,139.5v-8.691L98.622,151.4a31.822,31.822,0,0,0,24.96-.006l48.03-20.584V139.5ZM211.1,106.652l-90.142,38.632a25.142,25.142,0,0,1-19.72.007L32.35,115.765l63.123-10.978c2.839,3.36,8.625,5.56,15.621,5.56,9.984,0,17.512-4.479,17.512-10.419S121.078,89.51,111.095,89.51c-9.067,0-16.109,3.695-17.325,8.823L21.855,110.84a3.321,3.321,0,0,0-.606.167l-10.168-4.358a7.313,7.313,0,0,1,0-13.444l90.142-38.632a25.144,25.144,0,0,1,19.72-.007l90.161,38.641a7.314,7.314,0,0,1-.005,13.445ZM100.233,99.929c0-.969,3.735-3.768,10.862-3.768s10.862,2.8,10.862,3.768-3.735,3.768-10.862,3.768S100.233,100.9,100.233,99.929Z" fill="#6b00c3"/>
    <path id="Path_65031" data-name="Path 65031" d="M302.4,326.3a3.341,3.341,0,0,0,.752-.086c2.509-.58,4.981-1.253,7.348-2a3.325,3.325,0,0,0-2.006-6.341c-2.2.7-4.5,1.322-6.839,1.862a3.326,3.326,0,0,0,.745,6.566Z" transform="translate(-166.483 -151.305)" fill="#6b00c3"/>
  </g>
</svg>
