<svg xmlns="http://www.w3.org/2000/svg" width="23.453" height="19.238" viewBox="0 0 23.453 19.238">
  <g id="email" transform="translate(0 -46.004)">
    <g id="Group_57476" data-name="Group 57476" transform="translate(17.027 51.514)">
      <g id="Group_57475" data-name="Group 57475" transform="translate(0 0)">
        <path id="Path_65175" data-name="Path 65175" d="M372.5,166.423a.458.458,0,1,0-.65.645l0,0a.453.453,0,0,0,.323.135.459.459,0,0,0,.324-.783Z" transform="translate(-371.717 -166.288)" fill="#6b18c3"/>
      </g>
    </g>
    <g id="Group_57478" data-name="Group 57478" transform="translate(4.215 46.004)">
      <g id="Group_57477" data-name="Group 57477" transform="translate(0 0)">
        <path id="Path_65176" data-name="Path 65176" d="M111.115,57.158,106.861,52.9a.458.458,0,1,0-.648.648l3.377,3.377h-8.054a1.213,1.213,0,0,1-1.212-1.212V47.663l3.261,3.261a.458.458,0,1,0,.648-.648L100.1,46.138a.458.458,0,0,0-.648,0l-7.3,7.3a.458.458,0,0,0,0,.648l11.02,11.02a.458.458,0,0,0,.648,0l7.3-7.3a.458.458,0,0,0,0-.648ZM99.409,47.473v5.834H93.575Zm3.622,16.206-9.456-9.456h5.834v1.494a2.13,2.13,0,0,0,2.128,2.128h1.494Zm.916,0V57.845h5.834Z" transform="translate(-92.011 -46.004)" fill="#6b18c3"/>
      </g>
    </g>
    <g id="Group_57480" data-name="Group 57480" transform="translate(0 55.532)">
      <g id="Group_57479" data-name="Group 57479" transform="translate(0 0)">
        <path id="Path_65177" data-name="Path 65177" d="M3.144,254H.458a.458.458,0,0,0,0,.916H3.144a.458.458,0,0,0,0-.916Z" transform="translate(0 -253.999)" fill="#6b18c3"/>
      </g>
    </g>
    <g id="Group_57482" data-name="Group 57482" transform="translate(4.045 55.532)">
      <g id="Group_57481" data-name="Group 57481" transform="translate(0 0)">
        <path id="Path_65178" data-name="Path 65178" d="M88.761,254h-.007a.458.458,0,0,0,0,.916h.007a.458.458,0,0,0,0-.916Z" transform="translate(-88.296 -253.999)" fill="#6b18c3"/>
      </g>
    </g>
    <g id="Group_57484" data-name="Group 57484" transform="translate(0.001 50.722)">
      <g id="Group_57483" data-name="Group 57483" transform="translate(0 0)">
        <path id="Path_65179" data-name="Path 65179" d="M1.937,149H.471a.458.458,0,0,0,0,.916H1.937a.458.458,0,0,0,0-.916Z" transform="translate(-0.013 -149.002)" fill="#6b18c3"/>
      </g>
    </g>
    <g id="Group_57486" data-name="Group 57486" transform="translate(2.963 50.722)">
      <g id="Group_57485" data-name="Group 57485" transform="translate(0 0)">
        <path id="Path_65180" data-name="Path 65180" d="M66.873,149H65.14a.458.458,0,0,0,0,.916h1.733a.458.458,0,0,0,0-.916Z" transform="translate(-64.682 -149.002)" fill="#6b18c3"/>
      </g>
    </g>
    <g id="Group_57488" data-name="Group 57488" transform="translate(3.128 58.051)">
      <g id="Group_57487" data-name="Group 57487">
        <path id="Path_65181" data-name="Path 65181" d="M71.306,309H68.741a.458.458,0,0,0,0,.916h2.565a.458.458,0,0,0,0-.916Z" transform="translate(-68.283 -308.998)" fill="#6b18c3"/>
      </g>
    </g>
    <g id="Group_57490" data-name="Group 57490" transform="translate(1.237 60.982)">
      <g id="Group_57489" data-name="Group 57489">
        <path id="Path_65182" data-name="Path 65182" d="M33.926,373H27.467a.458.458,0,1,0,0,.916h6.459a.458.458,0,1,0,0-.916Z" transform="translate(-27.009 -372.996)" fill="#6b18c3"/>
      </g>
    </g>
  </g>
</svg>
