<?xml version="1.0" standalone="no"?>
<!DOCTYPE svg PUBLIC "-//W3C//DTD SVG 20010904//EN"
 "http://www.w3.org/TR/2001/REC-SVG-20010904/DTD/svg10.dtd">
<svg version="1.0" xmlns="http://www.w3.org/2000/svg"
 width="60.000000pt" height="60.000000pt" viewBox="0 0 60.000000 60.000000"
 preserveAspectRatio="xMidYMid meet">

<g transform="translate(0.000000,60.000000) scale(0.100000,-0.100000)"
fill="#000000" stroke="none">
<path d="M80 467 c0 -14 205 -207 220 -207 10 0 240 208 240 216 0 2 -103 4
-230 4 -178 0 -230 -3 -230 -13z"/>
<path d="M28 413 c-1 -4 -2 -70 -2 -146 -1 -130 0 -138 19 -143 11 -2 135 -3
275 -2 l255 3 2 135 c2 142 -4 173 -26 146 -8 -9 -19 -16 -25 -16 -6 0 -53
-39 -104 -85 -123 -113 -121 -113 -258 13 -100 92 -132 114 -136 95z"/>
</g>
</svg>
