<svg id="happiness" xmlns="http://www.w3.org/2000/svg" width="173" height="173" viewBox="0 0 173 173">
  <g id="Group_57375" data-name="Group 57375" transform="translate(99.05 53.01)">
    <g id="Group_57374" data-name="Group 57374">
      <path id="Path_65032" data-name="Path 65032" d="M298.544,157.507a3.379,3.379,0,0,0-4.711.8l-.066.092a3.379,3.379,0,1,0,5.511,3.911l.066-.092A3.379,3.379,0,0,0,298.544,157.507Z" transform="translate(-293.144 -156.884)" fill="#6b00c3"/>
    </g>
  </g>
  <g id="Group_57377" data-name="Group 57377" transform="translate(73.635 61.973)">
    <g id="Group_57376" data-name="Group 57376">
      <path id="Path_65033" data-name="Path 65033" d="M241.043,184.647a3.378,3.378,0,0,0-4.755-.469,41.877,41.877,0,0,1-15.855,8.147,3.379,3.379,0,1,0,1.743,6.529,48.591,48.591,0,0,0,18.4-9.451A3.378,3.378,0,0,0,241.043,184.647Z" transform="translate(-217.925 -183.411)" fill="#6b00c3"/>
    </g>
  </g>
  <g id="Group_57379" data-name="Group 57379" transform="translate(0 18.246)">
    <g id="Group_57378" data-name="Group 57378">
      <path id="Path_65034" data-name="Path 65034" d="M162.863,112.276a10.148,10.148,0,0,0-10.137,10.136v1.69a28.761,28.761,0,0,1-23.833,28.3,16.2,16.2,0,0,0,2.8-9.118v-2.347a16.288,16.288,0,0,0-32.576,0v2.347a16.189,16.189,0,0,0,2.667,8.916A28.768,28.768,0,0,1,79.023,124.1v-1.69a10.137,10.137,0,0,0-20.273,0v1.69a48.591,48.591,0,0,0,4.088,19.618H39.846V109.692a3.378,3.378,0,0,0-2.45-3.248A42.432,42.432,0,0,1,6.758,65.826V64.137a3.379,3.379,0,1,1,6.758,0v1.689A35.519,35.519,0,0,0,48.994,101.3H65.256a35.519,35.519,0,0,0,35.479-35.479V64.137a3.379,3.379,0,1,1,6.758,0v1.689A41.941,41.941,0,0,1,104.711,80.9a3.379,3.379,0,0,0,6.31,2.42,48.673,48.673,0,0,0,3.229-17.5V64.137a10.137,10.137,0,1,0-20.273,0v1.689a28.762,28.762,0,0,1-23.833,28.3,16.194,16.194,0,0,0,2.8-9.117V82.658a16.288,16.288,0,1,0-32.576,0v2.347a16.186,16.186,0,0,0,2.667,8.915A28.767,28.767,0,0,1,20.273,65.826V64.137A10.137,10.137,0,1,0,0,64.137v1.689A48.506,48.506,0,0,0,10.086,95.572a49.509,49.509,0,0,0,23,16.6V147.1a3.379,3.379,0,0,0,3.379,3.379h.617v54.9a3.379,3.379,0,1,0,6.758,0v-54.9H66.468q1.108,1.723,2.368,3.369c.224.292.456.576.687.862v50.665a3.379,3.379,0,1,0,6.758,0v-43.76a49.393,49.393,0,0,0,15.559,8.829v34.931a3.379,3.379,0,1,0,6.758,0V167.968a3.378,3.378,0,0,0-2.45-3.248A42.431,42.431,0,0,1,65.508,124.1v-1.69a3.379,3.379,0,0,1,6.758,0v1.69a35.519,35.519,0,0,0,35.479,35.479h16.262A35.519,35.519,0,0,0,159.484,124.1v-1.69a3.379,3.379,0,0,1,6.758,0v1.69a42.3,42.3,0,0,1-31.349,40.814,3.379,3.379,0,0,0-2.507,3.264v24.467a3.379,3.379,0,0,0,6.758,0V170.7A49.07,49.07,0,0,0,173,124.1v-1.69A10.148,10.148,0,0,0,162.863,112.276ZM47.123,82.658a9.53,9.53,0,1,1,19.06,0V85a9.53,9.53,0,0,1-19.06,0Zm77.81,60.623a9.53,9.53,0,0,1-19.06,0v-2.347a9.53,9.53,0,0,1,19.06,0Z" transform="translate(0 -54)" fill="#6b00c3"/>
    </g>
  </g>
  <g id="Group_57381" data-name="Group 57381" transform="translate(132.386 166.242)">
    <g id="Group_57380" data-name="Group 57380">
      <path id="Path_65035" data-name="Path 65035" d="M397.568,492.99a3.377,3.377,0,1,0,.99,2.389A3.4,3.4,0,0,0,397.568,492.99Z" transform="translate(-391.8 -492)" fill="#6b00c3"/>
    </g>
  </g>
  <g id="Group_57383" data-name="Group 57383" transform="translate(53.274 126.371)">
    <g id="Group_57382" data-name="Group 57382">
      <path id="Path_65036" data-name="Path 65036" d="M161.046,374a3.379,3.379,0,0,0-3.379,3.379V417.25a3.379,3.379,0,1,0,6.758,0V377.379A3.379,3.379,0,0,0,161.046,374Z" transform="translate(-157.667 -374)" fill="#6b00c3"/>
    </g>
  </g>
  <g id="Group_57385" data-name="Group 57385" transform="translate(154.078 27.707)">
    <g id="Group_57384" data-name="Group 57384">
      <path id="Path_65037" data-name="Path 65037" d="M459.379,82A3.379,3.379,0,0,0,456,85.379v4.2a3.379,3.379,0,0,0,6.758,0v-4.2A3.379,3.379,0,0,0,459.379,82Z" transform="translate(-456 -82)" fill="#6b00c3"/>
    </g>
  </g>
  <g id="Group_57387" data-name="Group 57387" transform="translate(154.078 47.835)">
    <g id="Group_57386" data-name="Group 57386">
      <path id="Path_65038" data-name="Path 65038" d="M459.379,141.57A3.379,3.379,0,0,0,456,144.949v4.2a3.379,3.379,0,0,0,6.758,0v-4.2A3.379,3.379,0,0,0,459.379,141.57Z" transform="translate(-456 -141.57)" fill="#6b00c3"/>
    </g>
  </g>
  <g id="Group_57389" data-name="Group 57389" transform="translate(162.042 39.871)">
    <g id="Group_57388" data-name="Group 57388">
      <path id="Path_65039" data-name="Path 65039" d="M487.149,118h-4.2a3.379,3.379,0,1,0,0,6.758h4.2a3.379,3.379,0,0,0,0-6.758Z" transform="translate(-479.57 -118)" fill="#6b00c3"/>
    </g>
  </g>
  <g id="Group_57391" data-name="Group 57391" transform="translate(141.914 39.871)">
    <g id="Group_57390" data-name="Group 57390">
      <path id="Path_65040" data-name="Path 65040" d="M427.579,118h-4.2a3.379,3.379,0,0,0,0,6.758h4.2a3.379,3.379,0,0,0,0-6.758Z" transform="translate(-420 -118)" fill="#6b00c3"/>
    </g>
  </g>
  <g id="Group_57393" data-name="Group 57393" transform="translate(70.914)">
    <g id="Group_57392" data-name="Group 57392">
      <path id="Path_65041" data-name="Path 65041" d="M213.252,0a3.379,3.379,0,0,0-3.379,3.379v4.2a3.379,3.379,0,0,0,6.758,0v-4.2A3.379,3.379,0,0,0,213.252,0Z" transform="translate(-209.873)" fill="#6b00c3"/>
    </g>
  </g>
  <g id="Group_57395" data-name="Group 57395" transform="translate(70.914 20.128)">
    <g id="Group_57394" data-name="Group 57394">
      <path id="Path_65042" data-name="Path 65042" d="M213.252,59.57a3.379,3.379,0,0,0-3.379,3.379v4.2a3.379,3.379,0,0,0,6.758,0v-4.2A3.379,3.379,0,0,0,213.252,59.57Z" transform="translate(-209.873 -59.57)" fill="#6b00c3"/>
    </g>
  </g>
  <g id="Group_57397" data-name="Group 57397" transform="translate(78.878 12.164)">
    <g id="Group_57396" data-name="Group 57396">
      <path id="Path_65043" data-name="Path 65043" d="M241.022,36h-4.2a3.379,3.379,0,0,0,0,6.758h4.2a3.379,3.379,0,0,0,0-6.758Z" transform="translate(-233.443 -36)" fill="#6b00c3"/>
    </g>
  </g>
  <g id="Group_57399" data-name="Group 57399" transform="translate(58.75 12.164)">
    <g id="Group_57398" data-name="Group 57398">
      <path id="Path_65044" data-name="Path 65044" d="M181.452,36h-4.2a3.379,3.379,0,0,0,0,6.758h4.2a3.379,3.379,0,0,0,0-6.758Z" transform="translate(-173.873 -36)" fill="#6b00c3"/>
    </g>
  </g>
</svg>
