<svg xmlns="http://www.w3.org/2000/svg" width="235.66" height="175.097" viewBox="0 0 235.66 175.097">
  <g id="children" transform="translate(0 -65.791)">
    <path id="Path_65023" data-name="Path 65023" d="M355.57,282.623A11.34,11.34,0,0,0,366.9,271.3a3.452,3.452,0,1,0-6.9,0,4.423,4.423,0,1,1-8.846,0,3.452,3.452,0,1,0-6.9,0A11.339,11.339,0,0,0,355.57,282.623Z" transform="translate(-185.797 -109.053)" fill="#6b00c3"/>
    <path id="Path_65024" data-name="Path 65024" d="M404.127,241.54a3.452,3.452,0,0,0,3.452-3.452v-3.607a3.452,3.452,0,0,0-.428-6.878h-3.024a3.452,3.452,0,0,0-3.452,3.452v7.033A3.452,3.452,0,0,0,404.127,241.54Z" transform="translate(-216.255 -87.334)" fill="#6b00c3"/>
    <path id="Path_65025" data-name="Path 65025" d="M318.482,234.482v3.607a3.452,3.452,0,1,0,6.9,0v-7.033a3.452,3.452,0,0,0-3.452-3.452H318.91a3.452,3.452,0,0,0-.428,6.878Z" transform="translate(-170.261 -87.335)" fill="#6b00c3"/>
    <path id="Path_65026" data-name="Path 65026" d="M221.366,151.374a16,16,0,0,0-2.489-17.434,3.431,3.431,0,0,0,.632-1.987c0-10.2.509-16.243-2.558-25.013a3.452,3.452,0,0,0-6.517,2.279c2.507,7.167,2.171,12.138,2.171,19.281H191.339a18.135,18.135,0,0,1-18.115-18.114,3.452,3.452,0,1,0-6.9,0A18.135,18.135,0,0,1,148.205,128.5H126.94V122.07a38.951,38.951,0,0,1,38.907-38.907.474.474,0,0,1,.473.473,3.452,3.452,0,0,0,6.9,0,.474.474,0,0,1,.473-.473,38.92,38.92,0,0,1,29.337,13.35,3.452,3.452,0,1,0,5.2-4.537A45.821,45.821,0,0,0,173.7,76.26a7.333,7.333,0,0,0-3.925,1.133,7.333,7.333,0,0,0-3.925-1.133,45.863,45.863,0,0,0-45.811,45.811v9.883a3.435,3.435,0,0,0,.632,1.987,16.061,16.061,0,0,0-2.791,4.453,17.454,17.454,0,0,0-6.818-12.486V112.756A47.011,47.011,0,0,0,64.1,65.8c-6.429,0-3.853-.111-12.745.584A39.213,39.213,0,0,0,21.467,84.114l-10.4-3.323a3.454,3.454,0,0,0-4.5,3.123c-.049,1.04-1.091,24.158,3.124,40.26a17.522,17.522,0,0,0,5.547,33.05A44.831,44.831,0,0,0,35.918,185.54H28.654A21.67,21.67,0,0,0,7.009,207.185v30.251a3.452,3.452,0,0,0,3.452,3.452H16.2a3.452,3.452,0,1,0,0-6.9H13.913v-26.8a14.758,14.758,0,0,1,14.741-14.741H38.7a20.627,20.627,0,0,0,40.673,0H89.413a14.758,14.758,0,0,1,14.742,14.741v26.8H32.305a3.452,3.452,0,1,0,0,6.9h75.3a3.452,3.452,0,0,0,3.452-3.452V207.185a21.523,21.523,0,0,0-1.59-8.129h5.546a25.662,25.662,0,0,0,9.812-1.943,20.958,20.958,0,0,0-3.372,11.417v28.906a3.452,3.452,0,0,0,3.452,3.452h89.96a3.452,3.452,0,0,0,3.452-3.452V208.53a20.958,20.958,0,0,0-3.293-11.295,25.661,25.661,0,0,0,9.5,1.82h7.677a3.452,3.452,0,0,0,3.452-3.452V174.462a25.977,25.977,0,0,0-14.294-23.087Zm-73.16-15.968a25.03,25.03,0,0,0,21.567-12.348,25.03,25.03,0,0,0,21.567,12.348h15.514a9.138,9.138,0,1,1-.366,18.268,3.442,3.442,0,0,0-3.551,2.879,33.657,33.657,0,0,1-62.354,11.173,3.458,3.458,0,0,0-.2-.416,33.415,33.415,0,0,1-3.183-7.948c-.014-.055-.026-.111-.04-.167-.2-.779-.382-1.6-.556-2.642a3.45,3.45,0,0,0-3.551-2.879,9.138,9.138,0,1,1-.366-18.269c.126,0,.251.006.376.01a3.429,3.429,0,0,0,.436-.01h14.7Zm21.623,70.611A11.926,11.926,0,0,1,157.918,194.1v-4.374a40.674,40.674,0,0,0,23.823-.035v4.409a11.927,11.927,0,0,1-11.3,11.9q-.3.015-.612.015Zm-27.286-18.578h0a21,21,0,0,0-6.765,1.122,25.7,25.7,0,0,0,4.463-9.85,40.072,40.072,0,0,0,10.777,8.18v.548Zm46.1-.6a40.2,40.2,0,0,0,10.663-8.123,25.69,25.69,0,0,0,4.389,9.746c-3.941-1.273-6-1.019-15.052-1.019v-.6ZM13.355,88.77l8.611,2.752A3.453,3.453,0,0,0,26.039,89.9,32.336,32.336,0,0,1,51.893,73.264c8.678-.678,6.047-.563,12.208-.563a40.1,40.1,0,0,1,40.054,40.054v9.972c-3.017-.649-2.062-.391-49.406-.391A23.107,23.107,0,0,1,32.1,103.709a3.456,3.456,0,0,0-5.909-1.7,44.943,44.943,0,0,0-10.352,18.174c-2.374-10.737-2.566-24.439-2.48-31.418ZM21.5,153.337a3.452,3.452,0,0,0-3.4-2.883l-.14,0c-.144.006-.288.012-.434.012a10.62,10.62,0,0,1-.386-21.232h.042c.257-.008.514-.008.769,0H18a3.447,3.447,0,0,0,3.5-2.879,37.645,37.645,0,0,1,4.815-13.11q.514-.861,1.075-1.7a30.06,30.06,0,0,0,27.355,17.688h46.165a10.734,10.734,0,0,1,4.926,1.479c.027.016.055.027.082.042a10.623,10.623,0,0,1-5.508,19.706c-.145,0-.29-.006-.434-.012a3.46,3.46,0,0,0-3.544,2.88,38,38,0,0,1-74.934,0Zm36.838,49.37a13.743,13.743,0,0,1-12.954-12.293c-.005-.05-.008-.1-.012-.152q-.021-.224-.034-.45a45.182,45.182,0,0,0,27.391-.043,13.741,13.741,0,0,1-14.391,12.937ZM89.414,185.54H82.023A44.829,44.829,0,0,0,102.7,157.225a17.574,17.574,0,0,0,14.041-11,15.909,15.909,0,0,0,1.44,5.15,25.977,25.977,0,0,0-14.294,23.087V191.1A21.556,21.556,0,0,0,89.414,185.54Zm21.376,6.612v-17.69a19.025,19.025,0,0,1,11.748-17.5,16.182,16.182,0,0,0,7.815,3.454,40.845,40.845,0,0,0,3.568,9.45v3.378a18.926,18.926,0,0,1-18.9,18.905h-4.226Zm100.627,41.832H128.36V208.53a14.2,14.2,0,0,1,14.187-14.187h8.468a18.816,18.816,0,0,0,37.629,0h8.585a14.2,14.2,0,0,1,14.187,14.187v25.454Zm17.339-41.832H224.53a18.926,18.926,0,0,1-18.9-18.905v-3.377a40.827,40.827,0,0,0,3.568-9.45,16.029,16.029,0,0,0,7.484-3.2c.11-.085.224-.164.331-.252a19.023,19.023,0,0,1,11.748,17.5Z" fill="#6b00c3"/>
    <path id="Path_65027" data-name="Path 65027" d="M113.75,278A12.268,12.268,0,0,0,126,265.745a3.452,3.452,0,1,0-6.9,0,5.35,5.35,0,0,1-10.7,0,3.452,3.452,0,1,0-6.9,0A12.269,12.269,0,0,0,113.75,278Z" transform="translate(-54.78 -106.057)" fill="#6b00c3"/>
    <path id="Path_65028" data-name="Path 65028" d="M80.12,217.564a3.452,3.452,0,0,0-3.452,3.452v7.632a3.452,3.452,0,1,0,6.9,0v-7.632A3.452,3.452,0,0,0,80.12,217.564Z" transform="translate(-41.38 -81.916)" fill="#6b00c3"/>
    <path id="Path_65029" data-name="Path 65029" d="M168.024,232.1a3.452,3.452,0,0,0,3.452-3.452v-7.632a3.452,3.452,0,1,0-6.9,0v7.632A3.452,3.452,0,0,0,168.024,232.1Z" transform="translate(-88.824 -81.916)" fill="#6b00c3"/>
  </g>
</svg>
