<svg id="google" xmlns="http://www.w3.org/2000/svg" width="12.855" height="12.855" viewBox="0 0 12.855 12.855">
  <path id="Path_65169" data-name="Path 65169" d="M272.794,211.479H267.55a.419.419,0,0,0-.419.419v1.675a.419.419,0,0,0,.419.419H270.5a3.942,3.942,0,0,1-1.7,1.988l1.259,2.18a6.3,6.3,0,0,0,3.214-5.512,4.249,4.249,0,0,0-.072-.823A.421.421,0,0,0,272.794,211.479Z" transform="translate(-260.424 -206.169)" fill="#167ee6"/>
  <path id="Path_65170" data-name="Path 65170" d="M39.975,335.8a3.912,3.912,0,0,1-3.384-1.958l-2.18,1.256a6.423,6.423,0,0,0,8.778,2.356v0l-1.259-2.18A3.883,3.883,0,0,1,39.975,335.8Z" transform="translate(-33.547 -325.465)" fill="#12b347"/>
  <path id="Path_65171" data-name="Path 65171" d="M259.214,392.962v0l-1.259-2.18a3.883,3.883,0,0,1-1.955.528v2.515A6.417,6.417,0,0,0,259.214,392.962Z" transform="translate(-249.572 -380.967)" fill="#0f993e"/>
  <path id="Path_65172" data-name="Path 65172" d="M2.515,131.33a3.883,3.883,0,0,1,.528-1.955l-2.18-1.256a6.4,6.4,0,0,0,0,6.422l2.18-1.256A3.883,3.883,0,0,1,2.515,131.33Z" transform="translate(0 -124.902)" fill="#ffd500"/>
  <path id="Path_65173" data-name="Path 65173" d="M39.975,2.515a3.9,3.9,0,0,1,2.484.892.418.418,0,0,0,.562-.025l1.187-1.187a.422.422,0,0,0-.024-.618,6.414,6.414,0,0,0-9.772,1.64l2.18,1.256A3.912,3.912,0,0,1,39.975,2.515Z" transform="translate(-33.547)" fill="#ff4b26"/>
  <path id="Path_65174" data-name="Path 65174" d="M258.484,3.407a.418.418,0,0,0,.562-.025l1.187-1.187a.422.422,0,0,0-.024-.618A6.408,6.408,0,0,0,256,0V2.515A3.9,3.9,0,0,1,258.484,3.407Z" transform="translate(-249.572 0)" fill="#d93f21"/>
</svg>
