<svg id="Group_57221" data-name="Group 57221" xmlns="http://www.w3.org/2000/svg" xmlns:xlink="http://www.w3.org/1999/xlink" width="176.969" height="176.969" viewBox="0 0 176.969 176.969">
  <defs>
    <clipPath id="clip-path">
      <path id="Path_64914" data-name="Path 64914" d="M0,176.969H5.709V171.26H0Zm171.26,0h5.709V171.26H171.26Zm-28.543-74.213h5.709V97.047h-5.709Zm0-11.417h5.709V85.63h-5.709Zm0-11.417h5.709V74.213h-5.709ZM85.63,42.815V37.106a8.563,8.563,0,0,1,17.126,0v5.709a8.563,8.563,0,1,1-17.126,0m-5.709-5.709v5.709A14.205,14.205,0,0,0,85.63,54.158v3.628L71.861,61.719a8.608,8.608,0,0,0-6.211,8.238v38.508h5.709V69.957a2.867,2.867,0,0,1,2.072-2.746l17.908-5.118V56.8a14.275,14.275,0,0,0,5.709,0v5.295l17.908,5.115a2.87,2.87,0,0,1,2.072,2.749v38.508h5.709V69.957a8.6,8.6,0,0,0-6.211-8.235l-13.769-3.933V54.161a14.215,14.215,0,0,0,5.709-11.346V37.106a14.272,14.272,0,1,0-28.543,0M134.99,12.254l4.036,4.036,3.691-3.691V68.5h5.709V12.6l3.691,3.691,4.036-4.036L145.571,1.673ZM25.689,5.709H42.815V22.835H37.106v5.709h5.709v5.709H31.4v5.709H42.815v5.709H37.106v5.709h5.709v5.709H31.4V62.8H42.815V68.5H37.106v5.709h5.709v5.709H31.4V85.63H42.815v5.709H37.106v5.709h5.709v5.709H31.4v5.709H42.815v5.709H37.106v5.709h5.709v5.709H31.4V131.3H42.815v5.709H37.106v5.709h5.709v5.709H31.4v5.709H42.815v5.709H37.106v5.709h5.709v5.709H25.689Zm22.835,0H99.9v5.708H48.524ZM19.98,0V171.26H11.417v5.709H165.551V171.26H149.607l6.545-6.545-4.036-4.036-3.691,3.691v-55.9h-5.709v55.9l-3.691-3.691-4.036,4.036,6.545,6.545H111.319V77.067H105.61V171.26H97.047V105.61H91.339v65.65H82.776V77.067H77.067V171.26H48.524V17.126H105.61V0Z" fill="#6b00c3"/>
    </clipPath>
  </defs>
  <g id="Group_57220" data-name="Group 57220" clip-path="url(#clip-path)">
    <rect id="Rectangle_6635" data-name="Rectangle 6635" width="176" height="176" transform="translate(0.484 0.484)" fill="#6b00c3"/>
  </g>
</svg>
