<svg xmlns="http://www.w3.org/2000/svg" width="18.936" height="15.083" viewBox="0 0 18.936 15.083">
  <g id="Group_57240" data-name="Group 57240" transform="translate(-15969 -1604)">
    <g id="hacker" transform="translate(15969 1604)">
      <g id="Hacker-2" data-name="Hacker" transform="translate(0 0)">
        <path id="Path_64930" data-name="Path 64930" d="M23.766,26.162c0,1.307-4.241,2.366-9.468,2.366S4.83,27.469,4.83,26.162c0-.61.923-1.164,2.443-1.586-.077.3-.143.575-.2.812a1.062,1.062,0,0,0,.143.815,1.248,1.248,0,0,0,.8.523c.373.073.68.143.958.206a19.5,19.5,0,0,0,5.318.446,23.145,23.145,0,0,0,5.387-.373c.254-.049.533-.1.864-.157a1.217,1.217,0,0,0,.84-.544,1.057,1.057,0,0,0,.112-.875c-.094-.314-.174-.6-.251-.871C22.811,24.981,23.766,25.545,23.766,26.162Z" transform="translate(-4.83 -19.617)" fill="#ab60ed"/>
        <path id="Path_64931" data-name="Path 64931" d="M38.687,44.284c-.7.089-1.064.308-1.1.435-.006.021-.023.144.237.425a1.181,1.181,0,0,0,.86.345,1.834,1.834,0,0,0,1.276-.5c.36-.359.369-.49.367-.513A2.493,2.493,0,0,0,38.687,44.284Z" transform="translate(-26.171 -32.446)" fill="#ab60ed"/>
        <path id="Path_64932" data-name="Path 64932" d="M20.744,44.285a4.359,4.359,0,0,0-.551-.035,1.743,1.743,0,0,0-1.094.238c0,.013.011.144.371.5a1.8,1.8,0,0,0,1.276.5,1.182,1.182,0,0,0,.86-.345c.26-.281.243-.4.237-.425-.035-.127-.4-.346-1.1-.435Z" transform="translate(-14.126 -32.446)" fill="#ab60ed"/>
        <path id="Path_64933" data-name="Path 64933" d="M24.711,38.659c-.5.087-1.014.163-1.552.224a44.289,44.289,0,0,1-4.84.233,44.29,44.29,0,0,1-4.84-.233c-.538-.061-1.055-.137-1.552-.224-.672-.118-1.031.708-.9,1.369a4.393,4.393,0,0,0,1.84,2.875,5.95,5.95,0,0,0,3.51.972,1.363,1.363,0,0,0,.968-.514c.317-.326.466-.57.972-.578.506.008.655.252.972.578a1.363,1.363,0,0,0,.968.514,5.95,5.95,0,0,0,3.51-.972,4.393,4.393,0,0,0,1.84-2.875C25.743,39.359,25.377,38.542,24.711,38.659Zm-7.868,3.309a1.869,1.869,0,0,1-1.358.569h-.05a2.492,2.492,0,0,1-1.733-.7c-.214-.212-.714-.711-.536-1.227.234-.68,1.409-.716,1.906-.7.925.029,1.979.3,2.166.979a1.161,1.161,0,0,1-.4,1.084Zm6.291-.134a2.492,2.492,0,0,1-1.733.7h-.05a1.87,1.87,0,0,1-1.358-.569,1.16,1.16,0,0,1-.4-1.083c.187-.677,1.242-.95,2.166-.979.5-.014,1.672.022,1.906.7.178.516-.322,1.014-.536,1.227Z" transform="translate(-8.851 -28.796)" fill="#ab60ed"/>
        <path id="Path_64934" data-name="Path 64934" d="M25.88,16.923a23.507,23.507,0,0,1-6.133.519,20.023,20.023,0,0,1-6.14-.638c-.258-.052-.46-.244-.4-.5.073-.321.171-.714.293-1.157.282-1.049.676-2.38,1.1-3.683a1.5,1.5,0,0,1,.937-1c.526-.206,1.028.056,1.634.275a5.527,5.527,0,0,0,2.673.624c1.523-.052,1.784-.582,3.4-.969a1.577,1.577,0,0,1,1.2.31c.767.505.791,1.443,1.119,2.917.122.544.233,1.011.366,1.509.1.383.22.784.359,1.258a.438.438,0,0,1-.4.533Z" transform="translate(-10.279 -10.378)" fill="#ab60ed"/>
      </g>
    </g>
  </g>
</svg>
