<svg xmlns="http://www.w3.org/2000/svg" width="9.719" height="9.719" viewBox="0 0 9.719 9.719">
  <g id="info" opacity="0.493">
    <path id="Path_64947" data-name="Path 64947" d="M8.3,1.423A4.859,4.859,0,0,0,1.423,8.3,4.859,4.859,0,0,0,8.3,1.423Zm-.2,6.671a4.575,4.575,0,0,1-6.47-6.47,4.575,4.575,0,0,1,6.47,6.47Zm0,0"/>
    <path id="Path_64948" data-name="Path 64948" d="M48.879,51.759a.142.142,0,0,0,.154-.13,3.664,3.664,0,0,1,7.3,0,.142.142,0,0,0,.142.13h.012a.142.142,0,0,0,.13-.154,3.948,3.948,0,0,0-7.867,0A.142.142,0,0,0,48.879,51.759Zm0,0" transform="translate(-47.824 -47.089)"/>
    <path id="Path_64949" data-name="Path 64949" d="M56.487,265.95a.143.143,0,0,0-.154.13,3.664,3.664,0,0,1-7.3,0,.142.142,0,0,0-.284.025,3.948,3.948,0,0,0,7.867,0A.142.142,0,0,0,56.487,265.95Zm0,0" transform="translate(-47.824 -260.901)"/>
    <path id="Path_64950" data-name="Path 64950" d="M224.258,202.546V205.4c0,.242.272.44.606.44s.613-.2.613-.44v-2.855c0-.25-.258-.432-.613-.432S224.258,202.291,224.258,202.546Zm.935,0V205.4c0,.037-.12.155-.329.155s-.321-.11-.321-.155v-2.855c0-.083.141-.148.321-.148C225.061,202.4,225.193,202.474,225.193,202.546Zm0,0" transform="translate(-220.001 -198.277)"/>
    <path id="Path_64951" data-name="Path 64951" d="M222.243,113.539a.631.631,0,0,0-.657.6.656.656,0,0,0,1.307,0A.627.627,0,0,0,222.243,113.539Zm0,.913a.319.319,0,1,1,0-.628.347.347,0,0,1,.365.314A.351.351,0,0,1,222.243,114.452Zm0,0" transform="translate(-217.38 -111.384)"/>
  </g>
</svg>
