<svg id="Cam_12" xmlns="http://www.w3.org/2000/svg" width="18.822" height="14.762" viewBox="0 0 18.822 14.762">
  <g id="Rectangle_42" data-name="Rectangle 42" transform="translate(0 0)" fill="none" stroke="#8d8d8d" stroke-width="1.5">
    <rect width="15.5" height="14.762" rx="6" stroke="none"/>
    <rect x="0.75" y="0.75" width="14" height="13.262" rx="5.25" fill="none"/>
  </g>
  <g id="Subtraction_5" data-name="Subtraction 5" transform="translate(14.424 3.388)" fill="none">
    <path d="M3.766,8.019A.554.554,0,0,1,3.5,7.948L0,6.216V1.786L3.5.071A.554.554,0,0,1,3.766,0,.693.693,0,0,1,4.4.739V7.28A.693.693,0,0,1,3.766,8.019Z" stroke="none"/>
    <path d="M 2.898196697235107 5.977426052093506 L 2.898196697235107 2.035135984420776 L 1.499996662139893 2.720667839050293 L 1.499996662139893 5.284914016723633 L 2.898196697235107 5.977426052093506 M 3.765626668930054 8.018799781799316 C 3.673336744308472 8.018799781799316 3.583256721496582 7.995059967041016 3.497556686401367 7.948179721832275 L -3.320312544019544e-06 6.215879917144775 L -3.320312544019544e-06 1.785519957542419 L 3.497556686401367 0.0706799328327179 C 3.583256721496582 0.02379993163049221 3.673336744308472 5.993164086248726e-05 3.765626668930054 5.993164086248726e-05 C 4.114506721496582 5.993164086248726e-05 4.398196697235107 0.3314199447631836 4.398196697235107 0.7386499047279358 L 4.398196697235107 7.279540061950684 C 4.398196697235107 7.687129974365234 4.114506721496582 8.018739700317383 3.765626668930054 8.018799781799316 Z" stroke="none" fill="#8d8d8d"/>
  </g>
</svg>
