<svg xmlns="http://www.w3.org/2000/svg" width="35" height="35" viewBox="0 0 35 35">
  <g id="Group_57489" data-name="Group 57489" transform="translate(-324 -763)">
    <rect id="Rectangle_Copy" data-name="Rectangle Copy" width="35" height="35" rx="17.5" transform="translate(324 763)" fill="#c2a3dd"/>
    <path id="Icon_awesome-check" data-name="Icon awesome-check" d="M5.972,17.432.258,11.717a.879.879,0,0,1,0-1.243L1.5,9.231a.879.879,0,0,1,1.243,0l3.85,3.85L14.84,4.835a.879.879,0,0,1,1.243,0l1.243,1.243a.879.879,0,0,1,0,1.243L7.216,17.432A.879.879,0,0,1,5.972,17.432Z" transform="translate(333 769.423)" fill="#fff"/>
  </g>
</svg>
