<svg xmlns="http://www.w3.org/2000/svg" width="12.308" height="14.003" viewBox="0 0 12.308 14.003">
  <g id="location" transform="translate(-31)">
    <g id="Group_57242" data-name="Group 57242" transform="translate(31)">
      <g id="Group_57241" data-name="Group 57241">
        <path id="Path_64958" data-name="Path 64958" d="M39.492,9.252c1.49-2.338,1.3-2.047,1.346-2.108a4.479,4.479,0,0,0,.829-2.6,4.513,4.513,0,1,0-8.173,2.638l1.322,2.074C33.4,9.469,31,10.117,31,11.542c0,.52.339,1.26,1.955,1.837a12.949,12.949,0,0,0,4.2.625c2.955,0,6.154-.833,6.154-2.462C43.308,10.116,40.908,9.47,39.492,9.252ZM34.179,6.727l-.014-.021a3.692,3.692,0,1,1,6.007-.041c-.04.052.167-.268-3.018,4.729Zm2.974,6.456c-3.227,0-5.333-.949-5.333-1.641,0-.465,1.082-1.231,3.48-1.529l1.507,2.365a.41.41,0,0,0,.692,0l1.507-2.365c2.4.3,3.48,1.064,3.48,1.529C42.487,12.228,40.4,13.183,37.154,13.183Z" transform="translate(-31)" fill="#d3abf6"/>
      </g>
    </g>
    <g id="Group_57244" data-name="Group 57244" transform="translate(35.103 2.489)">
      <g id="Group_57243" data-name="Group 57243">
        <path id="Path_64959" data-name="Path 64959" d="M183.051,91a2.051,2.051,0,1,0,2.051,2.051A2.054,2.054,0,0,0,183.051,91Zm0,3.282a1.231,1.231,0,1,1,1.231-1.231A1.232,1.232,0,0,1,183.051,94.282Z" transform="translate(-181 -91)" fill="#d3abf6"/>
      </g>
    </g>
  </g>
</svg>
