<svg xmlns="http://www.w3.org/2000/svg" width="28.159" height="26.689" viewBox="0 0 28.159 26.689">
  <g id="love-hand-drawn-heart-symbol-outline" transform="translate(-1.001 -10.933)">
    <g id="Group_57271" data-name="Group 57271" transform="translate(1.001 10.933)">
      <path id="Path_64972" data-name="Path 64972" d="M21.813,13.274c-.237,0-.477.011-.713.032a8.55,8.55,0,0,0-6.282,4.178,10.047,10.047,0,0,0-7.973-4.551,7.479,7.479,0,0,0-1.933.253A6.55,6.55,0,0,0,.584,17.138,7.762,7.762,0,0,0,.99,23.892c1.585,2.687,4.3,4.328,6.93,5.914a35.716,35.716,0,0,1,3.943,2.622A11.957,11.957,0,0,1,13.052,33.5,16.229,16.229,0,0,0,11.6,35.583a4.388,4.388,0,0,0-.355,2.976,1.555,1.555,0,0,0,.822.921,1.476,1.476,0,0,0,.628.142A3.462,3.462,0,0,0,15.039,38a3.766,3.766,0,0,0,.454-4.214c1.235-1.117,2.578-2.155,3.878-3.16a38.057,38.057,0,0,0,6.388-5.763c.9-1.1,3.678-4.959,1.714-8.556A6.238,6.238,0,0,0,21.813,13.274ZM13.775,36.5a2.551,2.551,0,0,1-.572.779,4.147,4.147,0,0,1,.371-1.332c.036-.08.275-.449.447-.7A2.065,2.065,0,0,1,13.775,36.5ZM11.541,16.629a8.928,8.928,0,0,1,1.513,1.591c.051.069.129.2.22.351.525.875,1.09,1.73,1.7,1.73.3,0,.56-.213.763-.634,1.3-2.684,3.364-4.284,5.824-4.506.143-.013.288-.019.431-.019a4.3,4.3,0,0,1,4.117,2.74c.766,2.16-.446,4.721-3.707,7.827A56.269,56.269,0,0,1,17.949,29.4c-1.178.91-2.4,1.851-3.535,2.853a18.292,18.292,0,0,0-3.437-2.8c-.633-.42-1.317-.832-2.042-1.267-3.561-2.14-7.6-4.566-6.96-9.082a4.736,4.736,0,0,1,4.9-4.251c.192,0,.388.009.584.028A7.668,7.668,0,0,1,11.541,16.629Z" transform="translate(-0.001 -12.933)" fill="#363d4e"/>
    </g>
  </g>
</svg>
