<svg xmlns="http://www.w3.org/2000/svg" width="32" height="32" viewBox="0 0 32 32">
  <g id="Group_57474" data-name="Group 57474" transform="translate(-172 -164)">
    <circle id="Ellipse_150" data-name="Ellipse 150" cx="16" cy="16" r="16" transform="translate(172 164)" fill="#6b18c3"/>
    <path id="Path_668" data-name="Path 668" d="M185.409,70.1a3.281,3.281,0,0,0,.116,4.371,3.251,3.251,0,0,0,5.311-.922l4.189-8.122a.268.268,0,0,0-.359-.359l-8.122,4.189A3.3,3.3,0,0,0,185.409,70.1Zm1.481,1.144a1.384,1.384,0,0,1,.98-.408,1.39,1.39,0,0,1,.984,2.372,1.389,1.389,0,0,1-1.964-1.964Zm9.678,2.008a8.664,8.664,0,0,0-1.17-4.358,1.073,1.073,0,1,1,1.857-1.077,10.846,10.846,0,0,1,1.459,5.435,1.073,1.073,0,0,1-2.146,0Zm-19.515,0a10.843,10.843,0,0,1,10.83-10.831,10.7,10.7,0,0,1,4.017.771,1.072,1.072,0,0,1-.794,1.991A8.693,8.693,0,0,0,179.2,73.252a1.073,1.073,0,1,1-2.145,0Z" transform="translate(0 110)" fill="#fff"/>
  </g>
</svg>
