<svg xmlns="http://www.w3.org/2000/svg" xmlns:xlink="http://www.w3.org/1999/xlink" width="123.628" height="91.191" viewBox="0 0 123.628 91.191">
  <defs>
    <linearGradient id="linear-gradient" x1="0.5" y1="1" x2="0.5" gradientUnits="objectBoundingBox">
      <stop offset="0" stop-color="gray" stop-opacity="0.251"/>
      <stop offset="0.54" stop-color="gray" stop-opacity="0.122"/>
      <stop offset="1" stop-color="gray" stop-opacity="0.102"/>
    </linearGradient>
  </defs>
  <g id="Group_57589" data-name="Group 57589" transform="translate(0.009 -0.004)">
    <path id="Path_65210" data-name="Path 65210" d="M61.83,433.31c1.952,7.544,6.081,14.066,12.606,17.228,13.565,6.57,44.158,3.182,66.99-.708a53.8,53.8,0,0,0,29.733-15.377Z" transform="translate(-60.507 -389.586)" fill="#6c63ff" opacity="0.1"/>
    <path id="Path_65211" data-name="Path 65211" d="M206.477,52.5H193.949a.984.984,0,1,1,0-1.959h2.167a.984.984,0,1,1,0-1.959H194.57a.984.984,0,1,1,0-1.959h6.539a18.738,18.738,0,0,0-5.1-1.272c-17.83-2.071-24.2-.7-26.441.707a26.357,26.357,0,0,1-9.164,3.635c-11,2.053-31.573,4.524-50.219-.787-9.267-2.644-16.156,1.818-20.283,9.279H208.653a16.12,16.12,0,0,0-1.471-5.923A1.143,1.143,0,0,1,206.477,52.5Z" transform="translate(-85.423 -44.29)" fill="#6c63ff" opacity="0.1"/>
    <path id="Path_65212" data-name="Path 65212" d="M50.251,293.19a45.239,45.239,0,0,0,.486,13.163l109.99,3.64a46.665,46.665,0,0,0,7.642-10.544Zm43.5,9.39H91.587a.984.984,0,1,1,0,1.959H79.06a.984.984,0,1,1,0-1.959h2.167a.984.984,0,1,1,0-1.959H79.679a.984.984,0,1,1,0-1.959H92.207a.984.984,0,1,1,0,1.959h1.546a.984.984,0,1,1,0,1.959Z" transform="translate(-49.99 -265.213)" fill="#6c63ff" opacity="0.1"/>
    <path id="Path_65213" data-name="Path 65213" d="M175.478,168.5,55.4,171.141a39.841,39.841,0,0,0-2.876,11.22H173.374a42.63,42.63,0,0,0,1.744-7.151A30.615,30.615,0,0,0,175.478,168.5ZM76.9,177.159H74.735a.985.985,0,1,1,0,1.96H62.208a.985.985,0,1,1,0-1.96h2.167a.984.984,0,1,1,0-1.959H62.827a.984.984,0,1,1,0-1.959H75.355a.984.984,0,1,1,0,1.959H76.9a.984.984,0,1,1,0,1.959Z" transform="translate(-52.244 -154.537)" fill="#6c63ff" opacity="0.1"/>
    <ellipse id="Ellipse_3190" data-name="Ellipse 3190" cx="50.234" cy="4.621" rx="50.234" ry="4.621" transform="translate(11.017 78.544)" fill="#6c63ff" opacity="0.1"/>
    <path id="Path_65214" data-name="Path 65214" d="M858.055,323.556a.169.169,0,0,1,0-.024V323.5h0a.96.96,0,0,0-.143-.361,2.842,2.842,0,0,0-1.041-.984c-.742-.407-1.761-.581-2.058-1.358a4.151,4.151,0,0,1-.138-.754,2.28,2.28,0,0,0-1.5-1.712c-.353-.118-.734-.151-1.077-.3a3.376,3.376,0,0,1-1.514-1.872l-1.331-2.878a1.119,1.119,0,0,1-1.089-.122,2.258,2.258,0,0,1-.7-.871c-.457-.888-.654-1.894-1.191-2.739a2.293,2.293,0,0,0-2.559-1.145,4.365,4.365,0,0,1-.573.237c-.813.19-1.712-.738-2.407-.288a.787.787,0,0,0-.273.3.139.139,0,0,1,0-.023,1.436,1.436,0,0,0-.148.587h0v.142c0,.162.01.326.012.49a2.181,2.181,0,0,1-.031.411v-.011a1.393,1.393,0,0,1-.058.225c-.181.486-.682.8-.917,1.26v-.022a1.174,1.174,0,0,0-.069.154,1.145,1.145,0,0,0-.064.372c-.02.858.889,1.664.995,2.585a1.374,1.374,0,0,0,.779,1.23l.121.081c-.048,0-.1.007-.153.008a.372.372,0,0,0-.064.007.685.685,0,0,0-.578.1c-.425.337-1.43.078-1.876,0s-1.975.132-2.188.979-.58,2.6-.58,2.6a5.062,5.062,0,0,1-.136,1.316.066.066,0,0,0,0,.045,8.55,8.55,0,0,1-.29,2.665,1.089,1.089,0,0,0-.013.666,2,2,0,0,0-.562,1.2c.1.64,1.394,2.65,3.253,1.573,0,0,1.057-1.934-.273-2.962l.057-.225c.4.495.7.85.7.85s.016.042.041.112h-.041a5.284,5.284,0,0,1,.312,1.47,1.8,1.8,0,0,1-.1.541h.035c-.01.038-.021.076-.035.112a.98.98,0,0,1-.349.473c-.929.659-1.994,5.362-1.994,5.362s-2.108,7.6-2.53,8.036c-.348.355,1.841,1.355,3.484,1.236a2.685,2.685,0,0,0,.674-.128c.01.112.021.225.033.327.035.337.071.65.093.747.058.245.174,2.747.174,2.747a17.653,17.653,0,0,0-.18,2.756c0,.078.01.152.017.225l-.2.031c-.31.7.968,6.511,1.142,7a4.65,4.65,0,0,1,.193,1.186,1.292,1.292,0,0,0-.019.639,1.559,1.559,0,0,1,.112.433,1.191,1.191,0,0,0,.039.62,1.174,1.174,0,0,1-.019.674,10.321,10.321,0,0,1-.387,2.615,1.506,1.506,0,0,0,.242,1.492.9.9,0,0,0,.079.091s1.922.016,2.26,0h.044a3.411,3.411,0,0,0,.174-2.277,2.77,2.77,0,0,1-.038-1.637V358.5s.348-.321,0-1.012-.291-.9-.291-.9.388-1.11-.019-1.468.078-1.713.078-1.713l.137-4.518a1.764,1.764,0,0,0-.219-.056c-.008-.074-.016-.151-.024-.232a6.259,6.259,0,0,1,.029-2.248,32.66,32.66,0,0,0,.291-5.007l1.771.067c.037.9.076,1.72.1,1.824.058.245.175,2.747.175,2.747a17.6,17.6,0,0,0-.181,2.756c0,.078.01.152.017.225l-.2.031c-.31.7.968,6.511,1.142,7a4.684,4.684,0,0,1,.195,1.186,1.3,1.3,0,0,0-.02.639,1.557,1.557,0,0,1,.112.433,1.19,1.19,0,0,0,.039.62,1.174,1.174,0,0,1-.019.674,10.319,10.319,0,0,1-.387,2.615,1.506,1.506,0,0,0,.25,1.49.915.915,0,0,0,.079.091s1.922.016,2.26,0h.044a3.411,3.411,0,0,0,.174-2.277,2.77,2.77,0,0,1-.038-1.637V358.5s.348-.321,0-1.012-.291-.9-.291-.9.388-1.11-.019-1.468.078-1.713.078-1.713l.139-4.518a1.717,1.717,0,0,0-.225-.056c-.008-.074-.016-.151-.024-.232a6.258,6.258,0,0,1,.029-2.248,19.037,19.037,0,0,0,.262-3.565c0-.112,0-.225.009-.337a17.439,17.439,0,0,0,2.425-.272s-.947-3.35-.657-3.9a9.849,9.849,0,0,0-.3-2.833,1.969,1.969,0,0,0,1.212.438c.424.815,1.713,2.689,2.439,2.978.852.337.212-2.652-.193-3.085a3.643,3.643,0,0,1-.481-.772c.011-.013.024-.025.035-.037a15.619,15.619,0,0,0-.174-3.123c-.194.057-.426-.471-.426-.471l-.6-5.268L850.1,323.9h0c.21.155.46.254.674.408a3.779,3.779,0,0,1,1.032,1.845,3.031,3.031,0,0,0,.995,1.434,1.5,1.5,0,0,0,1.686.087,2.189,2.189,0,0,0,.681-1.455,1.334,1.334,0,0,0,1.7-1.317c-.026-.207-.1-.433.006-.614.216-.357.9-.149,1.124-.5a.375.375,0,0,0,.056-.2A.135.135,0,0,0,858.055,323.556Zm-10.914,2.9c-.012.2.264,1.817.489,3.1a3.925,3.925,0,0,0-1.282-2.231,1,1,0,0,0-.009-.112h.009s-.03-.321-.035-.779a8.59,8.59,0,0,1,.09-1.212v-.01h-.015a.634.634,0,0,1,.015-.1,3.652,3.652,0,0,1,.273-.982,2.723,2.723,0,0,1,.208-.353C847,324.855,847.152,326.25,847.141,326.453Zm.6,3.745c.1.552.17.94.17.94l.6,4.1v.019c-.321-1.73-.732-3.553-.732-3.553A7.083,7.083,0,0,0,847.745,330.2Z" transform="translate(-745.604 -278.562)" fill="url(#linear-gradient)"/>
    <path id="Path_65215" data-name="Path 65215" d="M886.223,317.018c-.112-1.038-1.236-1.934-.9-2.922.183-.538.756-.868.95-1.4a3.274,3.274,0,0,0,.072-1.116,1.172,1.172,0,0,1,.4-1c.674-.45,1.542.475,2.329.287a4.123,4.123,0,0,0,.554-.236,2.191,2.191,0,0,1,2.473,1.141c.516.841.709,1.843,1.152,2.727a2.237,2.237,0,0,0,.681.866,1.059,1.059,0,0,0,1.054.122l1.287,2.866a3.384,3.384,0,0,0,1.461,1.863c.33.145.7.178,1.041.3a2.248,2.248,0,0,1,1.461,1.7,4.194,4.194,0,0,0,.134.752c.287.773,1.272.946,1.99,1.349a2.784,2.784,0,0,1,1.012.979.648.648,0,0,1,.089.641c-.217.351-.877.144-1.086.5a.933.933,0,0,0,0,.611,1.3,1.3,0,0,1-1.645,1.31,2.207,2.207,0,0,1-.659,1.449,1.416,1.416,0,0,1-1.628-.085,3.012,3.012,0,0,1-.961-1.427,3.8,3.8,0,0,0-1-1.838c-.2-.153-.45-.252-.65-.406a2.741,2.741,0,0,1-.835-1.461,15.28,15.28,0,0,0-.674-2.038A3.067,3.067,0,0,0,892.9,321c-.612-.275-1.318-.257-1.951-.481-1.089-.384-1.895-1.3-2.978-1.732a4.822,4.822,0,0,1-.978-.553A1.343,1.343,0,0,1,886.223,317.018Z" transform="translate(-791.396 -280.534)" fill="#3f3d56"/>
    <g id="Group_57588" data-name="Group 57588" transform="translate(93.873 30.314)" opacity="0.1">
      <path id="Path_65216" data-name="Path 65216" d="M894.72,315.615a1.14,1.14,0,0,0,.061-.136,3.305,3.305,0,0,0,.072-1.116,2,2,0,0,1,.035-.373,1.573,1.573,0,0,0-.147.71A5.17,5.17,0,0,1,894.72,315.615Z" transform="translate(-893.665 -313.99)"/>
      <path id="Path_65217" data-name="Path 65217" d="M900.241,356.865a1.416,1.416,0,0,1-1.629-.087,2.963,2.963,0,0,1-.956-1.428,3.785,3.785,0,0,0-1-1.838c-.2-.153-.45-.253-.649-.406a2.755,2.755,0,0,1-.836-1.455,15.133,15.133,0,0,0-.674-2.038,3.067,3.067,0,0,0-1.431-1.545c-.611-.275-1.317-.257-1.95-.481-1.09-.384-1.9-1.3-2.978-1.732a4.881,4.881,0,0,1-.979-.553,1.389,1.389,0,0,1-.753-1.224c-.112-.973-1.1-1.822-.947-2.739a1.422,1.422,0,0,0-.066.153c-.337.989.787,1.885.9,2.922a1.387,1.387,0,0,0,.753,1.224,4.884,4.884,0,0,0,.979.553c1.082.432,1.888,1.349,2.978,1.732.633.225,1.339.206,1.95.481a3.09,3.09,0,0,1,1.431,1.545,13.782,13.782,0,0,1,.674,2.038,2.747,2.747,0,0,0,.836,1.455c.2.153.449.253.648.406a3.822,3.822,0,0,1,1,1.837,3.011,3.011,0,0,0,.962,1.426,1.418,1.418,0,0,0,1.629.086,1.659,1.659,0,0,0,.549-.935A1.378,1.378,0,0,1,900.241,356.865Z" transform="translate(-885.331 -338.266)"/>
      <path id="Path_65218" data-name="Path 65218" d="M1038.111,446.117a.472.472,0,0,0-.054.263c.254-.251.827-.1,1.027-.426a.411.411,0,0,0,.052-.264C1038.875,445.937,1038.3,445.79,1038.111,446.117Z" transform="translate(-1020.891 -430.889)"/>
      <path id="Path_65219" data-name="Path 65219" d="M1023.31,461.184c-.021.112-.043.233-.07.35a1.319,1.319,0,0,0,1.595-1.034A1.307,1.307,0,0,1,1023.31,461.184Z" transform="translate(-1007.741 -444.034)"/>
    </g>
    <path id="Path_65220" data-name="Path 65220" d="M898.156,368.607s.374.755-.73.771.711,4.9.711,4.9l1.836,2.338,2.285-1.236.131-3.41.169-2.06s-2.135-.693-1.742-1.61S898.156,368.607,898.156,368.607Z" transform="translate(-801.877 -331.582)" fill="#fbbebe"/>
    <path id="Path_65221" data-name="Path 65221" d="M965.75,537.506s1.349,1.327,2.922-.434l-1.208-1.282h-1.529Z" transform="translate(-862.839 -480.548)" fill="#575a89"/>
    <path id="Path_65222" data-name="Path 65222" d="M965.585,535.79l-.185,1.716s1.349,1.327,2.922-.434" transform="translate(-862.529 -480.548)" opacity="0.1"/>
    <path id="Path_65223" data-name="Path 65223" d="M975.408,537.87a8.81,8.81,0,0,0,.936,1.854c.393.43,1.011,3.409.188,3.072s-2.4-2.847-2.492-3.277a14.552,14.552,0,0,1-.13-1.649Z" transform="translate(-870.082 -482.395)" fill="#fbbebe"/>
    <path id="Path_65224" data-name="Path 65224" d="M832.42,535.946l7.267.281-.843-3.073-3.66-.074Z" transform="translate(-738.875 -473.165)" fill="#575a89"/>
    <path id="Path_65225" data-name="Path 65225" d="M841.41,535.946l7.268.281-.843-3.073-3.662-.074Z" transform="translate(-746.855 -473.165)" opacity="0.1"/>
    <path id="Path_65226" data-name="Path 65226" d="M876.649,593.891a6.46,6.46,0,0,0-.028,2.248c.049.521.1.923.1.923s-2.716.843-3.128.112a2.223,2.223,0,0,1-.174-.891,17.994,17.994,0,0,1,.174-2.743s-.112-2.49-.169-2.734c-.022-.1-.057-.408-.091-.744-.049-.5-.1-1.054-.1-1.054l3.709-1.967s0,.369-.007.936A43.315,43.315,0,0,1,876.649,593.891Z" transform="translate(-780.726 -526.039)" fill="#fbbebe"/>
    <path id="Path_65227" data-name="Path 65227" d="M878.162,668.413s-2.716.843-3.128.112a2.221,2.221,0,0,1-.174-.891,12.211,12.211,0,0,1,3.2-.144C878.108,668.012,878.162,668.413,878.162,668.413Z" transform="translate(-782.164 -597.39)" opacity="0.1"/>
    <path id="Path_65228" data-name="Path 65228" d="M876.448,684.348h-.043c-.327.012-2.186,0-2.186,0a1,1,0,0,1-.076-.09,1.533,1.533,0,0,1-.242-1.483,10.557,10.557,0,0,0,.374-2.6,1.206,1.206,0,0,0,.019-.674,1.216,1.216,0,0,1-.038-.618,1.607,1.607,0,0,0-.112-.43,1.283,1.283,0,0,1,.019-.637,4.761,4.761,0,0,0-.188-1.18c-.169-.487-1.4-6.275-1.1-6.968a11.438,11.438,0,0,1,3.615-.112l-.131,4.5s-.469,1.349-.075,1.7.019,1.461.019,1.461-.056.206.281.9,0,1.012,0,1.012v1.33a2.842,2.842,0,0,0,.037,1.63A3.5,3.5,0,0,1,876.448,684.348Z" transform="translate(-780.357 -599.164)" fill="#3f3d56"/>
    <path id="Path_65229" data-name="Path 65229" d="M923.939,589.364a6.456,6.456,0,0,0-.028,2.248c.049.521.1.923.1.923s-2.716.843-3.128.112a2.22,2.22,0,0,1-.174-.891,17.962,17.962,0,0,1,.174-2.743s-.112-2.49-.169-2.734c-.03-.132-.083-1.386-.125-2.511-.035-.96-.063-1.827-.063-1.827l3.709.573s0,1.631-.046,3.306A19.8,19.8,0,0,1,923.939,589.364Z" transform="translate(-822.701 -521.512)" fill="#fbbebe"/>
    <path id="Path_65230" data-name="Path 65230" d="M925.452,668.413s-2.716.843-3.128.112a2.224,2.224,0,0,1-.174-.891,12.211,12.211,0,0,1,3.2-.144C925.4,668.012,925.452,668.413,925.452,668.413Z" transform="translate(-824.139 -597.39)" opacity="0.1"/>
    <path id="Path_65231" data-name="Path 65231" d="M923.712,684.312h-.043c-.327.012-2.186,0-2.186,0a1,1,0,0,1-.076-.09,1.533,1.533,0,0,1-.242-1.483,10.541,10.541,0,0,0,.371-2.608,1.207,1.207,0,0,0,.019-.674,1.216,1.216,0,0,1-.038-.618,1.6,1.6,0,0,0-.112-.431,1.284,1.284,0,0,1,.019-.637,4.766,4.766,0,0,0-.188-1.18c-.169-.487-1.4-6.275-1.1-6.968a11.438,11.438,0,0,1,3.615-.112l-.131,4.5s-.469,1.349-.075,1.7.019,1.461.019,1.461-.056.206.281.9,0,1.012,0,1.012v1.33a2.843,2.843,0,0,0,.037,1.63A3.52,3.52,0,0,1,923.712,684.312Z" transform="translate(-822.305 -599.129)" fill="#3f3d56"/>
    <circle id="Ellipse_3191" data-name="Ellipse 3191" cx="2.641" cy="2.641" r="2.641" transform="translate(95.099 32.626)" opacity="0.1"/>
    <circle id="Ellipse_3192" data-name="Ellipse 3192" cx="2.641" cy="2.641" r="2.641" transform="translate(95.099 32.514)" fill="#fbbebe"/>
    <path id="Path_65232" data-name="Path 65232" d="M873.24,589.007l3.709-1.967s0,.369-.007.936c-.542.324-1.359.81-2.144,1.27-.427.251-.844.493-1.2.7a1.6,1.6,0,0,1-.26.112C873.287,589.562,873.24,589.007,873.24,589.007Z" transform="translate(-780.726 -526.039)" opacity="0.1"/>
    <path id="Path_65233" data-name="Path 65233" d="M924.274,582.473s0,1.631-.046,3.306h-.013a6.247,6.247,0,0,1-.831-.026c-.484-.052-.872-.18-1.012-.434a6.64,6.64,0,0,0-1.74-1.593c-.035-.96-.063-1.827-.063-1.827Z" transform="translate(-822.737 -521.476)" opacity="0.1"/>
    <path id="Path_65234" data-name="Path 65234" d="M850.065,388a10.7,10.7,0,0,0-.054,2.206c1.7,1.4,1.386,4.364,1.386,4.364s1.312,5.995,1.031,6.538.636,3.877.636,3.877a16.346,16.346,0,0,1-2.368.272,6.23,6.23,0,0,1-.83-.026c-.484-.052-.872-.18-1.011-.434a11.072,11.072,0,0,0-2.791-2.285s-1.436.861-2.774,1.644c-.427.251-.844.493-1.2.7a2.229,2.229,0,0,1-.938.257c-1.59.118-3.709-.878-3.372-1.231.412-.432,2.454-8,2.454-8s1.029-4.683,1.929-5.338a.972.972,0,0,0,.337-.471,4.075,4.075,0,0,0-.207-2.226s-2.9-3.577-2.773-3.784a5.242,5.242,0,0,0,.131-1.31s.356-1.742.562-2.585,1.686-1.05,2.116-.974,1.4.337,1.815,0,1.106.131,1.106.131l1.706.47,1.534-.9s1.537.079,1.669.284a10.235,10.235,0,0,0,2.154.6c1.029.692.992,3.99.992,3.99a16.838,16.838,0,0,0-2.978,3.259A3.714,3.714,0,0,0,850.065,388Z" transform="translate(-749.217 -341.282)" fill="#575a89"/>
    <path id="Path_65235" data-name="Path 65235" d="M952.591,418.2l.562.45.581,5.226.58,5.245s.225.525.412.469a16.992,16.992,0,0,1,.169,3.109s-2.151-1.323-2.922.434l-.6-4.236s-.769-4.327-.75-4.664-.393-3.99-.393-3.99Z" transform="translate(-849.063 -376.174)" fill="#575a89"/>
    <path id="Path_65236" data-name="Path 65236" d="M851.343,420.37l-.413.506a9.15,9.15,0,0,1-.281,2.7c-.319.525.881,3.6,1.331,3.409s1.461-4.982,1.461-5.038S851.343,420.37,851.343,420.37Z" transform="translate(-760.627 -378.1)" fill="#575a89"/>
    <path id="Path_65237" data-name="Path 65237" d="M847.251,447.87s-1.312,1.33-1.218,1.967,1.349,2.639,3.147,1.563C849.179,451.4,850.847,448.263,847.251,447.87Z" transform="translate(-756.572 -402.509)" fill="#575a89"/>
    <path id="Path_65238" data-name="Path 65238" d="M886.822,799.916c-.327.012-2.186,0-2.186,0a.994.994,0,0,1-.076-.09A2.747,2.747,0,0,1,886.822,799.916Z" transform="translate(-790.774 -714.729)" opacity="0.1"/>
    <path id="Path_65239" data-name="Path 65239" d="M934.132,799.916c-.327.012-2.186,0-2.186,0a1.015,1.015,0,0,1-.076-.09A2.747,2.747,0,0,1,934.132,799.916Z" transform="translate(-832.767 -714.729)" opacity="0.1"/>
    <path id="Path_65240" data-name="Path 65240" d="M870.284,509.11c-.287,2.749-.192,8.2-.133,10.627-.427.251-.844.493-1.2.7a2.23,2.23,0,0,1-.938.257C867.893,519.959,869.542,512.432,870.284,509.11Z" transform="translate(-776.08 -456.867)" opacity="0.1"/>
    <path id="Path_65241" data-name="Path 65241" d="M888.631,495.23c-.008.039-.144.637-.351,1.56A3.982,3.982,0,0,1,888.631,495.23Z" transform="translate(-794.076 -444.547)" opacity="0.1"/>
    <path id="Path_65242" data-name="Path 65242" d="M907.333,492.59s1.593,10-3.123,11.239C904.209,503.824,907.473,503.328,907.333,492.59Z" transform="translate(-808.215 -442.204)" opacity="0.1"/>
    <path id="Path_65243" data-name="Path 65243" d="M936.393,505.242a6.225,6.225,0,0,1-.831-.026L934.29,491.54C935.1,492.071,936.073,501.776,936.393,505.242Z" transform="translate(-834.915 -441.272)" opacity="0.1"/>
    <path id="Path_65244" data-name="Path 65244" d="M897.562,330.135a.7.7,0,0,1,.251.026,1.094,1.094,0,0,1,.317.238,1.129,1.129,0,0,0,1.072.208,1.415,1.415,0,0,1,.4-.112.643.643,0,0,1,.511.337c.111.18.169.393.264.586a.736.736,0,0,0,.459.421.8.8,0,0,1,.292.067.413.413,0,0,1,.126.174c.175.379.315.826.689,1.012a1.03,1.03,0,0,0,.439.1.919.919,0,0,0,.45-.081.861.861,0,0,0,.33-.329,2.054,2.054,0,0,0,.206-1.314,3.615,3.615,0,0,0-.588-1.58,3.3,3.3,0,0,0-3.018-1.392,4.212,4.212,0,0,0-.6.112,3.285,3.285,0,0,0-1.85,1.147,3.9,3.9,0,0,1-.345.425C897.167,330.156,897.365,330.139,897.562,330.135Z" transform="translate(-801.789 -296.533)" opacity="0.1"/>
    <path id="Path_65245" data-name="Path 65245" d="M897.562,329.135a.7.7,0,0,1,.251.026,1.093,1.093,0,0,1,.317.238,1.129,1.129,0,0,0,1.072.208,1.415,1.415,0,0,1,.4-.112.643.643,0,0,1,.511.337c.111.18.169.393.264.586a.736.736,0,0,0,.459.421.8.8,0,0,1,.292.067.412.412,0,0,1,.126.174c.175.379.315.826.689,1.011a1.031,1.031,0,0,0,.439.1.918.918,0,0,0,.45-.081.861.861,0,0,0,.33-.329,2.054,2.054,0,0,0,.206-1.314,3.615,3.615,0,0,0-.588-1.58,3.3,3.3,0,0,0-3.018-1.392,4.2,4.2,0,0,0-.6.112,3.285,3.285,0,0,0-1.85,1.147,3.893,3.893,0,0,1-.345.425C897.167,329.156,897.365,329.139,897.562,329.135Z" transform="translate(-801.789 -295.646)" fill="#3f3d56"/>
    <path id="Path_65246" data-name="Path 65246" d="M873.113,398.2s.131,1.05-.318,1.312S873.113,398.2,873.113,398.2Z" transform="translate(-780.206 -358.422)" opacity="0.1"/>
    <path id="Path_65247" data-name="Path 65247" d="M961.57,461.026s1.068-1.573,1.218-1.124S961.57,461.026,961.57,461.026Z" transform="translate(-859.129 -413.117)" opacity="0.1"/>
    <path id="Path_65248" data-name="Path 65248" d="M962.24,468.06s1.053-1.293,1.154-.787S962.24,468.06,962.24,468.06Z" transform="translate(-859.724 -419.628)" opacity="0.1"/>
    <path id="Path_65249" data-name="Path 65249" d="M884.588,458a1.71,1.71,0,0,1-1.059-.348h-.092a1.664,1.664,0,0,1-1.156.435,1.641,1.641,0,0,1-1.2-.481h-.123a1.766,1.766,0,0,1-2.279-.042l-.439-.008a4.075,4.075,0,0,1,.207,2.226l7.511.134a10.69,10.69,0,0,1,.054-2.206v-.01l-.412-.008a1.728,1.728,0,0,1-1.012.308Z" transform="translate(-785.164 -411.11)" opacity="0.1"/>
    <path id="Path_65250" data-name="Path 65250" d="M884.588,460a1.709,1.709,0,0,1-1.059-.348h-.092a1.664,1.664,0,0,1-1.156.435,1.641,1.641,0,0,1-1.2-.481h-.123a1.765,1.765,0,0,1-2.279-.042l-.439-.008a4.075,4.075,0,0,1,.207,2.226l7.511.134a10.69,10.69,0,0,1,.054-2.206v-.01l-.412-.008A1.729,1.729,0,0,1,884.588,460Z" transform="translate(-785.164 -412.886)" opacity="0.1"/>
    <path id="Path_65251" data-name="Path 65251" d="M884.588,459a1.709,1.709,0,0,1-1.059-.348h-.092a1.663,1.663,0,0,1-1.156.435,1.641,1.641,0,0,1-1.2-.481h-.123a1.766,1.766,0,0,1-2.279-.042l-.439-.008a4.075,4.075,0,0,1,.207,2.226l7.511.134a10.69,10.69,0,0,1,.054-2.206v-.01l-.412-.008a1.729,1.729,0,0,1-1.012.308Z" transform="translate(-785.164 -411.998)" fill="#3f3d56"/>
    <path id="Path_65252" data-name="Path 65252" d="M931.75,395.83s1.581.1,1.591.326S931.75,395.83,931.75,395.83Z" transform="translate(-832.66 -356.318)" opacity="0.1"/>
    <path id="Path_65253" data-name="Path 65253" d="M885,387.3s-1.581.1-1.591.326S885,387.3,885,387.3Z" transform="translate(-789.753 -348.747)" opacity="0.1"/>
    <path id="Path_65254" data-name="Path 65254" d="M936.206,427.95c-.016-.011-.031-.02-.047-.03a1.411,1.411,0,0,1-.159,1.816c-.5.656-1.251.929-1.709.635.015.012.027.026.043.038.45.344,1.236.074,1.755-.6S936.658,428.3,936.206,427.95Z" transform="translate(-834.915 -384.802)" opacity="0.1"/>
    <path id="Path_65255" data-name="Path 65255" d="M871.145,428.951a1.408,1.408,0,0,1,.1-1.821c-.017.008-.035.015-.052.024-.5.276-.562,1.1-.151,1.851s1.153,1.124,1.65.852a.428.428,0,0,0,.047-.031C872.249,430.05,871.545,429.672,871.145,428.951Z" transform="translate(-778.54 -384.1)" opacity="0.1"/>
    <path id="Path_65256" data-name="Path 65256" d="M874.745,387.051h0l-.145.225-.37-.2.194-.3A.815.815,0,0,1,874.745,387.051Z" transform="translate(-781.605 -348.285)" opacity="0.1"/>
    <path id="Path_65257" data-name="Path 65257" d="M855.019,423.25s.329-1.549-.112-2.041-.3-3.073.374-3.016,1.686,2.1,1.517,2.529-.806,2.641-.806,2.641Z" transform="translate(-764.228 -376.167)" fill="#fbbebe"/>
    <path id="Path_65258" data-name="Path 65258" d="M903.181,342.877a.86.86,0,0,1-.33.329.918.918,0,0,1-.449.081,1.03,1.03,0,0,1-.439-.1c-.374-.187-.514-.634-.689-1.011a.413.413,0,0,0-.115-.178.8.8,0,0,0-.289-.071.742.742,0,0,1-.459-.421c-.1-.191-.154-.4-.264-.586a.619.619,0,0,0-.511-.337,1.38,1.38,0,0,0-.4.118,1.133,1.133,0,0,1-1.072-.209,1.1,1.1,0,0,0-.317-.238.7.7,0,0,0-.251-.026c-.129,0-.257.012-.387.022a2.838,2.838,0,0,1-.206.241c.2-.017.394-.034.592-.038a.7.7,0,0,1,.251.026,1.1,1.1,0,0,1,.317.238,1.133,1.133,0,0,0,1.072.209,1.381,1.381,0,0,1,.4-.118.643.643,0,0,1,.511.337c.111.18.169.393.264.586a.736.736,0,0,0,.459.421.8.8,0,0,1,.289.071.414.414,0,0,1,.126.174c.175.379.315.826.689,1.011a1.03,1.03,0,0,0,.439.1.918.918,0,0,0,.45-.081.861.861,0,0,0,.33-.329,1.865,1.865,0,0,0,.225-1.041A1.716,1.716,0,0,1,903.181,342.877Z" transform="translate(-801.816 -306.967)" opacity="0.1"/>
    <ellipse id="Ellipse_3193" data-name="Ellipse 3193" cx="1.011" cy="0.686" rx="1.011" ry="0.686" transform="translate(90.278 46.941)" fill="#575a89"/>
    <circle id="Ellipse_3194" data-name="Ellipse 3194" cx="34.671" cy="34.671" r="34.671" transform="translate(23.648 16.445)" fill="#6b00c3"/>
    <path id="Path_65259" data-name="Path 65259" d="M443.494,536.448c0,5.473-8.6.467-17.829.467s-18.555,4.8-18.555-.674c0-3.121,2.974-7.461,7.24-10.614h0a19.27,19.27,0,0,1,11.126-4.077,18.643,18.643,0,0,1,11.258,4.371C440.755,529.109,443.494,533.393,443.494,536.448Z" transform="translate(-366.983 -467.909)" fill="#444053"/>
    <path id="Path_65260" data-name="Path 65260" d="M493.913,525.9a77.567,77.567,0,0,0-22.383-.293,19.27,19.27,0,0,1,11.126-4.077A18.642,18.642,0,0,1,493.913,525.9Z" transform="translate(-424.163 -467.891)" fill="#f6f8fb"/>
    <path id="Path_65261" data-name="Path 65261" d="M325.295,281.31s-10.444,6.677-10.359,17.121S325.295,281.31,325.295,281.31Z" transform="translate(-285.167 -254.668)" opacity="0.05"/>
    <path id="Path_65262" data-name="Path 65262" d="M810.714,113.423s-9.463-.57-8.347,6.061a1.612,1.612,0,0,0,.841,1.7s.017-.491.97-.325a4.383,4.383,0,0,0,1.028.049,2.135,2.135,0,0,0,1.256-.519h0s2.66-1.1,3.7-5.446c0,0,.765-.949.735-1.191l-1.6.681a2.854,2.854,0,0,1,.112,2.109s-.052-2.067-.358-2.023c-.062.01-.829.4-.829.4s.938,2.007.225,3.465c0,0,.269-2.472-.524-3.32l-1.124.656a4.962,4.962,0,0,1,.353,3.764s.191-2.594-.589-3.6l-1.019.795s1.031,2.043.4,3.446c0,0-.082-3.02-.623-3.248a6.233,6.233,0,0,0-1.027,1.109s.706,1.482.269,2.265c0,0-.269-2.012-.489-2.023a6.7,6.7,0,0,0-.981,2.248,4.859,4.859,0,0,1,.765-2.375,2.666,2.666,0,0,0-1.359.7s.138-.943,1.573-1.025a6.144,6.144,0,0,1,.931-1.072,5.831,5.831,0,0,0-2.3.265,2.585,2.585,0,0,1,2.563-.486l1.012-.82a8.292,8.292,0,0,0-2.686.027s.92-.787,2.957-.214l1.1-.655a10.047,10.047,0,0,0-2.567-.225,3.935,3.935,0,0,1,2.887.046l.787-.352s-1.179-.232-1.524-.267-.363-.133-.363-.133a4.086,4.086,0,0,1,2.217.257A9.992,9.992,0,0,0,810.714,113.423Z" transform="translate(-717.737 -105.639)" fill="#6b00c3"/>
    <path id="Path_65263" data-name="Path 65263" d="M760.891,87.246s-4.271-.258-3.772,2.738a.731.731,0,0,0,.38.77s.007-.225.438-.146a2.029,2.029,0,0,0,.464.022.977.977,0,0,0,.569-.235h0a3.394,3.394,0,0,0,1.669-2.461s.346-.428.337-.538l-.721.308a1.29,1.29,0,0,1,.053.953s-.024-.934-.162-.911c-.028,0-.375.18-.375.18a2.131,2.131,0,0,1,.1,1.566s.121-1.117-.236-1.5l-.508.3a2.245,2.245,0,0,1,.16,1.7,3.2,3.2,0,0,0-.266-1.628l-.461.359a2.2,2.2,0,0,1,.182,1.557s-.037-1.364-.282-1.468a2.819,2.819,0,0,0-.464.5s.319.674.121,1.024c0,0-.121-.909-.225-.913a3.013,3.013,0,0,0-.443,1.011,2.189,2.189,0,0,1,.345-1.073,1.2,1.2,0,0,0-.614.318s.062-.426.713-.463a2.806,2.806,0,0,1,.42-.484,2.635,2.635,0,0,0-1.04.12,1.174,1.174,0,0,1,1.159-.225l.45-.37a3.9,3.9,0,0,0-1.214.011,1.476,1.476,0,0,1,1.336-.1l.494-.3a4.5,4.5,0,0,0-1.16-.1,1.779,1.779,0,0,1,1.3.021l.354-.16s-.533-.1-.688-.12-.165-.06-.165-.06a1.842,1.842,0,0,1,1,.112A4.521,4.521,0,0,0,760.891,87.246Z" transform="translate(-677.62 -82.409)" fill="#6b00c3"/>
    <ellipse id="Ellipse_3195" data-name="Ellipse 3195" cx="3.027" cy="0.511" rx="3.027" ry="0.511" transform="translate(117.566 81.024)" fill="#6c63ff" opacity="0.1"/>
    <ellipse id="Ellipse_3196" data-name="Ellipse 3196" cx="3.027" cy="0.511" rx="3.027" ry="0.511" transform="translate(2.222 89.531)" fill="#6c63ff" opacity="0.1"/>
    <ellipse id="Ellipse_3197" data-name="Ellipse 3197" cx="3.027" cy="0.511" rx="3.027" ry="0.511" transform="translate(19.791 90.172)" fill="#6c63ff" opacity="0.1"/>
    <ellipse id="Ellipse_3198" data-name="Ellipse 3198" cx="4.519" cy="0.764" rx="4.519" ry="0.764" transform="translate(109.449 86.251)" fill="#6c63ff"/>
    <path id="Path_65264" data-name="Path 65264" d="M1047.755,790.949a1.319,1.319,0,0,0,.432-.651.58.58,0,0,0-.3-.662c-.276-.106-.572.086-.8.28a1.066,1.066,0,0,1-.774.373,1.177,1.177,0,0,0,.364-1.1.465.465,0,0,0-.1-.225c-.154-.164-.431-.094-.616.035a2.294,2.294,0,0,0-.751,1.92,3.6,3.6,0,0,1-.01-.787.813.813,0,0,0-.3-.7.9.9,0,0,0-.45-.106.935.935,0,0,0-.735.208.723.723,0,0,0,.029.9,2.914,2.914,0,0,0,.76.609,1.685,1.685,0,0,1,.544.518.528.528,0,0,1,.041.093h1.646A4.578,4.578,0,0,0,1047.755,790.949Z" transform="translate(-931.918 -705.182)" fill="#6b00c3"/>
    <path id="Path_65265" data-name="Path 65265" d="M95.9,723.55s.617.807-.285,2.023-1.646,2.248-1.349,3.007c0,0,1.361-2.263,2.472-2.3S97.116,724.911,95.9,723.55Z" transform="translate(-89.236 -647.207)" fill="#6c63ff"/>
    <path id="Path_65266" data-name="Path 65266" d="M96.184,723.55a1.011,1.011,0,0,1,.126.253c1.081,1.27,1.657,2.456.618,2.485-.969.028-2.135,1.759-2.408,2.2a1.052,1.052,0,0,0,.034.1s1.361-2.264,2.472-2.3S97.4,724.911,96.184,723.55Z" transform="translate(-89.523 -647.207)" opacity="0.1"/>
    <path id="Path_65267" data-name="Path 65267" d="M118.413,731.246c0,.284-.033.515-.072.515s-.071-.225-.071-.515.039-.151.08-.151S118.413,730.962,118.413,731.246Z" transform="translate(-110.604 -653.875)" fill="#ffd037"/>
    <path id="Path_65268" data-name="Path 65268" d="M119.155,734.185c-.249.136-.466.218-.486.183s.169-.172.418-.308.151-.037.17,0S119.409,734.05,119.155,734.185Z" transform="translate(-110.958 -656.475)" fill="#ffd037"/>
    <path id="Path_65269" data-name="Path 65269" d="M69.356,723.55s-.617.807.284,2.023,1.646,2.248,1.349,3.007c0,0-1.362-2.263-2.472-2.3S68.137,724.911,69.356,723.55Z" transform="translate(-65.956 -647.207)" fill="#6c63ff"/>
    <path id="Path_65270" data-name="Path 65270" d="M69.343,723.55a.969.969,0,0,0-.126.253c-1.081,1.27-1.658,2.456-.618,2.485.968.028,2.135,1.759,2.407,2.2a1.047,1.047,0,0,1-.033.1s-1.362-2.264-2.473-2.3S68.124,724.911,69.343,723.55Z" transform="translate(-65.943 -647.207)" opacity="0.1"/>
    <path id="Path_65271" data-name="Path 65271" d="M70.1,731.246c0,.284.031.515.071.515s.071-.225.071-.515-.039-.151-.079-.151S70.1,730.962,70.1,731.246Z" transform="translate(-67.848 -653.875)" fill="#ffd037"/>
    <path id="Path_65272" data-name="Path 65272" d="M65.4,734.185c.249.136.468.218.487.183s-.169-.172-.418-.308-.152-.037-.17,0S65.147,734.05,65.4,734.185Z" transform="translate(-63.538 -656.475)" fill="#ffd037"/>
    <path id="Path_65273" data-name="Path 65273" d="M71.85,760.02A6.328,6.328,0,0,0,74.1,759.6c.521-.371,2.656-.813,2.785-.225s2.594,2.956.645,2.971a16.516,16.516,0,0,1-5.047-.62C71.961,761.406,71.85,760.02,71.85,760.02Z" transform="translate(-69.401 -678.748)" fill="#a8a8a8"/>
    <path id="Path_65274" data-name="Path 65274" d="M77.56,769.5a16.518,16.518,0,0,1-5.047-.62c-.4-.241-.553-1.1-.606-1.5H71.85s.112,1.392.628,1.708a16.5,16.5,0,0,0,5.047.62c.562,0,.756-.206.746-.5C78.193,769.388,77.98,769.5,77.56,769.5Z" transform="translate(-69.401 -686.111)" opacity="0.2"/>
    <path id="Path_65275" data-name="Path 65275" d="M395.267,441.529a15.123,15.123,0,0,0,5.737-1.4,2.236,2.236,0,0,1,1.042-.307c.627-.018,1.349.244.887,1.709-.749,2.4-5.094,5.094-7.792,4.945a8.938,8.938,0,0,1-7.7-4.864,2.248,2.248,0,0,1-.278-1.156c.024-.742.293-1.671,1.686-.635,1.881,1.4,5.451,1.664,6.167,1.7A2.366,2.366,0,0,0,395.267,441.529Z" transform="translate(-349.274 -394.959)" fill="#444053"/>
    <path id="Path_65276" data-name="Path 65276" d="M617.267,441.529a15.124,15.124,0,0,0,5.737-1.4,2.235,2.235,0,0,1,1.042-.307c.627-.018,1.349.244.887,1.709-.749,2.4-5.094,5.094-7.792,4.945a8.938,8.938,0,0,1-7.7-4.864,2.249,2.249,0,0,1-.278-1.156c.024-.742.293-1.671,1.686-.635,1.881,1.4,5.451,1.664,6.167,1.7a2.366,2.366,0,0,0,.254,0Z" transform="translate(-546.325 -394.959)" fill="#444053"/>
  </g>
</svg>
