<svg xmlns="http://www.w3.org/2000/svg" width="14.983" height="17.126" viewBox="0 0 14.983 17.126">
  <g id="trash-bin" transform="translate(-32.038)">
    <g id="Group_57424" data-name="Group 57424" transform="translate(32.038)">
      <path id="Path_65079" data-name="Path 65079" d="M319.578,190.195l-.624,7.4a.251.251,0,0,0,.5.042l.624-7.4a.251.251,0,0,0-.5-.042Z" transform="translate(-309.355 -183.611)" fill="#c2a3dd"/>
      <path id="Path_65080" data-name="Path 65080" d="M159.614,189.966a.251.251,0,0,0-.229.271l.624,7.4a.251.251,0,0,0,.5-.042l-.624-7.4A.251.251,0,0,0,159.614,189.966Z" transform="translate(-155.124 -183.611)" fill="#c2a3dd"/>
      <path id="Path_65081" data-name="Path 65081" d="M248.5,190.216v7.4a.251.251,0,1,0,.5,0v-7.4a.251.251,0,1,0-.5,0Z" transform="translate(-241.259 -183.611)" fill="#c2a3dd"/>
      <path id="Path_65082" data-name="Path 65082" d="M45.864,1.938H41.919V1.056A1.057,1.057,0,0,0,40.863,0H38.2A1.057,1.057,0,0,0,37.14,1.056v.882H33.2a1.157,1.157,0,1,0,0,2.314h.27L34.4,15.376a1.911,1.911,0,0,0,1.9,1.75h6.444a1.911,1.911,0,0,0,1.9-1.75l.13-1.542a.251.251,0,1,0-.5-.042l-.13,1.542a1.417,1.417,0,0,1-1.4,1.29H36.307a1.417,1.417,0,0,1-1.4-1.29L33.969,4.252h.743a.251.251,0,0,0,0-.5H33.2a.655.655,0,1,1,0-1.311H45.864a.655.655,0,1,1,0,1.311H35.885a.251.251,0,0,0,0,.5h9.206l-.706,8.369a.251.251,0,0,0,.229.271h.021a.251.251,0,0,0,.25-.23l.71-8.412h.27a1.157,1.157,0,1,0,0-2.314Zm-4.447,0H37.642V1.056A.555.555,0,0,1,38.2.5h2.666a.555.555,0,0,1,.554.554v.882Z" transform="translate(-32.038 0)" fill="#c2a3dd"/>
    </g>
  </g>
</svg>
