<svg xmlns="http://www.w3.org/2000/svg" width="170.052" height="170.041" viewBox="0 0 170.052 170.041">
  <g id="pet" transform="translate(0 -0.015)">
    <g id="Group_57401" data-name="Group 57401" transform="translate(0.004 19.86)">
      <g id="Group_57400" data-name="Group 57400">
        <path id="Path_65063" data-name="Path 65063" d="M166.837,173.658c-5.982-10.491-16.947-12.455-19.086-12.741a2.777,2.777,0,0,0-.377-.025h-30l-1.187-1.187a21.243,21.243,0,0,0,7.963-4.928l11.109,3.174,1.556-5.45-8.887-2.539a24.759,24.759,0,0,0,2.321-5.254,2.866,2.866,0,0,0,.122-.819v-5.824l6.784-2.908-2.23-5.209L130.37,131.9v-2.182a2.826,2.826,0,0,0-.405-1.459l-8.5-14.169a2.837,2.837,0,0,0-2.083-1.355,2.882,2.882,0,0,0-2.349.811l-7.671,7.671H107.7V85.549l4.007-4.007h3.636l7.788,5.192a2.834,2.834,0,0,0,3.931-.785l5.668-8.5a2.831,2.831,0,0,0,0-3.143l-11.336-17a2.833,2.833,0,0,0-2.358-1.264h-8.5A2.837,2.837,0,0,0,108,57.6l-4.883,9.768H72.61L67.724,57.6a2.83,2.83,0,0,0-2.533-1.567H53.855a2.826,2.826,0,0,0-2.3,1.187L37.382,77.062a2.835,2.835,0,0,0,.3,3.65l5.668,5.668a2.836,2.836,0,0,0,3.576.354l7.788-5.192h6.47l1.173,1.173v30.8c-7.481,2.718-27.908,12.041-36.656,35.03a59.666,59.666,0,0,0-2.114,34.52l-6.572-3.945v-9.732a8.5,8.5,0,0,0-13.606-6.8,8.544,8.544,0,0,0-3.4,6.8V189.23a2.837,2.837,0,0,0,1.332,2.4L24.014,205.8a2.839,2.839,0,0,0,1.5.431H153.041a2.84,2.84,0,0,0,1.267-.3l11.336-5.668a2.827,2.827,0,0,0,1.21-1.159C167.148,198.582,173.927,186.079,166.837,173.658ZM90.7,177.877l-16.782-.054-.017,5.668,16.8.054v17.02H85.028A11.347,11.347,0,0,0,73.692,189.23H68.024a25.534,25.534,0,0,0-25.505-25.505H39.686v5.668h2.834A19.861,19.861,0,0,1,62.357,189.23v2.834a2.833,2.833,0,0,0,2.834,2.834h8.5a5.673,5.673,0,0,1,5.668,5.668H26.329L5.679,187.66V169.393a2.849,2.849,0,0,1,1.131-2.267,2.837,2.837,0,0,1,4.537,2.267v11.336a2.836,2.836,0,0,0,1.374,2.429l14.169,8.5a2.833,2.833,0,0,0,4.118-3.406c-2.12-5.77-6.365-20.993-.011-37.691.417-1.1.89-2.128,1.363-3.157l.006,0c9.542-20.736,29.716-27.925,33.667-29.155a2.825,2.825,0,0,0,1.992-2.7V81.542a2.826,2.826,0,0,0-.83-2L64.36,76.7a2.821,2.821,0,0,0-2-.83h-8.5a2.85,2.85,0,0,0-1.573.476l-6.569,4.378L43.387,78.4,55.314,61.7h8.125l4.886,9.768a2.83,2.83,0,0,0,2.533,1.567h34.007a2.837,2.837,0,0,0,2.536-1.567l4.883-9.768h5.234l9.445,14.169-3.046,4.571-6.144-4.095a2.85,2.85,0,0,0-1.573-.476h-5.668a2.821,2.821,0,0,0-2,.83l-5.668,5.668a2.826,2.826,0,0,0-.83,2v36.841H94.7l-7.671-7.671a2.831,2.831,0,0,0-4.432.544l-8.5,14.169a2.826,2.826,0,0,0-.405,1.459V131.9l-4.551-1.95-2.23,5.209,6.781,2.9v5.824a2.866,2.866,0,0,0,.122.819,24.439,24.439,0,0,0,3.378,6.886L67.03,155.4l1.992,5.308,12.339-4.628a21.927,21.927,0,0,0,9.338,4.407v17.386Zm71.559,17.746-9.885,4.942h-25.63l-2.04-6.127v-7.184l3.627-5.441a2.424,2.424,0,0,1,2.023-1.085,2.432,2.432,0,0,1,2.174,3.517l-1.859,3.718a2.832,2.832,0,0,0,.533,3.27l2.834,2.834a2.822,2.822,0,0,0,2,.83h14.169V189.23h-13l-.558-.558.947-1.89a8.1,8.1,0,0,0-13.985-8.116l-4.1,6.158a2.857,2.857,0,0,0-.476,1.573v8.5a2.838,2.838,0,0,0,.147.9l1.59,4.772H110.533V180.728h-5.668v19.837h-8.5V158.057a2.835,2.835,0,0,0-2.57-2.823,16.6,16.6,0,0,1-5.821-1.632l3.721-1.394L89.7,146.9l-6.971,2.616a18.216,18.216,0,0,1-3.369-6.062V140.49l7.385,3.165,2.23-5.209-9.615-4.118V130.5l6.229-10.383,5.937,5.934a2.821,2.821,0,0,0,2,.83h17a2.821,2.821,0,0,0,2-.83l5.937-5.934L124.7,130.5v3.826l-9.618,4.12,2.23,5.209,7.388-3.165v2.961a18.585,18.585,0,0,1-2.454,4.883l-5.268-1.5-1.556,5.45,2.035.581a16.525,16.525,0,0,1-7.187,2.375,2.833,2.833,0,0,0-1.743,4.823l5.668,5.668a2.822,2.822,0,0,0,2,.83h30.972c1.621.247,10.188,1.916,14.745,9.907C166.581,184.642,163.393,193.124,162.257,195.623Z" transform="translate(-0.011 -56.037)" fill="#6b00c3"/>
      </g>
    </g>
    <g id="Group_57403" data-name="Group 57403" transform="translate(0 0.015)">
      <g id="Group_57402" data-name="Group 57402">
        <path id="Path_65064" data-name="Path 65064" d="M167.419,37.4C162.315,23.221,145.748,1.59,121.008.139c-16.816-1.012-29.617,12.1-35.741,18.389l-.351.36c-.159-.162-.32-.332-.493-.51C78.392,12.115,65.747-.943,49.036.071,24.3,1.522,7.729,23.15,2.625,37.337-4.19,56.3,2.41,80.52,20.737,103.8l4.458-3.506C8.1,78.584,1.818,56.335,7.962,39.253,12.552,26.483,27.371,7.017,49.367,5.728c14.2-.8,25.531,10.93,30.974,16.584,1.04,1.077,1.882,1.947,2.505,2.5a2.843,2.843,0,0,0,1.2.635l.292.071a2.831,2.831,0,0,0,2.565-.635c.6-.536,1.417-1.369,2.423-2.4C94.866,16.794,106.419,4.991,120.677,5.8c22,1.292,36.815,20.758,41.406,33.528,6.986,19.418-2.1,45.322-24.3,69.294l4.157,3.851C165.608,86.913,175.133,58.852,167.419,37.4Z" transform="translate(0 -0.015)" fill="#6b00c3"/>
      </g>
    </g>
    <g id="Group_57405" data-name="Group 57405" transform="translate(73.685 48.199)">
      <g id="Group_57404" data-name="Group 57404">
        <rect id="Rectangle_6663" data-name="Rectangle 6663" width="5.668" height="5.668" fill="#6b00c3"/>
      </g>
    </g>
    <g id="Group_57407" data-name="Group 57407" transform="translate(90.688 48.199)">
      <g id="Group_57406" data-name="Group 57406">
        <rect id="Rectangle_6664" data-name="Rectangle 6664" width="5.668" height="5.668" fill="#6b00c3"/>
      </g>
    </g>
    <g id="Group_57409" data-name="Group 57409" transform="translate(79.353 59.535)">
      <g id="Group_57408" data-name="Group 57408">
        <rect id="Rectangle_6665" data-name="Rectangle 6665" width="11.336" height="5.668" fill="#6b00c3"/>
      </g>
    </g>
    <g id="Group_57411" data-name="Group 57411" transform="translate(90.688 96.375)">
      <g id="Group_57410" data-name="Group 57410">
        <rect id="Rectangle_6666" data-name="Rectangle 6666" width="5.668" height="5.668" fill="#6b00c3"/>
      </g>
    </g>
    <g id="Group_57413" data-name="Group 57413" transform="translate(107.692 96.375)">
      <g id="Group_57412" data-name="Group 57412">
        <rect id="Rectangle_6667" data-name="Rectangle 6667" width="5.668" height="5.668" fill="#6b00c3"/>
      </g>
    </g>
    <g id="Group_57415" data-name="Group 57415" transform="translate(99.19 104.877)">
      <g id="Group_57414" data-name="Group 57414">
        <rect id="Rectangle_6668" data-name="Rectangle 6668" width="5.668" height="5.668" fill="#6b00c3"/>
      </g>
    </g>
  </g>
</svg>
