<svg xmlns="http://www.w3.org/2000/svg" width="10" height="17.414" viewBox="0 0 10 17.414">
  <path id="smartphone" d="M117.808,0h-7.641a1.181,1.181,0,0,0-1.18,1.18V16.234a1.181,1.181,0,0,0,1.18,1.18h7.641a1.181,1.181,0,0,0,1.18-1.18V1.18A1.181,1.181,0,0,0,117.808,0Zm.636,16.234a.636.636,0,0,1-.636.636h-7.641a.636.636,0,0,1-.636-.636V1.18a.636.636,0,0,1,.636-.636h7.641a.636.636,0,0,1,.636.636V16.234Zm-3.295-14.77a.272.272,0,0,1-.272.272H113.1a.272.272,0,1,1,0-.544h1.778A.272.272,0,0,1,115.149,1.464ZM113.988,14.7a.915.915,0,1,0,.915.915A.916.916,0,0,0,113.988,14.7Zm0,1.286a.371.371,0,1,1,.371-.371A.371.371,0,0,1,113.988,15.99Z" transform="translate(-108.988)" fill="#6b18c3"/>
</svg>
