<svg xmlns="http://www.w3.org/2000/svg" width="133.422" height="154.397" viewBox="0 0 133.422 154.397">
  <g id="pray" transform="translate(-34.773 0)">
    <path id="Path_65065" data-name="Path 65065" d="M165.47,106.357a10.172,10.172,0,0,0-14.361-.5l-1.211,1.129-11.52-7.526.8-17.415c.591-12.876-.038-16.986-4.491-29.317-3.446-9.544-8.148-21.469-11.925-31.051-2.7-6.858-5.038-12.781-5.787-15.005l-.01-.029C115,.983,109.821-.819,105.729.328A8.942,8.942,0,0,0,101.485,3,8.94,8.94,0,0,0,97.241.328C93.148-.818,87.973.983,86,6.643l-.01.029c-.6,1.781-2.238,5.985-3.92,10.262a3.016,3.016,0,0,0,5.613,2.207c1.97-5.013,3.408-8.723,4.017-10.529.788-2.246,2.53-2.863,3.911-2.477,1.439.4,2.733,1.972,2.056,5.168L90.627,41.594a13.246,13.246,0,0,0-4.189,5.826,157.928,157.928,0,0,0-8.057,24.507,3.016,3.016,0,1,0,5.883,1.331A151.628,151.628,0,0,1,92,49.741c1.577-3.781,2.937-3.658,3.449-3.613a3,3,0,0,1,2.7,3.259c-.138,1.553-.742,7.211-1.326,12.684-.614,5.749-1.193,11.18-1.336,12.785-.351,3.947.342,8.736,1.077,13.807,2.128,14.7,4.76,32.883-14.862,45.035l-24.1-22.474,11.718-7.656a3.017,3.017,0,0,0,1.363-2.663l-.879-19.135c-.556-12.1-.053-15.383,4.139-26.992,1.088-3.014,2.354-6.41,3.869-10.383a3.016,3.016,0,1,0-5.635-2.149c-1.528,4.007-2.806,7.436-3.907,10.484C63.828,65.061,63.2,69.17,63.79,82.046l.8,17.415-11.52,7.526-1.21-1.129A10.16,10.16,0,1,0,38,120.719l33.187,30.952a10.16,10.16,0,0,0,14.964-13.65c7.488-4.914,12.551-10.985,15.334-18.4,2.783,7.414,7.845,13.484,15.333,18.4a10.161,10.161,0,0,0,14.965,13.65l33.187-30.952h0a10.172,10.172,0,0,0,.5-14.361Zm-84.333,40.7a4.134,4.134,0,0,1-5.836.2L42.114,116.307a4.129,4.129,0,0,1,5.633-6.039l33.187,30.952a4.129,4.129,0,0,1,.2,5.836ZM97.122,40.294l4.363-18.761,4.363,18.761a8.965,8.965,0,0,0-4.363,2.37,8.964,8.964,0,0,0-4.363-2.37Zm4.363,35.346a25.342,25.342,0,0,1,0,3.287A25.394,25.394,0,0,1,101.485,75.641ZM106.4,88.662c.734-5.07,1.428-9.86,1.077-13.807-.143-1.605-.723-7.036-1.336-12.785-.584-5.472-1.188-11.131-1.326-12.684a3,3,0,0,1,2.7-3.259c.513-.045,1.873-.169,3.449,3.613a151.649,151.649,0,0,1,7.741,23.517,3.016,3.016,0,1,0,5.883-1.331,157.909,157.909,0,0,0-8.057-24.507,13.242,13.242,0,0,0-4.189-5.826L105.3,11.3c-.676-3.2.617-4.765,2.056-5.168,1.381-.386,3.123.231,3.911,2.477.8,2.379,3.047,8.072,5.887,15.276,3.763,9.546,8.446,21.425,11.863,30.888,4.192,11.609,4.695,14.888,4.139,26.992l-.879,19.135a3.016,3.016,0,0,0,1.363,2.663l11.718,7.656L121.26,133.7c-19.622-12.151-16.99-30.337-14.861-45.035Zm54.457,27.645L127.669,147.26a4.129,4.129,0,1,1-5.633-6.039l33.187-30.953a4.129,4.129,0,0,1,5.633,6.039Z" transform="translate(0 0)" fill="#6b00c3"/>
    <path id="Path_65066" data-name="Path 65066" d="M176.268,97.473a3.012,3.012,0,0,0,3.96-1.584v0a3.016,3.016,0,1,0-3.961,1.586Z" transform="translate(-97.547 -64.035)" fill="#6b00c3"/>
  </g>
</svg>
