<svg xmlns="http://www.w3.org/2000/svg" width="82" height="82" viewBox="0 0 82 82">
  <g id="Group_57458" data-name="Group 57458" transform="translate(-147 -161)">
    <g id="Group_57318" data-name="Group 57318" transform="translate(1)">
      <circle id="Ellipse_55" data-name="Ellipse 55" cx="41" cy="41" r="41" transform="translate(146 161)" fill="#6b18c3"/>
    </g>
    <g id="Layer_2" data-name="Layer 2" transform="translate(157.077 168.459)">
      <path id="Path_65167" data-name="Path 65167" d="M56.063,25.841a14.376,14.376,0,0,0-3.069-4.533L42.225,10.54a4.744,4.744,0,0,0-8.012,2.455,4.715,4.715,0,0,0-6.705,3.354,4.682,4.682,0,0,0-6.62,3.043L10.359,8.863a4.858,4.858,0,0,0-6.708,0,4.744,4.744,0,0,0,0,6.708L27.083,39.005a.3.3,0,0,1,.069.344.292.292,0,0,1-.292.195H21.516a8.344,8.344,0,0,0-7.5,4.635A3.515,3.515,0,0,0,16.471,49.2l13.781,2.756a39,39,0,0,0,6.527.757h.4a16.041,16.041,0,0,0,11.25-4.772l4.184-4.177a16.2,16.2,0,0,0,3.451-17.922Zm-5.128,16.24-4.184,4.186a13.52,13.52,0,0,1-9.905,4.073,36.239,36.239,0,0,1-6.129-.712L16.936,46.873a1.146,1.146,0,0,1-.8-1.634,5.98,5.98,0,0,1,5.377-3.321H26.86a2.687,2.687,0,0,0,1.9-4.587L5.324,13.9a2.372,2.372,0,0,1,0-3.354,2.426,2.426,0,0,1,3.354,0L22.09,23.953l1.675,1.675a1.186,1.186,0,1,0,1.677-1.677l-1.679-1.682a2.372,2.372,0,0,1,3.356-3.349l2.517,2.514a1.186,1.186,0,1,0,1.677-1.677l-.84-.837a2.372,2.372,0,1,1,3.354-3.356l2.517,2.517A1.186,1.186,0,1,0,38.02,16.4l-.84-.84a2.372,2.372,0,0,1,3.359-3.347L51.307,22.988a12,12,0,0,1,2.564,3.8,13.831,13.831,0,0,1-2.936,15.3Z" transform="translate(0 6.815)" fill="#fff"/>
      <path id="Path_65168" data-name="Path 65168" d="M9.495,14.274l9.364,1.532a1.333,1.333,0,0,0,.192.014,1.186,1.186,0,0,0,.19-2.358l-6.724-1.1A22.979,22.979,0,0,1,28.029,9.07a23.3,23.3,0,0,1,13.807,7.158,1.187,1.187,0,0,0,1.736-1.618A25.685,25.685,0,0,0,28.358,6.722a25.287,25.287,0,0,0-17.011,3.586L12.391,3.93a1.187,1.187,0,0,0-2.343-.382L8.515,12.91a1.186,1.186,0,0,0,.98,1.364Z" transform="translate(8.556 0)" fill="#fff"/>
    </g>
  </g>
</svg>
