<svg xmlns="http://www.w3.org/2000/svg" width="82" height="82" viewBox="0 0 82 82">
  <g id="Group_57484" data-name="Group 57484" transform="translate(-147 -161)">
    <g id="Group_57318" data-name="Group 57318" transform="translate(1)">
      <circle id="Ellipse_55" data-name="Ellipse 55" cx="41" cy="41" r="41" transform="translate(146 161)" fill="#6b18c3"/>
    </g>
    <g id="girl" transform="translate(106.87 179)">
      <g id="Group_57448" data-name="Group 57448" transform="translate(76.345 15.808)">
        <g id="Group_57447" data-name="Group 57447" transform="translate(0)">
          <path id="Path_65145" data-name="Path 65145" d="M201.075,176.355a.672.672,0,0,0-.672.672v.719a.672.672,0,1,0,1.345,0v-.719A.672.672,0,0,0,201.075,176.355Z" transform="translate(-200.403 -176.355)" fill="#fff"/>
        </g>
      </g>
      <g id="Group_57450" data-name="Group 57450" transform="translate(84.967 15.808)">
        <g id="Group_57449" data-name="Group 57449">
          <path id="Path_65146" data-name="Path 65146" d="M297.268,176.355a.672.672,0,0,0-.672.672v.719a.672.672,0,1,0,1.345,0v-.719A.672.672,0,0,0,297.268,176.355Z" transform="translate(-296.596 -176.355)" fill="#fff"/>
        </g>
      </g>
      <g id="Group_57452" data-name="Group 57452" transform="translate(78.501 20.837)">
        <g id="Group_57451" data-name="Group 57451" transform="translate(0)">
          <path id="Path_65147" data-name="Path 65147" d="M229.914,232.668a.672.672,0,0,0-.951-.006,2.962,2.962,0,0,1-3.367,0,.672.672,0,1,0-.944.957,4.241,4.241,0,0,0,5.255,0A.672.672,0,0,0,229.914,232.668Z" transform="translate(-224.452 -232.468)" fill="#fff"/>
        </g>
      </g>
      <g id="Group_57454" data-name="Group 57454" transform="translate(64.13)">
        <g id="Group_57453" data-name="Group 57453" transform="translate(0)">
          <path id="Path_65148" data-name="Path 65148" d="M95.2,34.95l-.986-.348V12.887a12.887,12.887,0,0,0-25.774,0V18.4a21.4,21.4,0,0,0,3.093,11.251,18.568,18.568,0,0,0,2.316,3.046L67.455,34.95a4.991,4.991,0,0,0-3.325,4.7v5.572a.672.672,0,1,0,1.345,0V39.649a3.625,3.625,0,0,1,.235-1.284l3.4,2.914a2.2,2.2,0,0,1,.769,1.672v2.271a.672.672,0,1,0,1.345,0V42.95a3.543,3.543,0,0,0-1.238-2.693L66.421,37.2a3.629,3.629,0,0,1,1.481-.986l2.839-1A11.452,11.452,0,0,0,88.348,39.9,10.264,10.264,0,0,1,90,45.221a.672.672,0,1,0,1.345,0c0-2.991-1.28-5.108-2.519-7.156-1.291-2.135-2.511-4.152-2.511-7.215v-.719a.672.672,0,1,0-1.345,0v.719a11.864,11.864,0,0,0,1.254,5.325,7.233,7.233,0,0,1-11.493-2.367l.6-.21a3.552,3.552,0,0,0,2.366-3.344v-2.29a10.013,10.013,0,0,0,13.555-7.938h.4a2.635,2.635,0,0,0,1.227-.3v25.5a.672.672,0,1,0,1.345,0V40.706l2.731-2.341a3.623,3.623,0,0,1,.235,1.284v5.572a.672.672,0,1,0,1.345,0V39.649A4.991,4.991,0,0,0,95.2,34.95ZM81.328,39.427A8.506,8.506,0,0,0,86.866,37.4c.257.453.523.894.788,1.332a10.107,10.107,0,0,1-15.643-3.964l1.446-.51A8.593,8.593,0,0,0,81.328,39.427Zm-4.983-9.173h0a2.205,2.205,0,0,1-1.119,1.916,19.047,19.047,0,0,1-5.4-12.394,2.468,2.468,0,0,0,1.08.25h.5a10.035,10.035,0,0,0,4.934,7.292v2.936Zm16.52-12.578a1.193,1.193,0,0,1-1.221,1.006h-.3v-.039a.672.672,0,0,0-.672-.672h0a.672.672,0,0,0-.672.672,8.668,8.668,0,0,1-17.337-.006.672.672,0,0,0-1.345,0v.046H70.91a1.124,1.124,0,0,1-1.118-1.242,1.193,1.193,0,0,1,1.221-1.006h.257A2.828,2.828,0,0,0,74.1,13.606v-.719a2.9,2.9,0,0,1,1.168-2.337.672.672,0,1,0-.808-1.075,4.232,4.232,0,0,0-1.705,3.412v.719a1.483,1.483,0,0,1-1.483,1.483h-.257a2.634,2.634,0,0,0-1.227.3V12.887a11.523,11.523,0,0,1,4.155-8.862,22.881,22.881,0,0,0,6.868,8.8,16.516,16.516,0,0,0,9.86,3.611h1.078a1.124,1.124,0,0,1,1.118,1.242Zm.006-2.315a2.47,2.47,0,0,0-1.124-.272H90.669a15.17,15.17,0,0,1-9.043-3.334,21.59,21.59,0,0,1-6.577-8.548,11.537,11.537,0,0,1,17.822,9.681v2.473Zm1.345,23.574V36.027l.539.19a3.629,3.629,0,0,1,1.481.986Z" transform="translate(-64.13)" fill="#fff"/>
        </g>
      </g>
      <g id="Group_57456" data-name="Group 57456" transform="translate(74.908 12.933)">
        <g id="Group_57455" data-name="Group 57455" transform="translate(0)">
          <path id="Path_65149" data-name="Path 65149" d="M187.835,144.748a.672.672,0,0,0-.85-.425l-2.156.719a.672.672,0,1,0,.425,1.276l2.156-.719A.672.672,0,0,0,187.835,144.748Z" transform="translate(-184.369 -144.288)" fill="#fff"/>
        </g>
      </g>
    </g>
  </g>
</svg>
