<svg xmlns="http://www.w3.org/2000/svg" width="82" height="82" viewBox="0 0 82 82">
  <g id="Group_57483" data-name="Group 57483" transform="translate(-147 -161)">
    <g id="Group_57318" data-name="Group 57318" transform="translate(1)">
      <circle id="Ellipse_55" data-name="Ellipse 55" cx="41" cy="41" r="41" transform="translate(146 161)" fill="#6b18c3"/>
    </g>
    <g id="Group_57446" data-name="Group 57446" transform="translate(161.209 174.4)">
      <path id="Path_65134" data-name="Path 65134" d="M53,56.45a13.095,13.095,0,1,0-18.68-18.03,13.112,13.112,0,0,0-21.754,9.872A12.664,12.664,0,0,0,14.755,55.5l-.118.118c-1.241.946-4.138,3.133-3.251,5.793A2.058,2.058,0,0,0,13.1,62.835a2.234,2.234,0,0,0,.887,0,18.84,18.84,0,0,0-1.3,3.015,1.023,1.023,0,0,0,.65,1.241c.118,0,.177.059.3.059a1.012,1.012,0,0,0,.946-.709,10.232,10.232,0,0,1,2.6-4.493A7.171,7.171,0,0,0,19.9,60a13.159,13.159,0,0,0,2.542.946c.059,0,.177.059.236.059a1.012,1.012,0,0,0,.946-.709.967.967,0,0,0-.709-1.182,11.106,11.106,0,1,1,7.271-.591.979.979,0,0,0,.828,1.773,10.274,10.274,0,0,0,1.123-.591,15.1,15.1,0,0,1,5.616,6.857,1.035,1.035,0,0,0,.887.591,1.006,1.006,0,0,0,.414-.059.994.994,0,0,0,.473-1.3,17.679,17.679,0,0,0-5.616-7.212,12.76,12.76,0,0,0,2.305-2.424,12.9,12.9,0,0,0,5.32,2.838c.059,0,.177.059.236.059a1.012,1.012,0,0,0,.946-.709.967.967,0,0,0-.709-1.182,11.289,11.289,0,0,1-4.729-2.6,13.209,13.209,0,0,0-1.6-14.542,10.978,10.978,0,0,1,9.1-4.788,11.115,11.115,0,0,1,4.493,21.281.994.994,0,0,0-.473,1.3,1.035,1.035,0,0,0,.887.591,6.532,6.532,0,0,0,1.478-.65c2.778,1.655,4.907,7.567,4.907,7.567a1.035,1.035,0,0,0,.887.591,1.006,1.006,0,0,0,.414-.059.994.994,0,0,0,.473-1.3c.118-.177-1.951-6.03-4.847-8.1ZM16,57.041a12.841,12.841,0,0,0,2.128,1.892c-.768.768-3.783,2.778-4.907,1.892C12.272,59.938,16,57.041,16,57.041Z" transform="translate(-4.264 -13.288)" fill="#fff"/>
      <path id="Path_65135" data-name="Path 65135" d="M66.415,54.728a3.911,3.911,0,0,1-4.788,0,1.242,1.242,0,0,0-1.537,1.951,6.445,6.445,0,0,0,7.685.059,1.238,1.238,0,0,0,.3-1.714A1.16,1.16,0,0,0,66.415,54.728Z" transform="translate(-24.061 -22.029)" fill="#fff"/>
      <path id="Path_65136" data-name="Path 65136" d="M61.9,46.719a1.449,1.449,0,0,0-2.9,0,1.4,1.4,0,0,0,1.419,1.419A1.381,1.381,0,0,0,61.9,46.719Z" transform="translate(-23.799 -18.276)" fill="#fff"/>
      <path id="Path_65137" data-name="Path 65137" d="M71.719,45.3A1.438,1.438,0,0,0,70.3,46.719a1.4,1.4,0,0,0,1.419,1.419,1.438,1.438,0,0,0,1.419-1.419A1.365,1.365,0,0,0,71.719,45.3Z" transform="translate(-28.419 -18.276)" fill="#fff"/>
      <path id="Path_65138" data-name="Path 65138" d="M8.29,61.653,6.34,59.821A1,1,0,1,0,4.98,61.3l2.01,1.833a.889.889,0,0,0,.65.236,1.091,1.091,0,0,0,.709-.3A.968.968,0,0,0,8.29,61.653Z" transform="translate(-1.583 -24.107)" fill="#fff"/>
      <path id="Path_65139" data-name="Path 65139" d="M5.052,68.069C3.988,67.833,1.978,67.6,1.86,67.6a.979.979,0,0,0-.177,1.951s3.074.473,3.192.473a.949.949,0,0,0,.946-.768A1,1,0,0,0,5.052,68.069Z" transform="translate(0 -27.389)" fill="#fff"/>
      <path id="Path_65140" data-name="Path 65140" d="M4.715,74.942c-.414.177-1.892,1.064-2.246,1.241a.954.954,0,0,0-.532,1.3,1.035,1.035,0,0,0,.887.591.75.75,0,0,0,.355-.059c.473-.177,2.01-1.064,2.305-1.241a.994.994,0,0,0,.473-1.3A.955.955,0,0,0,4.715,74.942Z" transform="translate(-0.431 -30.361)" fill="#fff"/>
      <path id="Path_65141" data-name="Path 65141" d="M41.132,57.823a1.238,1.238,0,0,0-1.714-.3,3.911,3.911,0,0,1-4.788,0,1.226,1.226,0,0,0-1.714.236,1.176,1.176,0,0,0,.236,1.714,6.445,6.445,0,0,0,7.685.059,1.274,1.274,0,0,0,.3-1.714Z" transform="translate(-13.025 -23.174)" fill="#fff"/>
      <circle id="Ellipse_3188" data-name="Ellipse 3188" cx="1.419" cy="1.419" r="1.419" transform="translate(19.24 28.738)" fill="#fff"/>
      <path id="Path_65142" data-name="Path 65142" d="M46.1,49.619a1.449,1.449,0,1,0-1.419,1.419A1.438,1.438,0,0,0,46.1,49.619Z" transform="translate(-17.339 -19.462)" fill="#fff"/>
      <path id="Path_65143" data-name="Path 65143" d="M42.437.6A6.163,6.163,0,0,0,38,2.433c-.177.177-.3.355-.473.532A6.239,6.239,0,0,0,31.559.718a6.468,6.468,0,0,0-4.493,3.133c-1.478,2.483-1.6,4.847-.355,7.035a16.676,16.676,0,0,0,2.6,3.488,51.456,51.456,0,0,0,7.567,6.443,1.347,1.347,0,0,0,.65.177,1.041,1.041,0,0,0,.768-.3,51.689,51.689,0,0,0,6.916-5.793,19.611,19.611,0,0,0,3.192-4.138,6.146,6.146,0,0,0,.828-2.837A7.513,7.513,0,0,0,46.4,2.019,5.921,5.921,0,0,0,42.437.6Zm4.847,7.389a4.423,4.423,0,0,1-.591,1.892,15.265,15.265,0,0,1-2.9,3.665,46.631,46.631,0,0,1-6.325,5.32,46.789,46.789,0,0,1-6.8-5.852,17.428,17.428,0,0,1-2.365-3.133,4.6,4.6,0,0,1,.3-5.025,5.283,5.283,0,0,1,3.31-2.246c.236,0,.532-.059.768-.059a4.341,4.341,0,0,1,3.842,2.424c.059.059.059.177.118.3a1.394,1.394,0,0,0,.946.532,1.1,1.1,0,0,0,.887-.532,6.579,6.579,0,0,1,.946-1.419A4.384,4.384,0,0,1,42.5,2.61a4.172,4.172,0,0,1,2.66.946,5.547,5.547,0,0,1,2.128,4.434Z" transform="translate(-10.251)" fill="#fff"/>
      <path id="Path_65144" data-name="Path 65144" d="M54.006,6.664a.991.991,0,1,0-.591,1.892A1.39,1.39,0,0,1,54.3,9.62a2.052,2.052,0,0,1-.473,1.833.965.965,0,0,0,0,1.419,1.091,1.091,0,0,0,.709.3,1.228,1.228,0,0,0,.709-.3,3.929,3.929,0,0,0,1-3.665,3.411,3.411,0,0,0-2.246-2.542Z" transform="translate(-21.229 -2.458)" fill="#fff"/>
    </g>
  </g>
</svg>
