<svg xmlns="http://www.w3.org/2000/svg" width="82" height="82" viewBox="0 0 82 82">
  <g id="Group_57318" data-name="Group 57318" transform="translate(-146 -161)">
    <circle id="Ellipse_55" data-name="Ellipse 55" cx="41" cy="41" r="41" transform="translate(146 161)" fill="#6b18c3"/>
    <g id="_3" data-name="3" transform="translate(87.736 169.554)">
      <g id="Group_57467" data-name="Group 57467" transform="translate(81.323 7)">
        <path id="Path_65163" data-name="Path 65163" d="M121.308,32.172a11.835,11.835,0,0,0-2.384-3.762,12.766,12.766,0,0,0-3.773-2.736,13.574,13.574,0,0,0-1.656-.68q.484-.254.933-.544a11,11,0,0,0,3.025-2.856,12.076,12.076,0,0,0,1.825-3.774,15.877,15.877,0,0,0,.612-4.464,14.382,14.382,0,0,0-1.051-5.593,11.114,11.114,0,0,0-3.13-4.272,14.154,14.154,0,0,0-4.99-2.606A22.9,22.9,0,0,0,104.108,0,27.024,27.024,0,0,0,98.83.488a28.268,28.268,0,0,0-4.281,1.2,19.8,19.8,0,0,0-3.126,1.485A11.2,11.2,0,0,0,89.7,4.379l-.019.019a3.959,3.959,0,0,0-.72.895,4.345,4.345,0,0,0-.373.938l0,.012a6.28,6.28,0,0,0-.19,1.259c-.027.452-.041.99-.041,1.644a19.353,19.353,0,0,0,.084,1.99,6.1,6.1,0,0,0,.273,1.333l.016.042a2.007,2.007,0,0,0,.81,1.017,1.97,1.97,0,0,0,1.057.281,3.921,3.921,0,0,0,1.97-.764c.644-.4,1.409-.83,2.274-1.281a22.126,22.126,0,0,1,2.987-1.225,10.183,10.183,0,0,1,3.37-.54,7.6,7.6,0,0,1,2.666.413l.013,0a5.3,5.3,0,0,1,.915.431,1.034,1.034,0,0,0,1.063-1.773,7.38,7.38,0,0,0-1.266-.6,9.5,9.5,0,0,0-3.392-.544,12.374,12.374,0,0,0-4.033.649A24.121,24.121,0,0,0,93.9,9.922l-.01.005c-.912.475-1.723.933-2.413,1.36a4.346,4.346,0,0,1-.833.435,4.459,4.459,0,0,1-.147-.806,17.622,17.622,0,0,1-.072-1.771c0-.612.012-1.109.037-1.517a4.367,4.367,0,0,1,.119-.836,2.421,2.421,0,0,1,.19-.5l.011-.021a2.22,2.22,0,0,1,.352-.406A11.118,11.118,0,0,1,92.5,4.936a17.721,17.721,0,0,1,2.786-1.317,26.183,26.183,0,0,1,3.956-1.106,24.978,24.978,0,0,1,4.865-.446,20.846,20.846,0,0,1,6.01.8,12.1,12.1,0,0,1,4.262,2.212,9.067,9.067,0,0,1,2.552,3.485,12.166,12.166,0,0,1,.891,4.8,13.82,13.82,0,0,1-.529,3.885,10.021,10.021,0,0,1-1.514,3.138l-.009.012a8.826,8.826,0,0,1-2.466,2.322,11.34,11.34,0,0,1-3.493,1.457,1.034,1.034,0,0,0-.789,1v.117a1.034,1.034,0,0,0,.91,1.026,13.22,13.22,0,0,1,4.311,1.212,10.717,10.717,0,0,1,3.17,2.291,9.646,9.646,0,0,1,1.971,3.11,10.032,10.032,0,0,1,.691,3.726,13.6,13.6,0,0,1-1.29,6.056,12.615,12.615,0,0,1-3.619,4.411,16.991,16.991,0,0,1-5.64,2.767,27.013,27.013,0,0,1-7.351.959,27.757,27.757,0,0,1-4.533-.349,26.662,26.662,0,0,1-3.743-.872l-.01,0a15.616,15.616,0,0,1-2.617-1.045,8.714,8.714,0,0,1-1.24-.735.981.981,0,0,1-.245-.317,5.983,5.983,0,0,1-.245-.727,6.523,6.523,0,0,1-.164-1.116c-.033-.433-.049-1-.049-1.787a6.353,6.353,0,0,1,.214-2.106c.009-.019.017-.035.024-.049a5.092,5.092,0,0,1,.763.355,25.206,25.206,0,0,0,2.475,1.138,28.63,28.63,0,0,0,3.511,1.131,18.652,18.652,0,0,0,4.666.539,13.7,13.7,0,0,0,3.982-.537,9.441,9.441,0,0,0,3.054-1.546l.016-.012A6.8,6.8,0,0,0,110,40.282l.005-.012a8.1,8.1,0,0,0,.629-3.221,7.963,7.963,0,0,0-.765-3.51l-.005-.011a7.341,7.341,0,0,0-2.3-2.691,10.575,10.575,0,0,0-3.652-1.656,19.553,19.553,0,0,0-4.956-.566H94.713a1.52,1.52,0,0,1-.437-.049.44.44,0,0,1-.064-.092,2.532,2.532,0,0,1-.211-.8,14.354,14.354,0,0,1-.082-1.77A12.752,12.752,0,0,1,94,24.244a2.061,2.061,0,0,1,.182-.7c.011-.018.021-.037.03-.056a.333.333,0,0,1,.037-.06.833.833,0,0,1,.335-.056H98.86a14.242,14.242,0,0,0,4.187-.563,9.159,9.159,0,0,0,3.225-1.659,7.315,7.315,0,0,0,1.809-2.218,1.034,1.034,0,1,0-1.828-.965,5.178,5.178,0,0,1-1.295,1.588,7.011,7.011,0,0,1-2.5,1.274l-.014,0a12.188,12.188,0,0,1-3.581.472H94.583a2.846,2.846,0,0,0-1.205.248,2.1,2.1,0,0,0-1,.982,4.038,4.038,0,0,0-.424,1.423,14.471,14.471,0,0,0-.1,1.944,16.033,16.033,0,0,0,.1,2.04,4.515,4.515,0,0,0,.433,1.5l.008.015a2.211,2.211,0,0,0,1.084,1.018l.019.007a3.276,3.276,0,0,0,1.217.2h4.251a17.512,17.512,0,0,1,4.429.5,8.541,8.541,0,0,1,2.948,1.319l.014.01a5.225,5.225,0,0,1,1.66,1.938,5.84,5.84,0,0,1,.555,2.6,6.049,6.049,0,0,1-.457,2.4,4.681,4.681,0,0,1-1.367,1.755,7.391,7.391,0,0,1-2.382,1.2,11.657,11.657,0,0,1-3.379.448,16.6,16.6,0,0,1-4.146-.472,26.585,26.585,0,0,1-3.254-1.046,23.111,23.111,0,0,1-2.268-1.039,4.071,4.071,0,0,0-1.8-.63,2.023,2.023,0,0,0-1.865,1.313l-.01.022a8.083,8.083,0,0,0-.377,2.912c0,.84.017,1.458.055,1.944a8.43,8.43,0,0,0,.227,1.487,7.961,7.961,0,0,0,.343,1.014l.01.023a3.035,3.035,0,0,0,.774,1.035l.025.021a9.714,9.714,0,0,0,1.619.989A17.643,17.643,0,0,0,93.274,51.6a28.708,28.708,0,0,0,4.029.941,29.816,29.816,0,0,0,4.874.377,29.083,29.083,0,0,0,7.922-1.039,19.057,19.057,0,0,0,6.328-3.114,14.67,14.67,0,0,0,4.212-5.132,15.641,15.641,0,0,0,1.506-6.976,12.078,12.078,0,0,0-.836-4.487Z" transform="translate(-87.264 0)" fill="#fff"/>
        <path id="Path_65164" data-name="Path 65164" d="M278.668,125.047a1.034,1.034,0,0,0-1.034-1.034h0a1.034,1.034,0,1,0,1.034,1.034Z" transform="translate(-257.03 -111.195)" fill="#fff"/>
      </g>
    </g>
  </g>
</svg>
