<svg xmlns="http://www.w3.org/2000/svg" width="82" height="82" viewBox="0 0 82 82">
  <g id="Group_57318" data-name="Group 57318" transform="translate(-146 -161)">
    <circle id="Ellipse_55" data-name="Ellipse 55" cx="41" cy="41" r="41" transform="translate(146 161)" fill="#6b18c3"/>
    <path id="email" d="M51.361,24H16.308a4.536,4.536,0,0,0-4.523,4.523v1.7a1.131,1.131,0,0,0,2.262,0v-1.7a2.838,2.838,0,0,1,.113-.678L26.824,38.7,14.159,49.555a2.838,2.838,0,0,1-.113-.678v-1.7a1.131,1.131,0,0,0-2.262,0v1.7A4.536,4.536,0,0,0,16.308,53.4H51.361a4.536,4.536,0,0,0,4.523-4.523V28.523A4.536,4.536,0,0,0,51.361,24ZM15.855,26.318a1.1,1.1,0,0,1,.452-.057H51.361a1.1,1.1,0,0,1,.452.057L34.569,41.074a1.189,1.189,0,0,1-1.47,0Zm35.506,24.82H16.308a1.1,1.1,0,0,1-.452-.057L28.576,40.17l3.053,2.657a3.291,3.291,0,0,0,4.41,0l3.053-2.657L51.813,51.082A1.1,1.1,0,0,1,51.361,51.138Zm2.262-2.262a2.838,2.838,0,0,1-.113.678L40.845,38.7,53.509,27.845a2.838,2.838,0,0,1,.113.678Zm-45.23-13a1.134,1.134,0,0,1,1.131-1.131h6.785a1.131,1.131,0,0,1,0,2.262H9.523A1.134,1.134,0,0,1,8.392,35.873Zm7.915,6.785H6.131a1.131,1.131,0,0,1,0-2.262H16.308a1.131,1.131,0,1,1,0,2.262Z" transform="translate(154.058 165)" fill="#fff"/>
  </g>
</svg>
