<svg xmlns="http://www.w3.org/2000/svg" width="82" height="82" viewBox="0 0 82 82">
  <g id="Group_57482" data-name="Group 57482" transform="translate(-147 -161)">
    <g id="Group_57318" data-name="Group 57318" transform="translate(1)">
      <circle id="Ellipse_55" data-name="Ellipse 55" cx="41" cy="41" r="41" transform="translate(146 161)" fill="#6b18c3"/>
    </g>
    <path id="Path_65133" data-name="Path 65133" d="M92.992,34.394V0h-1.37V12.685l-4.981,3.234L83.624,12.9l1.96-1.96L82.643,8l.968-1.874-.919-.919L77.886,7.076,70.9,2.371,61.475,11.8l4.737,6.955-.008.008-1.922,4.861.919.919,1.959-1.012,2.919,2.919,1.895-1.895,3.018,3.018-4.635,7.176,5.912,3.115L74.6,42.634l2.242,2.242.969-.969-1.242-1.242h7.764l4.349,4.075,8.376-.027V34.394ZM80.648,11.863,87.3,18.514v2.361l-7.35,7.35H77.588l-6.651-6.651,6.4-3.309Zm4.264,13.975,1.892-.255V27.73H84.657Zm3.262-.439.958-.129,1.481,3.2-2.438-.465Zm.355-1.43-2.756.371,2-2ZM83.413,26.7l-.371,2.756L81.412,28.7Zm1.059,2.4h2.606l.465,2.438-3.2-1.481Zm4.6,3.146-.53-2.775L91.32,30l.3.653v2.771Zm2.548-17.927V27.39L88.67,21.008V17.947l-1.037-1.037Zm-7.977-3.377-.991.991-1.347-1.347.675-1.306ZM66.42,16.621l5.606-5.606-.969-.969-5.423,5.422-2.389-3.507L71.07,4.138l3.523,2.372-.629.628.969.969.818-.818,1.148.773-9.7,9.7Zm.857,3L78.7,8.2l2.865-1.1-5.241,10.14-10.14,5.241Zm2.8,4.883-1.642-1.642,1.221-.631,1.347,1.347ZM84.874,41.295H76.519l.995-2.841,4.193-4.193,1.906,1.906.969-.969-2.875-2.874L77.22,36.811l-4.9-2.581,3.663-5.67L77.02,29.6h3.062l10.371,4.8H88.836V37.3l-2.48-.328-.8-.8-.969.969,1.133,1.133,3.121.413v6.325Zm10.813,4.048H90.206V43.956h5.481Zm0-2.757H90.206v-1.37h5.481Zm0-2.741H90.206V38.46h2.74V37.09h-2.74V35.764h5.481V37.09h-1.37v1.37h1.37Z" transform="translate(108.525 179)" fill="#fff"/>
  </g>
</svg>
