<svg xmlns="http://www.w3.org/2000/svg" width="82" height="82" viewBox="0 0 82 82">
  <g id="Group_57318" data-name="Group 57318" transform="translate(-146 -161)">
    <circle id="Ellipse_55" data-name="Ellipse 55" cx="41" cy="41" r="41" transform="translate(146 161)" fill="#6b18c3"/>
    <g id="Layer_2" data-name="Layer 2" transform="translate(160.626 168.238)">
      <path id="Path_65165" data-name="Path 65165" d="M55.317,14.889a4.673,4.673,0,0,0,0-6.61,4.788,4.788,0,0,0-6.608,0L38.337,18.651a4.608,4.608,0,0,0-1.194-2.1,4.673,4.673,0,0,0-5.327-.888,4.631,4.631,0,0,0-1.28-2.416,4.788,4.788,0,0,0-5.327-.869A4.645,4.645,0,0,0,23.93,9.931a4.788,4.788,0,0,0-6.608,0L6.708,20.543A14.16,14.16,0,0,0,3.686,25a15.949,15.949,0,0,0,3.4,17.65L11.21,46.78a15.8,15.8,0,0,0,11.085,4.7h.393a38.5,38.5,0,0,0,6.43-.745L42.69,48.019a3.465,3.465,0,0,0,2.421-4.946,8.22,8.22,0,0,0-7.4-4.57H32.454a.311.311,0,0,1-.222-.53ZM30.005,39.205a2.638,2.638,0,0,0,2.446,1.636h5.264a5.893,5.893,0,0,1,5.3,3.271,1.129,1.129,0,0,1-.787,1.612L28.655,48.439a36.227,36.227,0,0,1-6.035.7,13.417,13.417,0,0,1-9.757-4.01L8.743,41a13.624,13.624,0,0,1-2.9-15.078,11.832,11.832,0,0,1,2.526-3.738l10.606-10.6a2.4,2.4,0,0,1,3.3,0,2.337,2.337,0,0,1,0,3.3l-.825.825A1.168,1.168,0,1,0,23.1,17.366l2.477-2.477a2.337,2.337,0,0,1,3.306,3.3l-.827.825a1.168,1.168,0,1,0,1.652,1.652l2.479-2.477a2.336,2.336,0,1,1,3.306,3.3L33.84,23.148A1.168,1.168,0,1,0,35.492,24.8l1.649-1.652L50.354,9.935a2.4,2.4,0,0,1,3.3,0,2.337,2.337,0,0,1,0,3.306L30.573,36.324a2.64,2.64,0,0,0-.568,2.881Z" transform="translate(0 6.639)" fill="#fff"/>
      <path id="Path_65166" data-name="Path 65166" d="M5.623,15.822a1.168,1.168,0,0,0,.855-.372A22.975,22.975,0,0,1,20.077,8.4a22.665,22.665,0,0,1,15.311,3.25l-6.65,1.089a1.168,1.168,0,0,0,.187,2.32,1.073,1.073,0,0,0,.189-.016l9.222-1.507a1.168,1.168,0,0,0,.967-1.344L37.8,2.969a1.17,1.17,0,0,0-2.309.379L36.512,9.6A24.912,24.912,0,0,0,19.757,6.1,25.3,25.3,0,0,0,4.78,13.857a1.168,1.168,0,0,0,.853,1.965Z" transform="translate(2.795 0)" fill="#fff"/>
    </g>
  </g>
</svg>
