<svg xmlns="http://www.w3.org/2000/svg" width="82" height="82" viewBox="0 0 82 82">
  <g id="Group_57318" data-name="Group 57318" transform="translate(-146 -161)">
    <circle id="Ellipse_55" data-name="Ellipse 55" cx="41" cy="41" r="41" transform="translate(146 161)" fill="#6b18c3"/>
    <path id="ad-block" d="M62.851,27.352a25.1,25.1,0,0,0-35.5,0h0a25.1,25.1,0,1,0,35.5,0Zm5.26,17.75A22.846,22.846,0,0,1,62.1,60.616l-3.71-3.71A17.77,17.77,0,0,0,33.3,31.818l-3.71-3.71A23.01,23.01,0,0,1,68.111,45.1ZM52.14,46.533a2.939,2.939,0,0,1-2.291.974h-.863l-.852-.852V40.5h1.715a2.968,2.968,0,0,1,2.325.985,3.857,3.857,0,0,1,.8,2.5A3.905,3.905,0,0,1,52.14,46.533Zm-.883,3.245a5.306,5.306,0,0,0,4.385-4.428,7.216,7.216,0,0,0-.3-3.754,5.2,5.2,0,0,0-2.114-2.621,6.309,6.309,0,0,0-3.383-.88H45.415v5.842l-5.473-5.473-.142-.369h-.227l-4.8-4.8A15.68,15.68,0,0,1,56.9,55.425ZM37.312,38.791,33.023,49.913h2.9l.9-2.615h3.689l.918,2.615h2.9l-2.553-6.646,3.628,3.628v3.018h3.018L55.425,56.9A15.68,15.68,0,0,1,33.3,34.778Zm2.739,6.625H37.263l1.419-4.407ZM22.092,45.1a22.846,22.846,0,0,1,6.016-15.514l3.71,3.71A17.77,17.77,0,0,0,56.906,58.385l3.71,3.71A23.011,23.011,0,0,1,22.092,45.1Z" transform="translate(141.398 156.898)" fill="#fff"/>
  </g>
</svg>
