<svg xmlns="http://www.w3.org/2000/svg" width="82" height="82" viewBox="0 0 82 82">
  <g id="Group_57475" data-name="Group 57475" transform="translate(-147 -161)">
    <g id="Group_57318" data-name="Group 57318" transform="translate(1)">
      <circle id="Ellipse_55" data-name="Ellipse 55" cx="41" cy="41" r="41" transform="translate(146 161)" fill="#6b18c3"/>
    </g>
    <g id="startup_1_" data-name="startup (1)" transform="translate(171 183.543)">
      <path id="Path_65092" data-name="Path 65092" d="M55.26,2.5a.49.49,0,0,0-.3-.3,14.836,14.836,0,0,0-7.373-.5.49.49,0,1,0,.168.966,13.942,13.942,0,0,1,6.657.383,14.383,14.383,0,0,1-.006,8.37q-.24.846-.565,1.672l-9.47-9.47q.765-.3,1.548-.529a.49.49,0,0,0-.274-.941,20.686,20.686,0,0,0-8.6,5.11L35,6.821a4.849,4.849,0,0,0-5.34,2.53l-5.489,10.74a.49.49,0,0,0,.557.7l6.658-1.7,6.893,6.893-1.753,6.888a.49.49,0,0,0,.7.557l5.919-3.025a.49.49,0,1,0-.446-.873l-4.954,2.532L39.2,26.373a20.106,20.106,0,0,0,10.029-5.015l.315,1.452a3.868,3.868,0,0,1-2.018,4.26l-3.078,1.573a.49.49,0,1,0,.446.873l3.078-1.573A4.849,4.849,0,0,0,50.5,22.6l-.442-2.038a20.683,20.683,0,0,0,5.292-8.877A15.273,15.273,0,0,0,55.26,2.5ZM30.537,9.8A3.868,3.868,0,0,1,34.8,7.779l1.442.312a20.171,20.171,0,0,0-5.13,10.063l-5.567,1.417Zm7.008-1.652A20.321,20.321,0,0,1,43.4,4.037L53.425,14.065a20.311,20.311,0,0,1-4.108,5.851A19.337,19.337,0,0,1,39.081,25.4l-7.018-7.018A19.332,19.332,0,0,1,37.545,8.145Z" transform="translate(-22.544 0)" fill="#fff"/>
      <path id="Path_65093" data-name="Path 65093" d="M6.225,300.694c-2.889.43-5.128,2.858-6.168,4.808a.49.49,0,0,0,.433.721H2.5C1.82,307.7.356,311.158.356,313.506a.49.49,0,0,0,.49.49c2.347,0,5.8-1.464,7.284-2.145v2.012a.49.49,0,0,0,.721.433c1.949-1.04,4.378-3.279,4.808-6.168a6.231,6.231,0,0,0-2.02-5.413A6.231,6.231,0,0,0,6.225,300.694Zm4.709,2.766a1.832,1.832,0,0,1,.337,2.181,3.8,3.8,0,0,1-4.445,1.927,3.8,3.8,0,0,1,1.927-4.445,1.832,1.832,0,0,1,2.181.337Zm1.755,4.523A7.933,7.933,0,0,1,9.11,313v-1.923a.49.49,0,0,0-.709-.438c-.045.022-4.241,2.106-7.04,2.355.249-2.8,2.332-7,2.355-7.04a.49.49,0,0,0-.438-.709H1.354a7.933,7.933,0,0,1,5.015-3.578,4.661,4.661,0,0,1,2.592.344,2.992,2.992,0,0,0-.652.241,4.781,4.781,0,0,0-2.334,5.874.49.49,0,0,0,.3.3,4.781,4.781,0,0,0,5.874-2.334,3,3,0,0,0,.232-.617,4.658,4.658,0,0,1,.311,2.516Z" transform="translate(0 -279.621)" fill="#fff"/>
      <path id="Path_65094" data-name="Path 65094" d="M228.358,118.819a6.191,6.191,0,1,0-4.373,1.808A6.143,6.143,0,0,0,228.358,118.819Zm-9.576-4.372a5.2,5.2,0,1,1,1.524,3.679A5.169,5.169,0,0,1,218.782,114.447Z" transform="translate(-203.568 -99.828)" fill="#fff"/>
      <path id="Path_65095" data-name="Path 65095" d="M257.854,142.6a4.014,4.014,0,1,0,0,5.679A4.02,4.02,0,0,0,257.854,142.6Zm-4.986,4.986a3.035,3.035,0,1,1,4.293,0A3.039,3.039,0,0,1,252.868,147.581Z" transform="translate(-234.596 -130.816)" fill="#fff"/>
    </g>
  </g>
</svg>
