<svg xmlns="http://www.w3.org/2000/svg" width="82" height="82" viewBox="0 0 82 82">
  <g id="Group_57476" data-name="Group 57476" transform="translate(-147 -161)">
    <g id="Group_57318" data-name="Group 57318" transform="translate(1)">
      <circle id="Ellipse_55" data-name="Ellipse 55" cx="41" cy="41" r="41" transform="translate(146 161)" fill="#6b18c3"/>
    </g>
    <g id="email" transform="translate(164.999 159.518)">
      <path id="Path_65096" data-name="Path 65096" d="M263.382,283.356l-5.75-5.759a.958.958,0,0,0-1.637.677V291.7a.958.958,0,0,0,.655.908.944.944,0,0,0,.3.05.958.958,0,0,0,.767-.383l3.744-4.993,2.005-2.674A.958.958,0,0,0,263.382,283.356Z" transform="translate(-232.996 -232.849)"/>
      <path id="Path_65097" data-name="Path 65097" d="M220.329,300.721l-5.75-1.917a.958.958,0,0,0-1.213,1.211l3.833,11.5a.958.958,0,0,0,.91.655h.059a.958.958,0,0,0,.88-.767l1.917-9.583A.958.958,0,0,0,220.329,300.721Z" transform="translate(-194.152 -252.362)" fill="#d9d9d9"/>
      <path id="Path_65098" data-name="Path 65098" d="M123.246,21.693a.958.958,0,0,0-1.029-.044L85.8,42.732a.958.958,0,0,0,.178,1.738l17.211,5.738,13.378,5.734a.958.958,0,0,0,1.32-.715l5.75-32.582A.958.958,0,0,0,123.246,21.693Z" transform="translate(-77.657 -0.035)" fill="#fff"/>
      <g id="Group_57437" data-name="Group 57437" transform="translate(0 21.482)">
        <path id="Path_65099" data-name="Path 65099" d="M242.06,23a.958.958,0,0,0-1.458-1.234L215.611,48.123l7.212,2.492Z" transform="translate(-196.24 -21.482)" fill="#d9d9d9"/>
        <path id="Path_65100" data-name="Path 65100" d="M2.342,387.368a.958.958,0,0,1-.65-.253q-.717-.659-1.411-1.355A.959.959,0,1,1,1.637,384.4q.667.667,1.355,1.3a.958.958,0,0,1-.65,1.664Z" transform="translate(0 -351.542)" fill="#fff"/>
        <path id="Path_65101" data-name="Path 65101" d="M65.844,436.614a13.8,13.8,0,0,1-2.748-.286.958.958,0,0,1,.309-1.892c.025,0,.05.009.074.015a11.9,11.9,0,0,0,2.371.245h.437a.908.908,0,0,1,.995.922.958.958,0,0,1-.922.993h-.5Zm-6.867-1.834a.958.958,0,0,1-.441-.107,25.016,25.016,0,0,1-2.724-1.654.958.958,0,0,1,1.092-1.574,22.738,22.738,0,0,0,2.511,1.533.958.958,0,0,1-.441,1.809Z" transform="translate(-50.447 -394.473)" fill="#fff"/>
        <path id="Path_65102" data-name="Path 65102" d="M216.448,451a.958.958,0,0,1-.383-1.84,13.92,13.92,0,0,0,1.6-.813.958.958,0,0,1,.974,1.65,15.911,15.911,0,0,1-1.825.926A.96.96,0,0,1,216.448,451Z" transform="translate(-196.123 -409.89)" fill="#fff"/>
      </g>
    </g>
  </g>
</svg>
