<svg xmlns="http://www.w3.org/2000/svg" width="82" height="82" viewBox="0 0 82 82">
  <g id="Group_57477" data-name="Group 57477" transform="translate(-147 -161)">
    <g id="Group_57318" data-name="Group 57318" transform="translate(1)">
      <circle id="Ellipse_55" data-name="Ellipse 55" cx="41" cy="41" r="41" transform="translate(146 161)" fill="#6b18c3"/>
    </g>
    <g id="relationship" transform="translate(163.729 178)">
      <g id="Group_57438" data-name="Group 57438" transform="translate(0.271 0)">
        <path id="Path_65103" data-name="Path 65103" d="M85.1,191.111a.7.7,0,0,0-.7.7v1.331a.7.7,0,0,0,1.393,0v-1.331A.7.7,0,0,0,85.1,191.111Z" transform="translate(-76.587 -173.362)" fill="#fff"/>
        <path id="Path_65104" data-name="Path 65104" d="M159.63,193.835a.7.7,0,0,0,.7-.7v-1.331a.7.7,0,0,0-1.393,0v1.331A.7.7,0,0,0,159.63,193.835Z" transform="translate(-144.198 -173.362)" fill="#fff"/>
        <path id="Path_65105" data-name="Path 65105" d="M359.5,238.465a.7.7,0,0,0-.7.7v1.157a.7.7,0,1,0,1.393,0v-1.157A.7.7,0,0,0,359.5,238.465Z" transform="translate(-325.505 -216.318)" fill="#fff"/>
        <path id="Path_65106" data-name="Path 65106" d="M424.317,241.016a.7.7,0,0,0,.7-.7v-1.157a.7.7,0,1,0-1.393,0v1.157A.7.7,0,0,0,424.317,241.016Z" transform="translate(-384.303 -216.318)" fill="#fff"/>
        <path id="Path_65107" data-name="Path 65107" d="M305.943,111.044a.7.7,0,0,0,.7-.7v-1.253a7.742,7.742,0,0,0-1.727-4.893,11.384,11.384,0,0,0-17.358-.325A7.73,7.73,0,0,0,285.637,109V121.8a8.068,8.068,0,0,0,2.407,5.753L288,127.6c-.116.1-.227.213-.336.325a7.149,7.149,0,0,0-2.027,4.994v4.671a.7.7,0,0,0,.7.7h19.506a.7.7,0,0,0,.7-.7v-4.671a7.15,7.15,0,0,0-2.2-5.17c-.049-.048-.1-.1-.148-.142a8.069,8.069,0,0,0,2.456-5.8v-8.232a.7.7,0,1,0-1.393,0V121.8a6.681,6.681,0,0,1-2.2,4.952l-.993-.657q-.153-.1-.3-.209a7.4,7.4,0,0,1-2.046-2.307q-.141-.25-.262-.51a7.812,7.812,0,0,1-.4-1.076,8.07,8.07,0,0,0,5.11-6.706c.018-.184.041-4.364.041-4.364a.7.7,0,0,0-.676-.7c-2.947-.088-5.187-.757-6.309-1.884a7.291,7.291,0,0,1-.531-.592.7.7,0,0,0-1.089,0,7.271,7.271,0,0,1-.531.592c-1.122,1.126-3.362,1.8-6.309,1.884a.7.7,0,0,0-.676.7s.024,4.2.041,4.364a8.06,8.06,0,0,0,5.017,6.667,7.347,7.347,0,0,1-3.021,4.141l-.933.618a6.682,6.682,0,0,1-2.151-4.913V109a6.338,6.338,0,0,1,1.57-4.2,9.991,9.991,0,0,1,15.235.286,6.344,6.344,0,0,1,1.412,4.011v1.253a.7.7,0,0,0,.7.7Zm-2.554,20.1.749-1.485a5.767,5.767,0,0,1,1.005,3.258v3.975h-2.57v-2.318A7.654,7.654,0,0,1,303.389,131.143Zm-13.884-15.986c-.014-.185-.028-1.759-.034-3.145v-.42c2.24-.136,4.983-.66,6.579-2.263l.088-.09.089.09c1.6,1.6,4.339,2.126,6.579,2.263v.841c-.006,1.206-.02,2.553-.034,2.718a6.668,6.668,0,0,1-13.267,0Zm9.123,9.332a2.68,2.68,0,0,1-5.083,0,8.739,8.739,0,0,0,.925-2.126,8.087,8.087,0,0,0,3.24.023A8.744,8.744,0,0,0,298.628,124.489Zm-9.279,3.8c.088-.065.177-.129.269-.19l1.266-.838a8.77,8.77,0,0,0,1.75-1.527,4,4,0,0,0,6.906,0l0,0c.026.03.053.058.08.087a8.763,8.763,0,0,0,1.668,1.438l1.265.838a3.925,3.925,0,0,1,.585.444l-1,1.973a9.051,9.051,0,0,0-.966,4.058v2.318H290.994v-2.317a9.055,9.055,0,0,0-.966-4.059l-1-1.972c.1-.089.209-.173.317-.254Zm.251,6.286v2.317H287.03v-3.975a5.767,5.767,0,0,1,1-3.258l.749,1.484A7.654,7.654,0,0,1,289.6,134.575Z" transform="translate(-259.135 -90.729)" fill="#fff"/>
        <path id="Path_65108" data-name="Path 65108" d="M228.418,10.336c.375-.287.767-.564,1.182-.857A12.236,12.236,0,0,0,233.458,5.8a4.808,4.808,0,0,0,.615-1.752,3.675,3.675,0,0,0-.9-2.853,3.346,3.346,0,0,0-5.175.058,3.346,3.346,0,0,0-5.176-.058,3.675,3.675,0,0,0-.9,2.853,4.806,4.806,0,0,0,.615,1.752,12.084,12.084,0,0,0,3.011,3.077c1.092.855,2.035,1.464,2.074,1.49a.7.7,0,0,0,.8-.033ZM223.741,5.11a3.424,3.424,0,0,1-.443-1.244,2.265,2.265,0,0,1,.57-1.752,1.985,1.985,0,0,1,1.492-.721,2.006,2.006,0,0,1,1.933,1.475l.027.107a.7.7,0,0,0,.676.527h0a.7.7,0,0,0,.675-.528l.027-.106a2.006,2.006,0,0,1,1.933-1.475,1.985,1.985,0,0,1,1.492.721,2.265,2.265,0,0,1,.57,1.752,3.431,3.431,0,0,1-.443,1.243A11.217,11.217,0,0,1,228.8,8.341c-.273.193-.551.39-.825.59-1.211-.825-3.5-2.548-4.23-3.822Z" transform="translate(-201.306 0)" fill="#fff"/>
        <path id="Path_65109" data-name="Path 65109" d="M22.4,90.013l-4.583-3.035A5.968,5.968,0,0,1,16.4,85.659l-.02-.026a5.94,5.94,0,0,1-1.152-2.662,9.182,9.182,0,0,0,5.716-5.8h.125A3,3,0,0,0,21.4,71.2c0-1.154.007-2.334.009-3.212A6.7,6.7,0,0,0,22.78,66.93l.022-.023c.507-.551,1.154-1.166,1.025-2a1.58,1.58,0,0,0-.78-1.135,26.25,26.25,0,0,1-2.911-1.888c-1.854-1.456-4.076-2.96-7.005-2.373a5.232,5.232,0,0,0-2.693,1.47A.346.346,0,0,1,9.969,61c-.158-.135-.422-.36-.463-.4a4.021,4.021,0,0,0-2.631-1.072,3.767,3.767,0,0,0-2.384.816A3.825,3.825,0,0,0,3.078,63.3s.006,4.431.018,7.893a3,3,0,0,0,.318,5.977h.124a9.161,9.161,0,0,0,5.6,5.754,5.942,5.942,0,0,1-1.168,2.72l0,0a5.968,5.968,0,0,1-1.427,1.327l-4.6,3.046A3.727,3.727,0,0,0,.271,93.138v1.34a.7.7,0,1,0,1.393,0v-1.34a2.337,2.337,0,0,1,1.049-1.953l4.6-3.046a7.379,7.379,0,0,0,1.42-1.226,9.231,9.231,0,0,0,6.9,0,7.374,7.374,0,0,0,1.42,1.226l4.583,3.035A2.373,2.373,0,0,1,22.7,93.158v6.872H19.113v-6.6a.7.7,0,1,0-1.393,0v6.6H6.644v-6.6a.7.7,0,1,0-1.393,0v6.6H1.664V97.7a.7.7,0,1,0-1.393,0v3.023a.7.7,0,0,0,.7.7H23.4a.7.7,0,0,0,.7-.7V93.158A3.763,3.763,0,0,0,22.4,90.013ZM1.81,74.175A1.606,1.606,0,0,1,3.1,72.6c.006,1.465.014,2.535.023,2.625.018.179.043.357.071.534A1.605,1.605,0,0,1,1.81,74.175Zm20.864,0a1.605,1.605,0,0,1-1.386,1.587c.029-.177.054-.355.072-.534.013-.128.022-1.239.03-2.625A1.607,1.607,0,0,1,22.674,74.175ZM4.471,63.3a2.42,2.42,0,0,1,.894-1.867,2.34,2.34,0,0,1,1.5-.508,2.629,2.629,0,0,1,1.694.7c.047.044.174.153.511.44a1.745,1.745,0,0,0,2.364-.1A3.792,3.792,0,0,1,13.4,60.879c2.119-.424,3.817.49,5.871,2.1a27.6,27.6,0,0,0,3.079,2,.192.192,0,0,1,.1.139.194.194,0,0,1-.05.164l-.613.666c-1.279,1.263-2.987,1.773-5.373,1.606a13.344,13.344,0,0,1-6.008-1.881l-.031-.03a.7.7,0,0,0-.945,0,8.466,8.466,0,0,1-4.96,1.869V63.3ZM7.013,80.052a7.748,7.748,0,0,1-2.5-4.964c-.026-.259-.039-.524-.039-.785V68.915a10.176,10.176,0,0,0,5.49-1.892,15.454,15.454,0,0,0,6.356,1.925q.475.033.925.033a9.233,9.233,0,0,0,2.768-.388c-.007,2.759-.021,6.2-.038,6.5A7.771,7.771,0,0,1,7.013,80.052Zm2.574,5.694a7.33,7.33,0,0,0,.906-2.448,9.218,9.218,0,0,0,3.384.024,7.337,7.337,0,0,0,.9,2.423A7.843,7.843,0,0,1,9.587,85.746Z" transform="translate(-0.271 -53.868)" fill="#fff"/>
      </g>
    </g>
  </g>
</svg>
