<svg xmlns="http://www.w3.org/2000/svg" width="82" height="82" viewBox="0 0 82 82">
  <g id="Group_57478" data-name="Group 57478" transform="translate(-147 -161)">
    <g id="Group_57318" data-name="Group 57318" transform="translate(1)">
      <circle id="Ellipse_55" data-name="Ellipse 55" cx="41" cy="41" r="41" transform="translate(146 161)" fill="#6b18c3"/>
    </g>
    <g id="swipe" transform="translate(166 176.101)">
      <path id="Path_65110" data-name="Path 65110" d="M249.08,155.246a2.7,2.7,0,0,0-1.662.571,2.709,2.709,0,0,0-3.831-1.145v-8.9a2.71,2.71,0,1,0-5.42,0v.045a2.709,2.709,0,0,0-4.1,2.325v4.611a.659.659,0,0,0,1.318,0v-4.611a1.392,1.392,0,1,1,2.783,0v10.486a.659.659,0,1,0,1.318,0V145.771a1.392,1.392,0,1,1,2.783,0v12.856a.659.659,0,1,0,1.318,0V157h0a1.392,1.392,0,0,1,2.783,0v1.631a.659.659,0,1,0,1.318,0v-.671a1.392,1.392,0,1,1,2.783,0v10.509a5.367,5.367,0,0,1-5.361,5.361H240a5.4,5.4,0,0,1-5.045-3.548,13.721,13.721,0,0,0-3.16-4.949l-3.339-3.339a1.437,1.437,0,0,1,0-2.033l.038-.037a2.534,2.534,0,0,1,3.576,0l1.994,1.994v2.359a.659.659,0,0,0,1.318,0v-8.533a.659.659,0,0,0-1.318,0v4.31L233,158.988a3.854,3.854,0,0,0-5.44,0l-.038.037a2.755,2.755,0,0,0,0,3.9l3.339,3.339a12.224,12.224,0,0,1,2.854,4.471A6.726,6.726,0,0,0,240,175.144h5.11a6.687,6.687,0,0,0,6.68-6.68V157.956A2.713,2.713,0,0,0,249.08,155.246Z" transform="translate(-206.79 -126.931)" fill="#fff"/>
      <path id="Path_65111" data-name="Path 65111" d="M7.784,19.464a1.379,1.379,0,0,0,.978-.4l1.514-1.514a1.384,1.384,0,0,0,0-1.957L8.823,14.136H34.7a1.384,1.384,0,0,0,1.384-1.384V10.612A1.385,1.385,0,0,0,34.7,9.228H29.473a.659.659,0,0,0,0,1.318H34.7a.065.065,0,0,1,.065.065v2.142a.065.065,0,0,1-.065.065H7.5L6.368,11.681,7.5,10.545H26.484a.659.659,0,0,0,0-1.318H8.823l1.453-1.453a1.385,1.385,0,0,0,0-1.957L8.762,4.3A1.385,1.385,0,0,0,6.8,4.3L.4,10.7a1.385,1.385,0,0,0,0,1.957l6.4,6.4a1.381,1.381,0,0,0,.978.4Zm1.56-2.943a.066.066,0,0,1,0,.092L7.83,18.128a.066.066,0,0,1-.092,0L3.83,14.22l1.606-1.606ZM1.337,11.636l6.4-6.4a.065.065,0,0,1,.092,0L9.343,6.75a.065.065,0,0,1,0,.092L2.9,13.288l-1.56-1.56A.065.065,0,0,1,1.337,11.636Z" fill="#fff"/>
      <path id="Path_65112" data-name="Path 65112" d="M91.337,148.5h8.077a1.384,1.384,0,0,0,1.384-1.384v-2.142a1.385,1.385,0,0,0-1.384-1.384H91.337l1.453-1.453a1.385,1.385,0,0,0,0-1.957l-1.514-1.514a1.384,1.384,0,0,0-1.957,0l-2.583,2.583a.659.659,0,0,0,.932.932l2.583-2.583a.066.066,0,0,1,.092,0l1.514,1.514a.065.065,0,0,1,0,.092l-6.446,6.446-1.56-1.56a.065.065,0,0,1,0-.092l1.7-1.7a.659.659,0,0,0-.932-.932l-1.7,1.7a1.385,1.385,0,0,0,0,1.957l6.4,6.4a1.386,1.386,0,0,0,1.956,0l1.514-1.514a1.384,1.384,0,0,0,0-1.957Zm8.077-3.59a.065.065,0,0,1,.065.065v2.142a.065.065,0,0,1-.065.065H90.019l-1.136-1.136,1.136-1.136Zm-7.555,6.067-1.514,1.514a.066.066,0,0,1-.092,0l-3.908-3.908,1.606-1.606,3.908,3.908a.066.066,0,0,1,0,.092Z" transform="translate(-75.262 -122.55)" fill="#fff"/>
    </g>
  </g>
</svg>
