<svg xmlns="http://www.w3.org/2000/svg" width="82" height="82" viewBox="0 0 82 82">
  <g id="Group_57479" data-name="Group 57479" transform="translate(-147 -161)">
    <g id="Group_57318" data-name="Group 57318" transform="translate(1)">
      <circle id="Ellipse_55" data-name="Ellipse 55" cx="41" cy="41" r="41" transform="translate(146 161)" fill="#6b18c3"/>
    </g>
    <g id="filter" transform="translate(-227 -57)">
      <path id="Path_65113" data-name="Path 65113" d="M405.626,274a4,4,0,0,1,7.748,0H435a1,1,0,0,1,.406.086,1.014,1.014,0,0,1,.318.224,1,1,0,0,1-.718,1.69H413.374a4,4,0,0,1-7.748,0H395a.986.986,0,0,1-.344-.061A1,1,0,0,1,395,274Zm3.874-1a2,2,0,1,1-2,2A2,2,0,0,1,409.5,273Zm12.126-15a4,4,0,0,1,7.748,0H435a1,1,0,0,1,.406.086,1.014,1.014,0,0,1,.318.224,1,1,0,0,1-.718,1.69h-5.632a4,4,0,0,1-7.748,0H395a1,1,0,0,1-.406-.086,1.014,1.014,0,0,1-.318-.224,1,1,0,0,1,.38-1.629A.986.986,0,0,1,395,258Zm3.874-1a2,2,0,1,1-2,2A2,2,0,0,1,425.5,257Zm-26.374-15a4,4,0,0,1,7.748,0H435a1,1,0,0,1,.406.086,1.014,1.014,0,0,1,.318.224,1,1,0,0,1-.718,1.69H406.874a4,4,0,0,1-7.748,0H395a.986.986,0,0,1-.344-.061A1,1,0,0,1,395,242ZM403,241a2,2,0,1,1-2,2A2,2,0,0,1,403,241Z" fill="#fff" fill-rule="evenodd"/>
    </g>
  </g>
</svg>
