<svg xmlns="http://www.w3.org/2000/svg" width="82" height="82" viewBox="0 0 82 82">
  <g id="Group_57481" data-name="Group 57481" transform="translate(-147 -161)">
    <g id="Group_57318" data-name="Group 57318" transform="translate(1)">
      <circle id="Ellipse_55" data-name="Ellipse 55" cx="41" cy="41" r="41" transform="translate(146 161)" fill="#6b18c3"/>
    </g>
    <g id="attention" transform="translate(166 165.997)">
      <path id="Path_65121" data-name="Path 65121" d="M15.924,210.591H12.791a6.226,6.226,0,0,1,.011-.787c1.959-1.631,2.912-3.067,2.912-4.387,0-.143-.006-.284-.018-.425-.041-.419-.056-1.831-.036-3.247a3.155,3.155,0,0,0,.542-5.295,2.115,2.115,0,0,0-1.97-2.877q-.1,0-.2.009a2.515,2.515,0,0,0-3.756-.716,2.513,2.513,0,0,0-3.471.316,2.384,2.384,0,0,0-2.663,3.454,3.154,3.154,0,0,0,.755,5.109c.02,1.417.005,2.831-.036,3.257-.011.131-.017.271-.017.415,0,1.32.953,2.757,2.912,4.387a6.2,6.2,0,0,1,.011.788H4.639A4.646,4.646,0,0,0,0,215.234a.649.649,0,0,0,.3.548,18.65,18.65,0,0,0,3.276,1.648.649.649,0,1,0,.466-1.211,17.351,17.351,0,0,1-2.728-1.336,3.348,3.348,0,0,1,3.323-2.995H7.8a2.569,2.569,0,0,0,4.972,0h3.156a3.348,3.348,0,0,1,3.323,2.995,17.323,17.323,0,0,1-8.965,2.489,17.508,17.508,0,0,1-3.531-.359.649.649,0,0,0-.262,1.271,18.813,18.813,0,0,0,3.793.386,18.615,18.615,0,0,0,9.979-2.888.649.649,0,0,0,.3-.548,4.646,4.646,0,0,0-4.639-4.643ZM5.38,197.321a.649.649,0,0,0,.117-1.032,1.087,1.087,0,0,1,1.254-1.752.649.649,0,0,0,.881-.271,1.214,1.214,0,0,1,2.1-.1.649.649,0,0,0,.545.3h.011a.649.649,0,0,0,.545-.3,1.216,1.216,0,0,1,2.2.341.649.649,0,0,0,.883.426.807.807,0,0,1,.321-.066.817.817,0,0,1,.608,1.36.649.649,0,0,0,.2,1.017,1.857,1.857,0,1,1-2.529,2.346.649.649,0,0,0-1-.285,2.058,2.058,0,0,1-2.477,0,.649.649,0,0,0-1,.285,1.856,1.856,0,1,1-2.666-2.272Zm4.9,15.193a1.274,1.274,0,0,1-1.271-1.233,7.5,7.5,0,0,0,.013-1.884.649.649,0,0,0-.236-.427c-2.183-1.768-2.642-2.907-2.642-3.551,0-.107,0-.209.012-.3.048-.487.059-1.816.046-3.043l.111,0A3.175,3.175,0,0,0,8.9,200.725a3.371,3.371,0,0,0,2.758,0,3.176,3.176,0,0,0,2.588,1.355l.111,0c-.012,1.225,0,2.552.045,3.033.008.1.013.2.013.307,0,.644-.458,1.783-2.642,3.552a.649.649,0,0,0-.236.427,7.5,7.5,0,0,0,.013,1.884,1.274,1.274,0,0,1-1.271,1.233Z" transform="translate(0 -161.973)" fill="#fff"/>
      <path id="Path_65122" data-name="Path 65122" d="M293.376,211.839c-.515-1.25-.955-7.673-1.113-13.245a5.691,5.691,0,0,0-1.6-4.2,9.972,9.972,0,0,0-12.187,0,5.69,5.69,0,0,0-1.6,4.2c-.158,5.572-.6,11.994-1.113,13.245a4.633,4.633,0,0,0-1.478,3.4.649.649,0,0,0,.3.548,18.615,18.615,0,0,0,9.979,2.888,18.813,18.813,0,0,0,3.793-.386.649.649,0,0,0-.262-1.271,17.508,17.508,0,0,1-3.531.359,17.323,17.323,0,0,1-8.965-2.489,3.348,3.348,0,0,1,3.323-2.995h3.156a2.569,2.569,0,0,0,4.973,0h3.156a3.348,3.348,0,0,1,3.323,2.995,17.347,17.347,0,0,1-2.728,1.336.649.649,0,1,0,.466,1.211,18.649,18.649,0,0,0,3.276-1.648.649.649,0,0,0,.3-.548A4.633,4.633,0,0,0,293.376,211.839Zm-8.8.675a1.273,1.273,0,0,1-1.271-1.233,7.5,7.5,0,0,0,.013-1.885.649.649,0,0,0-.236-.427c-2.183-1.768-2.642-2.907-2.642-3.551,0-.107,0-.209.012-.3.048-.491.059-1.833.046-3.065h3.948a2.583,2.583,0,0,0,1.941-.878,2.583,2.583,0,0,0,1.941.878h.326c-.013,1.231,0,2.571.045,3.054.008.1.013.2.013.307,0,.644-.458,1.783-2.642,3.552a.649.649,0,0,0-.236.427,7.5,7.5,0,0,0,.013,1.884A1.274,1.274,0,0,1,284.572,212.514Zm2.51-1.922a6.234,6.234,0,0,1,.011-.787c1.959-1.631,2.912-3.067,2.912-4.387,0-.143-.006-.284-.018-.425-.044-.451-.058-2.054-.03-3.573h0s0-.008,0-.012a.649.649,0,0,0-.649-.649h-.984a1.3,1.3,0,0,1-1.292-1.294.649.649,0,1,0-1.3,0,1.294,1.294,0,0,1-1.292,1.294h-4.606a.649.649,0,0,0-.649.649s0,.008,0,.012h0c.028,1.52.014,3.124-.031,3.582-.012.131-.017.271-.017.416,0,1.32.953,2.757,2.912,4.387a6.214,6.214,0,0,1,.011.788H278.93a4.614,4.614,0,0,0-1.616.291,120.774,120.774,0,0,0,.865-12.262c0-.007,0-.015,0-.022a4.444,4.444,0,0,1,1.22-3.291,8.74,8.74,0,0,1,10.347,0,4.445,4.445,0,0,1,1.22,3.291q0,.011,0,.022c0,.03.087,3.035.281,6.206.19,3.1.39,4.936.577,6.053a4.613,4.613,0,0,0-1.609-.288h-3.133Z" transform="translate(-250.564 -161.973)" fill="#fff"/>
      <path id="Path_65123" data-name="Path 65123" d="M216.151,285.029a.649.649,0,0,0-.76-.513,11.334,11.334,0,0,1-5.37-.26.649.649,0,0,0-.37,1.244,12.633,12.633,0,0,0,5.988.291A.649.649,0,0,0,216.151,285.029Z" transform="translate(-191.091 -245.936)" fill="#fff"/>
      <path id="Path_65124" data-name="Path 65124" d="M155.795,19.324a11.243,11.243,0,0,1,18.914,8.219c0,.279-.01.562-.031.84a.649.649,0,0,0,.6.695l.048,0a.649.649,0,0,0,.646-.6c.023-.31.034-.625.034-.936a12.54,12.54,0,0,0-21.1-9.167.649.649,0,0,0,.885.949Z" transform="translate(-141.321)" fill="#fff"/>
      <path id="Path_65125" data-name="Path 65125" d="M111.747,84.816a.66.66,0,0,0,.069,0,.649.649,0,0,0,.577-.713,11.425,11.425,0,0,1-.062-1.192,11.185,11.185,0,0,1,1.92-6.285.649.649,0,0,0-1.075-.726,12.478,12.478,0,0,0-2.142,7.012,12.745,12.745,0,0,0,.07,1.328A.649.649,0,0,0,111.747,84.816Z" transform="translate(-101.428 -55.364)" fill="#fff"/>
      <path id="Path_65126" data-name="Path 65126" d="M234.833,212.171a1.946,1.946,0,1,0,1.947,1.946A1.949,1.949,0,0,0,234.833,212.171Zm0,2.6a.649.649,0,1,1,.649-.649A.65.65,0,0,1,234.833,214.766Z" transform="translate(-212.741 -180.112)" fill="#fff"/>
      <path id="Path_65127" data-name="Path 65127" d="M236.78,59.414a1.946,1.946,0,0,0-3.893,0v8.238a1.946,1.946,0,0,0,3.893,0Zm-1.3,8.238a.649.649,0,0,1-1.3,0V59.414a.649.649,0,0,1,1.3,0Z" transform="translate(-212.741 -38.792)" fill="#fff"/>
    </g>
  </g>
</svg>
