<svg xmlns="http://www.w3.org/2000/svg" width="31" height="31" viewBox="0 0 31 31">
  <g id="Group_57421" data-name="Group 57421" transform="translate(-274 -669)">
    <path id="Path_64813" data-name="Path 64813" d="M15.5,0A15.5,15.5,0,1,1,0,15.5,15.5,15.5,0,0,1,15.5,0Z" transform="translate(274 669)" fill="#b560ff"/>
    <path id="Path_11" data-name="Path 11" d="M289,566.25a.75.75,0,0,0,0,1.5Zm12.53,1.28a.749.749,0,0,0,0-1.06l-4.773-4.773a.75.75,0,0,0-1.06,1.06L299.939,567l-4.242,4.243a.75.75,0,0,0,1.06,1.06Zm-12.53.22h12v-1.5H289Z" transform="translate(856.5 389.5) rotate(90)" fill="#fff"/>
  </g>
</svg>
