<svg xmlns="http://www.w3.org/2000/svg" width="16.557" height="16.581" viewBox="0 0 16.557 16.581">
  <g id="QR_13" transform="translate(0.75 0.75)">
    <rect id="Rectangle_57" data-name="Rectangle 57" width="3.691" height="3.691" rx="1.845" transform="translate(2.731 2.879)" fill="none" stroke="#8d8d8d" stroke-linecap="round" stroke-linejoin="round" stroke-width="1.5"/>
    <rect id="Rectangle_58" data-name="Rectangle 58" width="3.691" height="3.691" rx="1.845" transform="translate(8.522 2.879)" fill="none" stroke="#8d8d8d" stroke-linecap="round" stroke-linejoin="round" stroke-width="1.5"/>
    <rect id="Rectangle_59" data-name="Rectangle 59" width="3.691" height="3.691" rx="1.845" transform="translate(2.731 8.626)" fill="none" stroke="#8d8d8d" stroke-linecap="round" stroke-linejoin="round" stroke-width="1.5"/>
    <rect id="Rectangle_60" data-name="Rectangle 60" width="3.691" height="3.691" rx="1.845" transform="translate(8.522 8.626)" fill="none" stroke="#8d8d8d" stroke-linecap="round" stroke-linejoin="round" stroke-width="1.5"/>
    <path id="Path_194" data-name="Path 194" d="M1309.384,1124.744h.747a4,4,0,0,1,3.753,4.2v.755" transform="translate(-1298.828 -1124.744)" fill="none" stroke="#8d8d8d" stroke-linecap="round" stroke-width="1.5"/>
    <path id="Path_195" data-name="Path 195" d="M1313.842,1124.744h-.747a4,4,0,0,0-3.753,4.2v.755" transform="translate(-1309.342 -1124.744)" fill="none" stroke="#8d8d8d" stroke-linecap="round" stroke-width="1.5"/>
    <path id="Path_196" data-name="Path 196" d="M1309.384,1129.694h.747a4,4,0,0,0,3.753-4.2v-.755" transform="translate(-1298.828 -1114.613)" fill="none" stroke="#8d8d8d" stroke-linecap="round" stroke-width="1.5"/>
    <path id="Path_197" data-name="Path 197" d="M1313.842,1129.694h-.747a4,4,0,0,1-3.753-4.2v-.755" transform="translate(-1309.342 -1114.613)" fill="none" stroke="#8d8d8d" stroke-linecap="round" stroke-width="1.5"/>
  </g>
</svg>
