<svg id="conversation" xmlns="http://www.w3.org/2000/svg" width="187.15" height="187.15" viewBox="0 0 187.15 187.15">
  <g id="Group_57359" data-name="Group 57359" transform="translate(0 63.602)">
    <g id="Group_57358" data-name="Group 57358">
      <path id="Path_64998" data-name="Path 64998" d="M126.473,227a3.655,3.655,0,0,0-3.655,3.655v25.221a18.3,18.3,0,0,1-18.276,18.276H65.076a3.655,3.655,0,0,0-3.655,3.653l-.005,7.267-8.724-8.724a3.656,3.656,0,0,0-3.352-2.2H25.587A18.3,18.3,0,0,1,7.311,255.878V199.587a18.3,18.3,0,0,1,18.276-18.276H62.505a3.655,3.655,0,1,0,0-7.311H25.587A25.616,25.616,0,0,0,0,199.587v56.291a25.616,25.616,0,0,0,25.587,25.587h21.88l15.013,15.013a3.655,3.655,0,0,0,6.24-2.582l.009-12.43h35.813a25.616,25.616,0,0,0,25.587-25.587V230.657A3.655,3.655,0,0,0,126.473,227Z" transform="translate(0 -174)" fill="#6b00c3"/>
    </g>
  </g>
  <g id="Group_57361" data-name="Group 57361" transform="translate(71.643)">
    <g id="Group_57360" data-name="Group 57360">
      <path id="Path_64999" data-name="Path 64999" d="M258.379,0h-9.251a53.128,53.128,0,0,0,0,106.256h9.251a53.229,53.229,0,0,0,13.484-1.729l13.666,13.658a3.655,3.655,0,0,0,6.239-2.585V94.452a53.636,53.636,0,0,0,13.965-17.217,52.555,52.555,0,0,0,5.773-24.107A53.188,53.188,0,0,0,258.379,0Zm27.534,89.75a3.656,3.656,0,0,0-1.456,2.92v14.109l-8.945-8.94a3.653,3.653,0,0,0-3.657-.908,45.83,45.83,0,0,1-13.476,2.015h-9.251a45.817,45.817,0,1,1,0-91.635h9.251A45.818,45.818,0,0,1,285.914,89.75Z" transform="translate(-196 0)" fill="#6b00c3"/>
    </g>
  </g>
  <g id="Group_57363" data-name="Group 57363" transform="translate(114.945 25.61)">
    <g id="Group_57362" data-name="Group 57362">
      <path id="Path_65000" data-name="Path 65000" d="M345.375,84.45A15.511,15.511,0,0,0,331.026,70.1a15.356,15.356,0,0,0-11.647,4.124,15.531,15.531,0,0,0-4.917,11.315,3.655,3.655,0,0,0,7.311,0,8.166,8.166,0,0,1,8.751-8.144,8.166,8.166,0,0,1,1.208,16.112,6.917,6.917,0,0,0-5.449,6.78v8.782a3.655,3.655,0,1,0,7.31,0v-8.49A15.4,15.4,0,0,0,345.375,84.45Z" transform="translate(-314.462 -70.063)" fill="#6b00c3"/>
    </g>
  </g>
  <g id="Group_57365" data-name="Group 57365" transform="translate(126.765 75.419)">
    <g id="Group_57364" data-name="Group 57364">
      <path id="Path_65001" data-name="Path 65001" d="M353.04,207.4a3.658,3.658,0,1,0,1.071,2.584A3.683,3.683,0,0,0,353.04,207.4Z" transform="translate(-346.8 -206.33)" fill="#6b00c3"/>
    </g>
  </g>
  <g id="Group_57367" data-name="Group 57367" transform="translate(19.738 113.314)">
    <g id="Group_57366" data-name="Group 57366">
      <path id="Path_65002" data-name="Path 65002" d="M134.782,310H57.655a3.655,3.655,0,0,0,0,7.311h77.126a3.655,3.655,0,1,0,0-7.311Z" transform="translate(-54 -310)" fill="#6b00c3"/>
    </g>
  </g>
  <g id="Group_57369" data-name="Group 57369" transform="translate(96.865 133.783)">
    <g id="Group_57368" data-name="Group 57368">
      <path id="Path_65003" data-name="Path 65003" d="M271.239,367.071a3.652,3.652,0,1,0,1.071,2.584A3.681,3.681,0,0,0,271.239,367.071Z" transform="translate(-265 -366)" fill="#6b00c3"/>
    </g>
  </g>
  <g id="Group_57371" data-name="Group 57371" transform="translate(19.738 133.783)">
    <g id="Group_57370" data-name="Group 57370">
      <path id="Path_65004" data-name="Path 65004" d="M120.4,366H57.655a3.655,3.655,0,0,0,0,7.311H120.4a3.655,3.655,0,1,0,0-7.311Z" transform="translate(-54 -366)" fill="#6b00c3"/>
    </g>
  </g>
  <g id="Group_57373" data-name="Group 57373" transform="translate(19.738 92.844)">
    <g id="Group_57372" data-name="Group 57372">
      <path id="Path_65005" data-name="Path 65005" d="M111.022,254H57.655a3.655,3.655,0,0,0,0,7.311h53.367a3.655,3.655,0,0,0,0-7.311Z" transform="translate(-54 -254)" fill="#6b00c3"/>
    </g>
  </g>
</svg>
