<svg xmlns="http://www.w3.org/2000/svg" width="38" height="38" viewBox="0 0 38 38">
  <g id="Group_57423" data-name="Group 57423" transform="translate(-18 -514)">
    <circle id="Ellipse_141" data-name="Ellipse 141" cx="19" cy="19" r="19" transform="translate(18 514)" fill="#8523be"/>
    <path id="quiz" d="M5.219,17.149H2.485a.335.335,0,0,0-.355.355v2.734a.335.335,0,0,0,.355.355H5.219a.335.335,0,0,0,.355-.355V17.5A.382.382,0,0,0,5.219,17.149Zm-.355,2.734H2.84V17.859H4.864Zm.355-8.414H2.485a.335.335,0,0,0-.355.355v2.734a.335.335,0,0,0,.355.355H5.219a.335.335,0,0,0,.355-.355V11.823A.356.356,0,0,0,5.219,11.468ZM4.864,14.2H2.84V12.178H4.864Zm.355-8.45H2.485a.335.335,0,0,0-.355.355V8.841a.335.335,0,0,0,.355.355H5.219a.335.335,0,0,0,.355-.355V6.107A.382.382,0,0,0,5.219,5.752ZM4.864,8.485H2.84V6.462H4.864Zm2.13-1.953a.335.335,0,0,0,.355.355h3.905a.355.355,0,0,0,0-.71H7.349A.356.356,0,0,0,6.994,6.533Zm0,1.882a.335.335,0,0,0,.355.355h7.527a.355.355,0,1,0,0-.71H7.349A.335.335,0,0,0,6.994,8.414Zm4.26,3.479H7.349a.355.355,0,1,0,0,.71h3.905a.335.335,0,0,0,.355-.355A.356.356,0,0,0,11.255,11.894ZM7.349,18.285h3.905a.355.355,0,0,0,0-.71H7.349a.355.355,0,0,0,0,.71ZM2.485,3.586H8.272a.335.335,0,0,0,.355-.355.335.335,0,0,0-.355-.355H2.485a.335.335,0,0,0-.355.355.335.335,0,0,0,.355.355ZM22.4,7.953l-1.42-1.136a.8.8,0,0,0-1.136.142l-2.485,3.16V4.58a.322.322,0,0,0-.107-.249L13.03.107A.384.384,0,0,0,12.781,0H1.775A1.758,1.758,0,0,0,0,1.775V20.947a1.758,1.758,0,0,0,1.775,1.775H15.586a1.758,1.758,0,0,0,1.775-1.775V15.693l5.184-6.6a.929.929,0,0,0,.178-.6.716.716,0,0,0-.32-.533ZM13.137,1.207l3.018,3.018H13.492a.335.335,0,0,1-.355-.355Zm3.515,19.74a1.046,1.046,0,0,1-1.065,1.065H1.775A1.046,1.046,0,0,1,.71,20.947V1.775A1.046,1.046,0,0,1,1.775.71H12.426V3.87a1.046,1.046,0,0,0,1.065,1.065h3.16v6.071L14.486,13.74H7.349a.355.355,0,0,0,0,.71h6.6l-1.349,1.7c-.036.036-.036.071-.071.107l-.888,3.16h-4.3a.355.355,0,0,0,0,.71h7.527a.355.355,0,1,0,0-.71h-1.6l1.882-1.065c.036-.036.071-.036.071-.071l1.349-1.7Zm-3.586-3.941,1.314,1.03L12.5,19.1Zm1.882.568-1.6-1.243,4.935-6.249c.036.036,1.7,1.349,1.6,1.243Zm5.4-6.817-1.6-1.243.391-.5,1.6,1.243Zm1.633-2.095L21.16,9.728l-1.6-1.243.817-1.065a.108.108,0,0,1,.142,0l1.42,1.136c.071-.036.071,0,.071.036s0,.036-.036.071Z" transform="translate(27 521)" fill="#f3f3f3"/>
  </g>
</svg>
