<svg id="Group_57599" data-name="Group 57599" xmlns="http://www.w3.org/2000/svg" width="282" height="197.179" viewBox="0 0 282 197.179">
  <rect id="Rectangle_6720" data-name="Rectangle 6720" width="282" height="0.86" transform="translate(0 186.715)" fill="#3f3d56"/>
  <g id="Group_57598" data-name="Group 57598" transform="translate(70.164 0)">
    <path id="Path_65503" data-name="Path 65503" d="M295.944,174.23a33.072,33.072,0,0,0-32.612-27.585H196.289a33.052,33.052,0,0,0-33.071,33.071V238.13A33.045,33.045,0,0,0,196.289,271.2h67.043A33.052,33.052,0,0,0,296.4,238.13V179.715a33.134,33.134,0,0,0-.455-5.486Zm-26.939,95.557a32.36,32.36,0,0,1-5.674.5H196.289a32.129,32.129,0,0,1-32.157-32.157V218.74c0-54.788,44.412-71.182,99.2-71.182a32.157,32.157,0,0,1,32.157,32.157V238.13c-43.113,5.769-11.43,28.98-26.483,31.657Z" transform="translate(-163.219 -83.605)" fill="#3f3d56"/>
    <path id="Path_65504" data-name="Path 65504" d="M349.162,238.6l2.579,16.765,37.829-5.159-3.654-19.588Z" transform="translate(-269.229 -131.481)" fill="#6c63ff"/>
    <rect id="Rectangle_6721" data-name="Rectangle 6721" width="15.641" height="16.19" transform="translate(93.981 13.043)" fill="#2f2e41"/>
    <path id="Path_65505" data-name="Path 65505" d="M385.162,54.793l3.869-11.607h7.541l.4,11.607Z" transform="translate(-289.753 -24.622)" fill="#ffb6b6"/>
    <path id="Path_65506" data-name="Path 65506" d="M385.162,54.793l3.869-11.607h7.541l.4,11.607Z" transform="translate(-289.753 -24.622)" opacity="0.1"/>
    <path id="Path_65507" data-name="Path 65507" d="M393.522,308.222l-.43,44.707-.43,3.439v4.937l6.448.652.43-9.887s6.878-19.345,5.159-34.39-.86-10.747-.86-10.747Z" transform="translate(-294.029 -174.665)" fill="#ffb6b6"/>
    <path id="Path_65508" data-name="Path 65508" d="M371.356,311.664l-15.863,41.8-.851,3.36-1.8,4.6-6.243-1.739,3.2-9.366s.63-20.521,7.705-33.911,4.71-9.7,4.71-9.7Z" transform="translate(-267.77 -174.596)" fill="#ffb6b6"/>
    <path id="Path_65509" data-name="Path 65509" d="M367.737,65.191,356.13,70.35l7.411,38.264-1.171,54.919-7.738,16.335s-1.3,9.342,12.03,3.324,28.372-7.738,28.372-7.738l-3.654-25.148-3.224-65.986.43-14.616-9.457-6.018Z" transform="translate(-272.328 -36.309)" fill="#2f2e41"/>
    <path id="Path_65510" data-name="Path 65510" d="M353.042,182.349l-12.88-21.561L354.881,110.5,347.9,72.233l12.247-5.243s6.34,6.174,6.34,11.267-13.445,104.093-13.445,104.093Z" transform="translate(-264.098 -38.192)" fill="#e6e6e6"/>
    <path id="Path_65511" data-name="Path 65511" d="M419.559,178.05,407.868,77.619a6.724,6.724,0,0,1,.624-3.7l3.346-6.927,13.111,3.739-5.271,41.059,14.083,40.4Z" transform="translate(-302.673 -38.192)" fill="#e6e6e6"/>
    <path id="Path_65512" data-name="Path 65512" d="M396.523,429.815s-8.168-4.729-9.027-2.149a43.976,43.976,0,0,0-1.29,4.729s-2.149,8.168,4.3,8.168,6.018-3.715,6.018-3.715Z" transform="translate(-290.152 -243.383)" fill="#2f2e41"/>
    <path id="Path_65513" data-name="Path 65513" d="M340.828,427.1s9.328-1.433,9.191,1.282a43.976,43.976,0,0,1-.519,4.874s-.969,8.39-6.975,6.044-4.255-5.65-4.255-5.65Z" transform="translate(-262.883 -243.286)" fill="#2f2e41"/>
    <circle id="Ellipse_3233" data-name="Ellipse 3233" cx="10.687" cy="10.687" r="10.687" transform="translate(92.864 3.508)" fill="#ffb6b6"/>
    <path id="Path_65514" data-name="Path 65514" d="M385.267,4.672c-.5-2.635-3.2-4.417-5.874-4.641S374.1.817,371.7,2a18.212,18.212,0,0,0-4.559,2.954,8.059,8.059,0,0,0-2.584,4.681,6.751,6.751,0,0,1-.334,1.892,17.9,17.9,0,0,1-1.448,1.916,3,3,0,0,0,.753,3.859,12.252,12.252,0,0,0-4.078,2.405,4.171,4.171,0,0,0-1.146,4.348c.216.519.574.973.759,1.5a3.4,3.4,0,0,1-.606,3.02,10.058,10.058,0,0,1-2.365,2.137,23.983,23.983,0,0,0,6.736.571,10.138,10.138,0,0,0,6.143-2.559,6.491,6.491,0,0,0,1.943-6.167c-.448-1.673-1.7-3.139-1.7-4.872a7.029,7.029,0,0,1,1.472-3.651l4.737-7.326a3.451,3.451,0,0,1,1.032-1.162,2.779,2.779,0,0,1,2.559.123,15.488,15.488,0,0,0,2.4,1.159,3.7,3.7,0,0,0,4.336-2.353" transform="translate(-273.178 0)" fill="#2f2e41"/>
    <path id="Path_65515" data-name="Path 65515" d="M400.536,31.667a7.753,7.753,0,0,1-3.363,1.49,4.509,4.509,0,0,0-2.99,2.017,3.015,3.015,0,0,0,.725,3.338,4.685,4.685,0,0,0,3.347,1.191,10.97,10.97,0,0,0,3.543-.787,34.492,34.492,0,0,0,8.758-4.694A3.544,3.544,0,0,1,408.188,30c.4-1.4,1.636-2.384,2.474-3.58a9.524,9.524,0,0,0,1.207-7.245,28.261,28.261,0,0,0-2.718-7.015,7.869,7.869,0,0,0-1.262-2.013,2.66,2.66,0,0,0-2.118-.9,2.81,2.81,0,0,0-2.16,2.9,11.5,11.5,0,0,0,1.009,3.8,9.556,9.556,0,0,1,.645,4,6.415,6.415,0,0,1-1.181,3.164c-.515.713-1.171,1.312-1.731,1.991a3.935,3.935,0,0,0-.931,1.79c-.207,1.22.509,2.455.313,3.678a2.606,2.606,0,0,1-2.86,2.081" transform="translate(-294.76 -5.261)" fill="#2f2e41"/>
    <g id="Group_57596" data-name="Group 57596" transform="translate(36.553 102.588)">
      <circle id="Ellipse_3234" data-name="Ellipse 3234" cx="36.54" cy="36.54" r="36.54" fill="#6b00c3"/>
      <g id="Group_57595" data-name="Group 57595" transform="translate(13.913 18.951)">
        <path id="Path_65516" data-name="Path 65516" d="M336.658,297.385h-4.542a17.6,17.6,0,0,0-30.923-8.264q-.032.036-.061.074a1.466,1.466,0,0,0,2.322,1.791,14.665,14.665,0,0,1,25.679,6.4h-4.006a.733.733,0,0,0-.563,1.2l5.765,6.921a.733.733,0,0,0,1.126,0l5.765-6.921a.733.733,0,0,0-.563-1.2Z" transform="translate(-292.137 -282.729)" fill="#fff"/>
        <path id="Path_65517" data-name="Path 65517" d="M316.607,325.477a1.466,1.466,0,0,0-2.057.265,14.668,14.668,0,0,1-25.679-6.4h4.006a.733.733,0,0,0,.563-1.2l-5.765-6.921a.733.733,0,0,0-1.126,0l-5.765,6.921a.733.733,0,0,0,.563,1.2h4.542a17.6,17.6,0,0,0,30.923,8.264q.032-.036.061-.074a1.466,1.466,0,0,0-.265-2.057Z" transform="translate(-280.614 -298.822)" fill="#fff"/>
      </g>
    </g>
    <path id="uuid-46f931a0-b53b-476c-b367-fb65f10d962b" d="M347.188,213.392c-.443,3.167-2.435,5.505-4.45,5.223s-3.29-3.077-2.846-6.245a8,8,0,0,1,1.344-3.532l2.044-13.393,6.265,1.093-2.681,13.087a8,8,0,0,1,.324,3.766Z" transform="translate(-263.893 -111.427)" fill="#ffb6b6"/>
    <path id="Path_65518" data-name="Path 65518" d="M353.658,77.323s-6.448-2.149-7.308,5.588-1.72,17.2-1.72,17.2-3.869,9.027-2.149,13.756,4.729,1.432,1.719,5.445-2.59,17.215-2.59,17.215l9.683-.487s5.373-35.5,5.373-36.359-3.009-22.354-3.009-22.354Z" transform="translate(-264.913 -43.927)" fill="#e6e6e6"/>
    <g id="Group_57597" data-name="Group 57597" transform="translate(117.324 33.01)">
      <path id="uuid-e7f43b88-b30d-4e93-bef0-000887236ddd" d="M457.383,211.3c.12,3.2-1.432,5.847-3.465,5.923s-3.778-2.452-3.9-5.649a8,8,0,0,1,.7-3.713l-.337-13.544,6.359-.023-.343,13.355a8,8,0,0,1,.98,3.651Z" transform="translate(-444.048 -143.779)" fill="#ffb6b6"/>
      <path id="Path_65519" data-name="Path 65519" d="M439.55,77.029s6.486-2.034,7.207,5.718,1.412,21.952,1.412,21.952,3.707,9.1,1.9,13.792-4.753,1.347-1.816,5.413,1.883,15.532,1.883,15.532l-9.673-.66s-4.339-33.862-4.324-34.722,3.408-27.025,3.408-27.025Z" transform="translate(-436.142 -76.788)" fill="#e6e6e6"/>
    </g>
  </g>
</svg>
