<svg width="278" height="383" viewBox="0 0 278 383" fill="none" xmlns="http://www.w3.org/2000/svg">
<g clip-path="url(#clip0_67_743)">
<path d="M198.432 0.779864L172.957 0.693213C169.577 0.693213 166.718 3.55272 166.718 7.10543V11.698C166.718 15.2507 163.945 18.1102 160.479 18.1102L110.914 17.9369C107.535 17.9369 104.762 14.9907 104.762 11.438V6.84548C104.762 3.29276 101.989 0.346607 98.6094 0.346607H89.6843L67.3282 0.173303C56.2368 0.0866518 47.2251 9.09842 47.2251 20.1032L45.8386 341.667C45.752 352.759 54.7637 361.77 65.7685 361.77L196.872 362.377C207.964 362.464 216.975 353.452 216.975 342.447L218.362 20.883C218.449 9.79163 209.523 0.779864 198.432 0.779864Z" fill="white"/>
<path d="M198.432 0.779852C198.432 0.779852 198.692 0.779852 199.125 0.779852C199.559 0.866504 200.252 0.779852 201.118 0.953156C202.851 1.21311 205.624 1.73302 208.657 3.5527C210.217 4.41922 211.777 5.71899 213.25 7.27872C214.723 8.83845 216.109 10.9181 217.062 13.2577C218.015 15.6839 218.535 18.4568 218.535 21.4029C218.535 24.3491 218.535 27.5552 218.535 30.848C218.449 57.5366 218.275 96.1833 218.102 143.928C217.929 191.673 217.669 248.517 217.409 311.686C217.409 319.571 217.322 327.543 217.322 335.688C217.322 337.681 217.322 339.761 217.322 341.754C217.322 343.747 217.149 345.913 216.542 347.819C215.936 349.812 215.156 351.719 213.943 353.452C212.816 355.185 211.343 356.745 209.784 358.044C206.491 360.644 202.418 362.29 198.259 362.464C197.219 362.55 196.179 362.55 195.139 362.55H192.02C189.94 362.55 187.861 362.55 185.694 362.55C177.289 362.55 168.711 362.464 160.132 362.464C142.975 362.377 125.472 362.29 107.708 362.204C98.8695 362.204 89.9444 362.117 80.9326 362.117C76.4267 362.117 71.9209 362.117 67.415 362.03C62.9091 362.204 58.1433 360.99 54.4172 358.391C50.6046 355.791 47.8317 351.805 46.5319 347.386C45.8387 345.22 45.7521 342.88 45.7521 340.627C45.7521 338.374 45.7521 336.121 45.7521 333.869C45.7521 324.857 45.8387 315.932 45.8387 307.093C45.9254 289.33 46.012 271.826 46.0987 254.669C46.272 220.268 46.3586 187.167 46.5319 155.626C46.7052 124.085 46.7919 94.017 46.9652 65.9418C47.0519 51.9043 47.0519 38.3866 47.1385 25.3023C47.1385 23.6559 47.1385 22.0095 47.1385 20.4498C47.1385 19.6699 47.2252 18.8034 47.2252 18.0235C47.3985 17.2437 47.3985 16.3771 47.6584 15.6839C48.4383 12.5645 49.8247 9.61831 51.9043 7.19207C53.984 4.76583 56.4969 2.94614 59.3564 1.64637C62.2159 0.346594 65.2487 -0.0866634 68.2815 -1.18474e-05C74.2604 -1.18474e-05 80.0661 0.0866397 85.7851 0.0866397C88.6446 0.0866397 91.4175 0.0866397 94.1903 0.0866397C95.5767 0.0866397 96.9632 0.0866397 98.3496 0.0866397C99.736 -1.18458e-05 101.122 0.433246 102.249 1.21311C103.375 1.99297 104.242 3.11944 104.675 4.41922C105.195 5.71899 105.022 7.10542 105.022 8.40519C105.022 9.0984 105.022 9.70497 105.022 10.3982C105.022 11.0914 105.022 11.698 105.108 12.3045C105.282 13.5176 105.802 14.7308 106.581 15.6839C107.361 16.6371 108.488 17.3303 109.614 17.5903C110.221 17.7636 110.827 17.7636 111.434 17.7636C112.041 17.7636 112.647 17.7636 113.254 17.7636C115.68 17.7636 118.106 17.7636 120.532 17.7636C129.977 17.8502 138.816 17.8502 146.961 17.9369C151.034 17.9369 154.933 18.0235 158.572 18.0235C159.526 18.0235 160.392 18.1102 161.345 18.0235C162.212 17.9369 163.078 17.5903 163.772 17.157C165.245 16.2038 166.284 14.7308 166.631 13.0844C166.804 12.3045 166.804 11.438 166.804 10.6581C166.804 9.87827 166.804 9.01175 166.804 8.23189C166.804 7.45202 166.804 6.67216 166.891 5.8923C167.064 5.11243 167.324 4.41922 167.671 3.72601C168.364 2.42623 169.577 1.38641 170.877 0.953156C172.177 0.346594 173.563 0.606549 174.863 0.519898C179.975 0.519898 184.308 0.606549 187.861 0.606549C191.413 0.606549 194.013 0.693201 195.833 0.693201C197.566 0.779852 198.432 0.779852 198.432 0.779852C198.432 0.779852 197.479 0.779852 195.746 0.779852C193.926 0.779852 191.24 0.779852 187.774 0.779852C184.221 0.779852 179.889 0.779852 174.776 0.779852C173.477 0.779852 172.09 0.606549 170.877 1.21311C169.577 1.73302 168.451 2.68619 167.758 3.98596C167.411 4.59252 167.151 5.37239 166.978 6.0656C166.804 6.84546 166.891 7.62533 166.891 8.40519C166.891 9.18506 166.891 9.96492 166.891 10.8314C166.891 11.6113 166.891 12.4778 166.718 13.3443C166.371 14.9907 165.331 16.5504 163.772 17.5036C162.992 17.9369 162.125 18.2835 161.259 18.3701C160.305 18.4568 159.439 18.3701 158.486 18.3701C154.76 18.3701 150.86 18.3701 146.874 18.2835C138.729 18.2835 129.891 18.1968 120.446 18.1968C118.106 18.1968 115.68 18.1968 113.167 18.1968C112.56 18.1968 111.954 18.1968 111.347 18.1968C110.741 18.1968 110.048 18.1968 109.441 18.0235C108.228 17.6769 107.101 16.9837 106.235 16.0305C105.368 15.0774 104.848 13.7776 104.675 12.4778C104.588 11.7846 104.588 11.178 104.588 10.4848C104.588 9.87827 104.588 9.18506 104.588 8.49184C104.588 7.19207 104.675 5.8923 104.242 4.67917C103.809 3.46605 103.029 2.33958 101.902 1.64637C100.776 0.866504 99.4761 0.519898 98.1763 0.606549C96.7899 0.606549 95.4034 0.606549 94.017 0.606549C91.2442 0.606549 88.4713 0.606549 85.6118 0.606549C79.8928 0.606549 74.0871 0.519898 68.1082 0.519898C65.162 0.433246 62.1292 0.866504 59.3564 2.16628C56.5835 3.3794 54.0706 5.28573 52.0776 7.62533C50.0847 9.96492 48.6116 12.9111 47.9184 15.9439C47.6584 16.4638 47.6584 17.2437 47.4851 18.0235C47.3985 18.8034 47.3985 19.5832 47.3985 20.4498C47.3985 22.0961 47.3985 23.6559 47.3985 25.3023C47.3118 38.3 47.3118 51.9043 47.2252 65.9418C47.1385 94.017 46.9652 123.998 46.8785 155.626C46.7919 187.167 46.6186 220.355 46.4453 254.669C46.3586 271.826 46.272 289.33 46.1853 307.093C46.1853 315.932 46.0987 324.943 46.0987 333.869C46.0987 336.121 46.0987 338.374 46.0987 340.627C46.0987 342.88 46.1853 345.133 46.8785 347.3C48.1783 351.632 50.8645 355.445 54.5905 358.044C58.3166 360.644 62.8224 361.857 67.3283 361.597C71.8342 361.597 76.3401 361.597 80.846 361.684C89.8577 361.684 98.7828 361.77 107.621 361.77C125.385 361.857 142.802 361.944 160.046 362.03C168.624 362.03 177.116 362.117 185.608 362.117C187.687 362.117 189.854 362.117 191.933 362.117H195.053C196.093 362.117 197.132 362.117 198.172 362.03C202.331 361.857 206.317 360.211 209.524 357.698C211.083 356.398 212.47 354.838 213.596 353.192C214.723 351.545 215.589 349.639 216.109 347.646C216.716 345.74 216.889 343.66 216.889 341.667C216.889 339.674 216.889 337.595 216.889 335.602C216.889 327.543 216.976 319.571 216.976 311.599C217.236 248.43 217.496 191.587 217.755 143.842C218.015 96.0966 218.189 57.45 218.275 30.7613C218.275 27.3819 218.275 24.2624 218.362 21.3163C218.449 18.3701 217.929 15.5973 216.889 13.2577C215.936 10.9181 214.549 8.9251 213.163 7.27872C211.69 5.71899 210.13 4.41922 208.657 3.5527C205.624 1.73302 202.938 1.12646 201.205 0.866504C200.338 0.693201 199.645 0.693201 199.212 0.693201C198.692 0.779852 198.432 0.779852 198.432 0.779852Z" fill="#263238"/>
<path d="M174.95 101.989L172.957 99.6493L178.849 96.5299L151.64 87.3448L160.825 113.687L164.205 109.268C164.205 109.268 181.795 140.289 164.205 159.092C146.701 177.809 126.078 173.736 126.078 173.736L130.064 186.734C130.064 186.734 162.472 189.074 179.889 159.699C197.219 130.411 174.95 101.989 174.95 101.989Z" fill="#9E25FF"/>
<path d="M93.3237 167.064L95.3167 169.404L89.4244 172.523L116.633 181.708L107.448 155.366L104.069 159.786C104.069 159.786 86.4783 128.764 104.069 109.961C121.572 91.2441 142.195 95.3167 142.195 95.3167L138.209 82.319C138.209 82.319 105.802 79.9794 88.3846 109.354C70.9676 138.556 93.3237 167.064 93.3237 167.064Z" fill="#9E25FF"/>
<path d="M174.95 101.989L172.957 99.6493L178.849 96.5299L151.64 87.3448L160.825 113.687L164.205 109.268C164.205 109.268 181.795 140.289 164.205 159.092C146.701 177.809 126.078 173.736 126.078 173.736L130.064 186.734C130.064 186.734 162.472 189.074 179.889 159.699C197.219 130.411 174.95 101.989 174.95 101.989Z" fill="#9E25FF"/>
<path d="M93.3237 167.064L95.3167 169.404L89.4244 172.523L116.633 181.708L107.448 155.366L104.069 159.786C104.069 159.786 86.4783 128.764 104.069 109.961C121.572 91.2441 142.195 95.3167 142.195 95.3167L138.209 82.319C138.209 82.319 105.802 79.9794 88.3846 109.354C70.9676 138.556 93.3237 167.064 93.3237 167.064Z" fill="#9E25FF"/>
<g opacity="0.8">
<path d="M174.95 101.989L172.957 99.6493L178.849 96.5299L151.64 87.3448L160.825 113.687L164.205 109.268C164.205 109.268 181.795 140.289 164.205 159.092C146.701 177.809 126.078 173.736 126.078 173.736L130.064 186.734C130.064 186.734 162.472 189.074 179.889 159.699C197.219 130.411 174.95 101.989 174.95 101.989Z" fill="white"/>
</g>
<g opacity="0.8">
<path d="M93.3237 167.064L95.3167 169.404L89.4244 172.523L116.633 181.708L107.448 155.366L104.069 159.786C104.069 159.786 86.4783 128.764 104.069 109.961C121.572 91.2441 142.195 95.3167 142.195 95.3167L138.209 82.319C138.209 82.319 105.802 79.9794 88.3846 109.354C70.9676 138.556 93.3237 167.064 93.3237 167.064Z" fill="white"/>
</g>
<path fill-rule="evenodd" clip-rule="evenodd" d="M149.647 119.146C150.947 120.532 152.074 122.092 152.94 123.738H158.139L160.046 132.144L155.366 134.397C155.28 136.303 155.02 138.123 154.413 139.942L158.139 143.582L153.547 150.947L148.608 149.214C147.221 150.514 145.661 151.64 144.015 152.507V157.706L135.61 159.612L133.357 154.933C131.451 154.846 129.631 154.586 127.811 153.98L124.172 157.706L116.806 153.113L118.539 148.174C117.24 146.788 116.113 145.228 115.247 143.582H110.048L108.141 135.176L112.82 132.924C112.907 131.017 113.167 129.198 113.774 127.378L110.048 123.738L114.64 116.373L119.579 118.106C120.966 116.806 122.525 115.68 124.172 114.813V109.614L132.577 107.708L134.83 112.387C136.736 112.474 138.556 112.734 140.376 113.34L144.015 109.614L151.38 114.207L149.647 119.146ZM139.336 125.991C135.003 123.305 129.284 124.605 126.511 128.938C123.825 133.27 125.125 138.989 129.458 141.762C133.79 144.448 139.509 143.148 142.282 138.816C144.968 134.483 143.668 128.764 139.336 125.991Z" fill="#9E25FF"/>
<g opacity="0.6">
<path fill-rule="evenodd" clip-rule="evenodd" d="M139.336 125.991C135.003 123.305 129.284 124.605 126.511 128.938C123.825 133.27 125.125 138.989 129.458 141.762C133.79 144.448 139.509 143.148 142.282 138.816C144.968 134.483 143.668 128.764 139.336 125.991Z" fill="white"/>
</g>
<path d="M206.058 31.9744C206.058 32.0611 202.505 32.1477 198.172 32.2344C193.84 32.2344 190.287 32.2344 190.287 32.1477C190.287 32.0611 193.84 31.9744 198.172 31.8878C202.591 31.8011 206.058 31.8878 206.058 31.9744Z" fill="#263238"/>
<path d="M206.144 35.9604C206.144 36.0471 202.591 36.1337 198.259 36.2204C193.926 36.2204 190.374 36.2204 190.374 36.1337C190.374 36.0471 193.926 35.9604 198.259 35.8737C202.591 35.8737 206.144 35.8737 206.144 35.9604Z" fill="#263238"/>
<path d="M206.144 40.033C206.144 40.1197 202.591 40.2063 198.259 40.293C193.926 40.293 190.374 40.293 190.374 40.2063C190.374 40.1197 193.926 40.033 198.259 39.9464C202.591 39.8597 206.144 39.8597 206.144 40.033Z" fill="#263238"/>
<path d="M63.3423 44.5389C63.3423 44.5389 63.4289 44.5389 63.6889 44.5389C63.9488 44.5389 64.2088 44.5389 64.5554 44.5389C65.4219 44.5389 66.5484 44.4523 67.9348 44.4523L67.8482 44.5389C67.8482 43.7591 67.8482 42.9792 67.8482 42.1127C67.8482 41.6794 67.8482 41.2462 67.8482 40.7263C67.9348 40.2063 68.3681 39.7731 68.9746 39.6864C69.4945 39.6864 70.0144 39.6864 70.5343 39.6864C71.1409 39.7731 71.6608 40.3796 71.6608 40.9862C71.6608 42.1127 71.6608 43.3258 71.6608 44.5389L71.4875 44.3656C72.8739 44.3656 74.2604 44.3656 75.7334 44.3656L75.5601 44.5389C75.5601 42.8059 75.5601 41.0729 75.4735 39.2532C75.4735 38.8199 75.4735 38.3867 75.4735 37.9534C75.4735 37.5201 75.2135 37.2602 74.8669 36.9136C74.2604 36.307 73.6538 35.7005 73.0472 35.0939C72.4407 34.4873 71.8341 33.8808 71.2276 33.3609C70.9676 33.1009 70.621 32.7543 70.361 32.4944C70.1011 32.2344 69.8411 31.8878 69.4945 31.8011C69.1479 31.7145 68.8013 31.8011 68.5414 31.9744C68.2814 32.1477 68.0214 32.4944 67.7615 32.7543C67.2416 33.2742 66.7217 33.7941 66.2884 34.314C65.3353 35.2672 64.3821 36.2204 63.6022 37.0869C63.2556 37.5201 63.4289 38.1267 63.4289 38.6466C63.4289 39.1665 63.4289 39.6864 63.4289 40.1197C63.4289 41.0729 63.4289 41.8527 63.4289 42.5459C63.4289 43.1525 63.4289 43.6724 63.4289 44.1057C63.3423 44.3656 63.3423 44.5389 63.3423 44.5389C63.3423 44.5389 63.3423 44.3656 63.3423 44.019C63.3423 43.5858 63.3423 43.1525 63.3423 42.5459C63.3423 41.8527 63.3423 41.0729 63.2556 40.1197C63.2556 39.5998 63.2556 39.1665 63.2556 38.56C63.2556 38.3 63.2556 38.0401 63.2556 37.6934C63.2556 37.4335 63.3423 37.0869 63.5156 36.8269C64.2954 35.8738 65.2486 35.0072 66.2018 33.9674C66.7217 33.4475 67.1549 32.9276 67.6748 32.4077C67.9348 32.1477 68.1948 31.8878 68.4547 31.6278C68.8013 31.3679 69.2346 31.2812 69.6678 31.3679C70.1011 31.4545 70.4477 31.8011 70.7076 32.0611C70.9676 32.321 71.3142 32.6677 71.5742 32.9276C72.1807 33.5342 72.7873 34.0541 73.3938 34.6606C74.0004 35.2672 74.607 35.8738 75.2135 36.4803C75.3868 36.6536 75.5601 36.7403 75.6468 37.0002C75.8201 37.1735 75.8201 37.4335 75.9067 37.6934C75.9067 38.1267 75.9067 38.56 75.9067 39.0799C75.9067 40.8996 75.9067 42.6326 75.9067 44.3656V44.5389H75.7334C74.2604 44.5389 72.8739 44.5389 71.4875 44.5389H71.3142V44.3656C71.3142 43.1525 71.3142 41.9394 71.3142 40.8129C71.3142 40.293 70.9676 39.8597 70.4477 39.7731C69.9278 39.7731 69.4079 39.7731 68.888 39.7731C68.4547 39.7731 68.0215 40.2063 67.9348 40.5529C67.9348 40.9862 67.9348 41.5061 67.9348 41.9394C67.9348 42.8059 67.9348 43.5858 67.9348 44.3656V44.4523H67.8482C66.4617 44.4523 65.3353 44.4523 64.4687 44.4523C64.1221 44.4523 63.8622 44.4523 63.6022 44.4523C63.4289 44.6256 63.3423 44.5389 63.3423 44.5389Z" fill="#263238"/>
<path d="M167.238 41.1595C167.238 41.2461 154.066 41.4194 137.776 41.4194C121.485 41.4194 108.314 41.3328 108.314 41.1595C108.314 40.9862 121.485 40.8995 137.776 40.8995C153.98 40.8995 167.238 40.9862 167.238 41.1595Z" fill="#263238"/>
<path d="M165.678 314.979H103.722C95.8367 314.979 89.4244 308.566 89.4244 300.681C89.4244 292.796 95.8367 286.383 103.722 286.383H165.678C173.563 286.383 179.975 292.796 179.975 300.681C179.975 308.566 173.563 314.979 165.678 314.979Z" fill="#9E25FF"/>
<path d="M122.959 302.761L123.479 301.634C123.999 302.067 124.865 302.327 125.645 302.327C126.511 302.327 126.945 302.067 126.945 301.634C126.945 300.421 123.132 301.288 123.132 298.775C123.132 297.648 123.999 296.695 125.905 296.695C126.771 296.695 127.551 296.868 128.158 297.302L127.725 298.428C127.118 298.081 126.511 297.908 125.905 297.908C125.038 297.908 124.692 298.255 124.692 298.688C124.692 299.901 128.504 299.035 128.504 301.461C128.504 302.587 127.551 303.54 125.732 303.54C124.518 303.54 123.479 303.281 122.959 302.761Z" fill="white"/>
<path d="M132.577 303.194C132.317 303.367 131.797 303.54 131.364 303.54C130.151 303.54 129.458 302.934 129.458 301.721V299.641H128.678V298.515H129.458V297.302H130.931V298.515H132.23V299.641H130.931V301.721C130.931 302.154 131.191 302.414 131.537 302.414C131.711 302.414 131.97 302.327 132.144 302.241L132.577 303.194Z" fill="white"/>
<path d="M137.863 300.508V303.367H136.476V302.761C136.216 303.194 135.696 303.454 134.917 303.454C133.703 303.454 133.01 302.761 133.01 301.894C133.01 301.028 133.617 300.421 135.177 300.421H136.303C136.303 299.814 135.956 299.468 135.177 299.468C134.657 299.468 134.05 299.641 133.703 299.901L133.184 298.861C133.703 298.428 134.57 298.255 135.35 298.255C136.996 298.341 137.863 299.035 137.863 300.508ZM136.39 301.807V301.288H135.35C134.657 301.288 134.483 301.547 134.483 301.894C134.483 302.241 134.83 302.501 135.35 302.501C135.87 302.501 136.216 302.327 136.39 301.807Z" fill="white"/>
<path d="M142.369 298.341V299.728C142.282 299.728 142.195 299.728 142.022 299.728C141.242 299.728 140.636 300.161 140.636 301.114V303.54H139.163V298.515H140.549V299.208C140.982 298.515 141.589 298.341 142.369 298.341Z" fill="white"/>
<path d="M146.701 303.194C146.441 303.367 145.921 303.54 145.488 303.54C144.275 303.54 143.582 302.934 143.582 301.721V299.641H142.802V298.515H143.582V297.302H145.055V298.515H146.355V299.641H145.055V301.721C145.055 302.154 145.315 302.414 145.661 302.414C145.835 302.414 146.095 302.327 146.268 302.241L146.701 303.194Z" fill="white"/>
<path d="M193.58 247.044C193.58 247.13 166.978 247.304 134.137 247.304C101.296 247.304 74.6937 247.217 74.6937 247.044C74.6937 246.957 101.296 246.784 134.137 246.784C166.978 246.87 193.58 246.957 193.58 247.044Z" fill="#263238"/>
<path d="M169.924 254.322C169.924 254.409 153.893 254.582 134.137 254.582C114.38 254.582 98.3495 254.496 98.3495 254.322C98.3495 254.236 114.38 254.062 134.137 254.062C153.893 254.149 169.924 254.236 169.924 254.322Z" fill="#263238"/>
<path d="M5.37242 361.77L0.0866699 381.18L17.2437 382.74L20.7964 364.197L5.37242 361.77Z" fill="#9E25FF"/>
<path d="M17.6769 381.18C17.6769 381.267 16.7238 381.18 15.164 381.094C13.6043 381.007 11.5247 380.747 9.18507 380.4C6.93212 380.14 4.85249 379.794 3.20611 379.621C1.64638 379.447 0.69321 379.274 0.779862 379.187C0.779862 379.101 1.73303 379.187 3.29276 379.274C4.85249 379.361 6.93212 379.621 9.27172 379.967C11.5247 380.227 13.5176 380.574 15.2507 380.747C16.7238 380.92 17.6769 381.094 17.6769 381.18Z" fill="#263238"/>
<g opacity="0.6">
<path d="M0.0866699 381.18L17.2437 382.74L17.5036 381.354L0.606579 379.187L0.0866699 381.007" fill="white"/>
</g>
<path d="M8.57846 380.314C8.49181 380.314 9.18503 376.934 10.2248 372.862C11.2647 368.789 12.1312 365.496 12.2178 365.496C12.3045 365.496 11.6113 368.876 10.5715 372.948C9.61828 377.021 8.66512 380.314 8.57846 380.314Z" fill="#263238"/>
<path d="M16.7237 381.007C16.6371 381.007 17.2437 379.621 16.7237 377.368C16.4638 376.328 15.8572 375.028 14.8174 373.988C13.7776 372.948 12.2179 372.169 10.5715 371.995C8.83845 371.822 7.19207 372.255 5.97895 373.035C4.76583 373.815 3.89931 374.855 3.29275 375.895C2.16628 377.888 2.33958 379.361 2.25293 379.361C2.25293 379.361 2.25293 379.274 2.25293 379.101C2.25293 378.927 2.25293 378.667 2.25293 378.321C2.33958 377.714 2.51288 376.761 3.03279 375.721C3.5527 374.681 4.41922 373.555 5.71899 372.688C7.01877 371.822 8.7518 371.389 10.5715 371.562C12.3912 371.735 13.9509 372.515 15.0774 373.642C16.2038 374.768 16.7237 376.068 16.9837 377.194C17.2437 378.321 17.157 379.274 16.9837 379.967C16.897 380.314 16.8104 380.487 16.8104 380.66C16.8104 381.007 16.7237 381.007 16.7237 381.007Z" fill="#263238"/>
<path d="M75.9934 356.485L74.8669 373.815C74.8669 373.815 92.1106 379.534 92.1972 382.74L58.5764 383L59.2696 355.965L75.9934 356.485Z" fill="#9E25FF"/>
<g opacity="0.6">
<path d="M64.4688 371.995C63.7756 372.169 63.3423 372.862 63.5156 373.555C63.6889 374.248 64.3821 374.681 64.9887 374.595C65.6819 374.421 66.2018 373.642 66.0285 372.948C65.8552 372.342 64.9021 371.822 64.2955 372.082" fill="white"/>
</g>
<g opacity="0.6">
<path d="M58.5764 383L58.6631 380.314L91.1574 381.18C91.1574 381.18 92.1972 381.614 92.3705 383H58.5764Z" fill="white"/>
</g>
<path d="M75.3869 373.642C75.3869 373.815 74.5204 373.815 73.7405 374.335C72.874 374.855 72.4407 375.548 72.3541 375.461C72.1808 375.461 72.4407 374.421 73.4805 373.902C74.4337 373.295 75.4735 373.468 75.3869 373.642Z" fill="#263238"/>
<path d="M78.8529 375.201C78.8529 375.375 78.1597 375.635 77.5531 376.328C76.9466 377.021 76.7733 377.714 76.6 377.714C76.4267 377.714 76.34 376.761 77.1199 375.981C77.8997 375.115 78.8529 375.028 78.8529 375.201Z" fill="#263238"/>
<path d="M80.7592 379.447C80.5859 379.447 80.4126 378.667 80.8459 377.801C81.2792 376.934 82.059 376.588 82.1457 376.761C82.2323 376.934 81.7124 377.368 81.3658 378.061C81.0192 378.754 80.9325 379.447 80.7592 379.447Z" fill="#263238"/>
<path d="M75.2136 369.656C75.1269 369.829 74.4337 369.569 73.4805 369.569C72.5274 369.569 71.8342 369.916 71.7475 369.742C71.6609 369.656 72.3541 369.049 73.4805 369.049C74.5204 368.962 75.3002 369.569 75.2136 369.656Z" fill="#263238"/>
<path d="M75.3869 366.19C75.3869 366.276 74.6937 366.363 73.7405 366.103C73.2206 366.016 72.614 365.843 72.0075 365.496C71.6609 365.323 71.4009 365.15 71.0543 364.976C70.881 364.89 70.7077 364.803 70.5344 364.543C70.3611 364.37 70.2744 363.937 70.4477 363.677C70.621 363.417 70.9676 363.33 71.1409 363.33C71.4009 363.33 71.5742 363.417 71.7475 363.417C72.0941 363.503 72.4407 363.677 72.7873 363.85C73.3939 364.197 73.9138 364.543 74.3471 364.89C75.1269 365.67 75.3869 366.276 75.3002 366.276C75.2136 366.363 74.867 365.843 74.0871 365.15C73.7405 364.803 73.2206 364.543 72.614 364.283C72.3541 364.197 72.0075 364.023 71.6609 363.937C71.3142 363.85 70.9676 363.85 70.881 363.937C70.881 364.023 70.881 364.023 70.881 364.11C70.9676 364.197 71.0543 364.283 71.2276 364.37C71.4876 364.543 71.8342 364.717 72.0941 364.89C72.7007 365.236 73.2206 365.41 73.7405 365.583C74.7803 366.016 75.3869 366.103 75.3869 366.19Z" fill="#263238"/>
<path d="M75.2135 366.45C75.1269 366.45 74.8669 365.843 74.7803 364.803C74.7803 364.283 74.8669 363.677 75.0402 362.983C75.1269 362.637 75.3002 362.29 75.4735 361.944C75.6468 361.597 75.9067 361.164 76.6 361.164C76.9466 361.164 77.2065 361.424 77.2932 361.684C77.3798 361.944 77.3798 362.117 77.4665 362.29C77.5531 362.724 77.4665 363.07 77.4665 363.417C77.3798 364.11 77.0332 364.716 76.6866 365.15C75.9934 366.016 75.3002 366.19 75.3002 366.103C75.2135 366.016 75.8201 365.756 76.34 364.89C76.6 364.457 76.8599 363.937 76.9466 363.33C76.9466 362.983 77.0332 362.724 76.9466 362.377C76.9466 362.03 76.7733 361.684 76.6866 361.77C76.5133 361.77 76.2534 362.03 76.08 362.29C75.9067 362.55 75.7334 362.897 75.6468 363.157C75.3868 363.763 75.3002 364.37 75.3002 364.803C75.1269 365.756 75.3002 366.363 75.2135 366.45Z" fill="#263238"/>
<path d="M75.9934 206.231L24.7824 205.884L0 368.529L21.2296 371.215L48.5249 237.512L56.6701 371.649V372.082L79.7195 371.649L75.9934 206.231Z" fill="#263238"/>
<path d="M52.6841 219.402C52.6841 219.402 53.0308 219.402 53.724 219.315C54.5038 219.315 55.5436 219.229 56.8434 219.229C59.6163 219.142 63.4289 219.055 67.9348 218.882H68.1081V219.055C68.1081 222.261 68.1081 225.901 68.1081 229.713V229.8L68.0215 229.887C67.4149 230.493 66.7217 231.013 66.1151 231.62C64.1222 233.439 62.2158 235.172 60.3961 236.819L60.2228 236.992L60.0495 236.819C57.19 234.306 54.6771 232.053 52.5108 230.06L52.4242 229.973V229.887C52.4242 226.681 52.5108 223.994 52.5108 222.088C52.5108 221.221 52.5108 220.528 52.5975 220.008C52.6841 219.662 52.6841 219.402 52.6841 219.402C52.6841 219.402 52.6841 219.662 52.6841 220.182C52.6841 220.702 52.6842 221.395 52.7708 222.348C52.7708 224.254 52.8575 226.854 52.8575 230.06L52.7708 229.887C54.9371 231.793 57.5366 234.133 60.3961 236.559H60.1362C61.9559 234.912 63.8622 233.179 65.7685 231.36C66.4618 230.753 67.0683 230.147 67.6749 229.627L67.5882 229.8C67.5882 225.987 67.5882 222.435 67.5882 219.142L67.7615 219.315C63.2556 219.315 59.5296 219.402 56.8434 219.402C55.5436 219.402 54.5038 219.402 53.724 219.402C53.3774 219.402 53.1174 219.402 52.8575 219.402C52.7708 219.488 52.6841 219.488 52.6841 219.402Z" fill="#455A64"/>
<path d="M28.595 218.709C28.595 218.709 28.9416 218.709 29.5482 218.795C30.2414 218.882 31.1946 218.969 32.321 219.055C34.7473 219.315 38.2133 219.575 42.286 219.922H42.4593V220.095C42.1127 223.214 41.6794 226.854 41.1595 230.667V230.753L41.0728 230.84C40.3796 231.36 39.5998 231.966 38.9065 232.573C37.0002 234.046 35.1805 235.519 33.4475 236.905L33.2742 237.079L33.1009 236.905C30.9346 234.133 28.855 231.533 27.1219 229.367L27.0353 229.28V229.193C27.4685 225.987 27.8151 223.388 28.0751 221.481C28.1617 220.615 28.3351 219.922 28.3351 219.402C28.5084 218.969 28.595 218.709 28.595 218.709C28.595 218.709 28.595 218.969 28.5084 219.488C28.4217 220.008 28.4217 220.702 28.3351 221.655C28.1617 223.561 27.8151 226.161 27.4685 229.28V229.107C29.2016 231.273 31.2812 233.786 33.4475 236.559H33.1009C34.8339 235.172 36.6536 233.699 38.5599 232.226C39.3398 231.62 40.033 231.013 40.8129 230.493L40.7262 230.667C41.2461 226.854 41.6794 223.301 42.026 220.095L42.1993 220.355C38.2133 219.922 34.8339 219.488 32.4077 219.229C31.2812 219.055 30.328 218.969 29.6348 218.882C28.9416 218.795 28.595 218.795 28.595 218.709Z" fill="#455A64"/>
<path d="M59.9629 243.404C59.9629 243.491 59.0098 242.971 57.6234 242.278C56.2369 241.498 54.2439 240.545 52.0777 239.418C49.9114 238.379 47.9184 237.425 46.4453 236.732C44.9722 236.039 44.1057 235.606 44.1057 235.519C44.1057 235.432 45.0589 235.779 46.532 236.386C48.005 236.992 49.998 237.859 52.1643 238.985C54.3306 240.112 56.2369 241.151 57.6234 241.931C59.1831 242.798 59.9629 243.404 59.9629 243.404Z" fill="#455A64"/>
<path d="M59.2698 247.39C59.2698 247.477 58.5765 247.217 57.5367 246.697C56.4969 246.177 55.1105 245.311 53.8974 244.011C52.5976 242.798 51.7311 241.411 51.2112 240.371C50.6912 239.332 50.5179 238.638 50.5179 238.638C50.6912 238.552 51.7311 241.238 54.244 243.664C56.6702 246.177 59.3564 247.217 59.2698 247.39Z" fill="#455A64"/>
<path d="M73.7404 294.355C73.7404 294.355 73.7404 294.702 73.4805 295.222C73.3072 295.742 72.9606 296.522 72.4407 297.388C71.4008 299.121 69.3212 301.288 66.4617 302.501C63.5155 303.714 60.5694 303.627 58.6631 303.194C57.7099 302.934 56.93 302.674 56.4101 302.501C55.8902 302.241 55.6302 302.067 55.6302 302.067C55.6302 301.981 56.7567 302.587 58.7497 302.934C60.656 303.281 63.5155 303.281 66.375 302.067C69.1479 300.854 71.1409 298.861 72.2674 297.215C73.3072 295.569 73.6538 294.355 73.7404 294.355Z" fill="#455A64"/>
<path d="M70.361 292.969C70.361 293.056 69.6678 293.402 68.368 293.836C67.0682 294.269 65.3352 294.615 63.2556 294.702C61.2626 294.789 59.4429 294.615 58.1431 294.442C56.8433 294.269 56.0635 294.009 56.0635 293.922C56.0635 293.749 59.2696 294.355 63.2556 294.269C65.2485 294.182 66.9816 293.922 68.2814 293.576C69.5811 293.229 70.361 292.882 70.361 292.969Z" fill="#455A64"/>
<path d="M32.2345 293.922C32.2345 293.922 31.6279 294.615 30.4148 295.569C29.2017 296.435 27.4686 297.562 25.3024 298.341C23.1361 299.121 21.1431 299.468 19.5833 299.555C18.1103 299.641 17.1571 299.555 17.1571 299.468C17.1571 299.381 18.1103 299.381 19.4967 299.208C20.9698 299.035 22.9628 298.601 25.0424 297.822C27.122 297.042 28.9417 296.002 30.1548 295.222C31.5413 294.442 32.2345 293.922 32.2345 293.922Z" fill="#455A64"/>
<path d="M27.8152 293.749C27.8152 293.836 25.7355 294.355 23.136 294.095C20.5364 293.922 18.5435 293.056 18.5435 292.969C18.5435 292.796 20.6231 293.402 23.136 293.662C25.6489 293.922 27.7285 293.576 27.8152 293.749Z" fill="#455A64"/>
<path d="M48.1782 238.638C48.1782 238.725 47.3117 239.158 45.8386 239.678C44.3655 240.198 42.2859 240.805 39.9463 241.238C37.6067 241.585 35.4404 241.671 33.8807 241.585C32.321 241.498 31.3678 241.411 31.3678 241.325C31.3678 241.238 32.321 241.325 33.8807 241.238C35.4404 241.238 37.6067 241.065 39.8597 240.718C42.1992 240.371 44.2789 239.765 45.752 239.332C47.3117 238.898 48.1782 238.552 48.1782 238.638Z" fill="#455A64"/>
<path d="M46.7918 233.353C46.8785 233.353 47.0518 233.786 47.0518 234.219C47.0518 234.739 46.9651 235.086 46.7918 235.086C46.7052 235.086 46.5319 234.652 46.5319 234.219C46.6185 233.786 46.7052 233.353 46.7918 233.353Z" fill="#455A64"/>
<path d="M46.7918 229.713C46.8785 229.713 47.0518 230.147 47.0518 230.58C47.0518 231.1 46.9651 231.446 46.7918 231.446C46.7052 231.446 46.5319 231.013 46.5319 230.58C46.6185 230.147 46.7052 229.713 46.7918 229.713Z" fill="#455A64"/>
<path d="M46.8784 226.161C46.9651 226.161 47.1384 226.594 47.0517 227.027C47.0517 227.547 46.9651 227.894 46.7918 227.894C46.7051 227.894 46.5318 227.46 46.6185 227.027C46.6185 226.594 46.7918 226.161 46.8784 226.161Z" fill="#455A64"/>
<path d="M47.0518 222.521C47.1385 222.521 47.2251 222.955 47.2251 223.474C47.2251 223.994 47.0518 224.341 46.9652 224.341C46.8785 224.341 46.7919 223.908 46.7919 223.388C46.7919 222.955 46.8785 222.521 47.0518 222.521Z" fill="#455A64"/>
<path d="M47.225 218.969C47.3117 218.969 47.3983 219.402 47.3983 219.922C47.3983 220.442 47.225 220.788 47.1384 220.788C47.0517 220.788 46.9651 220.355 46.9651 219.835C46.9651 219.315 47.1384 218.969 47.225 218.969Z" fill="#455A64"/>
<path d="M47.5717 215.329C47.6584 215.329 47.745 215.762 47.745 216.282C47.745 216.802 47.5717 217.149 47.3984 217.149C47.3117 217.149 47.2251 216.716 47.2251 216.196C47.3117 215.762 47.3984 215.329 47.5717 215.329Z" fill="#455A64"/>
<path d="M47.8316 212.383C47.9183 212.383 48.0049 212.643 48.0049 212.99C48.0049 213.336 47.8316 213.509 47.745 213.509C47.6583 213.509 47.5717 213.25 47.5717 212.903C47.5717 212.643 47.6583 212.383 47.8316 212.383Z" fill="#455A64"/>
<path d="M18.89 367.663C18.9767 367.663 19.0634 368.096 18.9767 368.616C18.89 369.136 18.7167 369.482 18.5434 369.482C18.4568 369.482 18.3701 369.049 18.4568 368.529C18.5434 368.009 18.7167 367.576 18.89 367.663Z" fill="#455A64"/>
<path d="M19.5833 364.11C19.6699 364.11 19.7566 364.543 19.6699 365.063C19.5833 365.583 19.41 365.93 19.2367 365.93C19.15 365.93 19.0634 365.496 19.15 364.976C19.2367 364.457 19.41 364.11 19.5833 364.11Z" fill="#455A64"/>
<path d="M20.2764 360.557C20.3631 360.557 20.4497 360.991 20.3631 361.51C20.2764 362.03 20.1031 362.377 19.9298 362.377C19.8431 362.377 19.7565 361.944 19.8431 361.424C19.9298 360.904 20.1031 360.557 20.2764 360.557Z" fill="#455A64"/>
<path d="M20.9696 357.005C21.0563 357.005 21.1429 357.438 21.0563 357.958C20.9696 358.478 20.7963 358.824 20.623 358.824C20.5364 358.824 20.4497 358.391 20.5364 357.871C20.623 357.351 20.883 357.005 20.9696 357.005Z" fill="#455A64"/>
<path d="M21.6629 353.538C21.7495 353.538 21.8362 353.972 21.7495 354.492C21.6629 355.012 21.4896 355.358 21.3163 355.358C21.2296 355.358 21.143 354.925 21.2296 354.405C21.4029 353.885 21.5762 353.452 21.6629 353.538Z" fill="#455A64"/>
<path d="M22.3561 349.986C22.4428 349.986 22.5294 350.419 22.4428 350.939C22.3561 351.459 22.1828 351.805 22.0095 351.805C21.9229 351.805 21.8362 351.372 21.9229 350.852C22.0962 350.332 22.2695 349.986 22.3561 349.986Z" fill="#455A64"/>
<path d="M23.0494 346.433C23.136 346.433 23.2227 346.866 23.136 347.386C23.0494 347.906 22.876 348.253 22.7027 348.253C22.6161 348.253 22.5294 347.819 22.6161 347.3C22.7894 346.78 22.9627 346.433 23.0494 346.433Z" fill="#455A64"/>
<path d="M23.8291 342.88C23.9158 342.88 24.0024 343.314 23.9158 343.833C23.8291 344.353 23.6558 344.7 23.4825 344.7C23.3959 344.7 23.3092 344.267 23.3959 343.747C23.4825 343.227 23.6558 342.88 23.8291 342.88Z" fill="#455A64"/>
<path d="M24.5224 339.414C24.609 339.414 24.6957 339.848 24.609 340.367C24.5224 340.887 24.3491 341.234 24.1758 341.234C24.0891 341.234 24.0025 340.801 24.0891 340.281C24.1758 339.761 24.3491 339.328 24.5224 339.414Z" fill="#455A64"/>
<path d="M25.2156 335.862C25.3023 335.862 25.3889 336.295 25.3023 336.815C25.2156 337.335 25.0423 337.681 24.869 337.681C24.7824 337.681 24.6957 337.248 24.7824 336.728C24.869 336.208 25.0423 335.862 25.2156 335.862Z" fill="#455A64"/>
<path d="M25.9087 332.309C25.9954 332.309 26.082 332.742 25.9954 333.262C25.9087 333.782 25.7354 334.129 25.5621 334.129C25.4755 334.129 25.3888 333.695 25.4755 333.175C25.6488 332.655 25.8221 332.309 25.9087 332.309Z" fill="#455A64"/>
<path d="M26.6021 328.756C26.6887 328.756 26.7754 329.189 26.6887 329.709C26.6021 330.229 26.4288 330.576 26.2555 330.576C26.1688 330.576 26.0822 330.143 26.1688 329.623C26.3421 329.103 26.5154 328.756 26.6021 328.756Z" fill="#455A64"/>
<path d="M27.2952 325.29C27.3819 325.29 27.4685 325.723 27.3819 326.243C27.2952 326.763 27.1219 327.11 26.9486 327.11C26.8619 327.11 26.7753 326.676 26.8619 326.157C27.0352 325.637 27.2085 325.203 27.2952 325.29Z" fill="#455A64"/>
<path d="M28.0751 321.737C28.1618 321.737 28.2484 322.171 28.1618 322.69C28.0751 323.21 27.9018 323.557 27.7285 323.557C27.6418 323.557 27.5552 323.124 27.6418 322.604C27.7285 322.084 27.9018 321.651 28.0751 321.737Z" fill="#455A64"/>
<path d="M28.7683 318.185C28.855 318.185 28.9416 318.618 28.855 319.138C28.7683 319.658 28.595 320.004 28.4217 320.004C28.3351 320.004 28.2484 319.571 28.3351 319.051C28.4217 318.531 28.595 318.185 28.7683 318.185Z" fill="#455A64"/>
<path d="M29.4615 314.632C29.5481 314.632 29.6348 315.065 29.5481 315.585C29.4615 316.105 29.2882 316.452 29.1149 316.452C29.0282 316.452 28.9416 316.018 29.0282 315.498C29.1149 314.979 29.2882 314.632 29.4615 314.632Z" fill="#455A64"/>
<path d="M30.1547 311.079C30.2413 311.079 30.328 311.512 30.2414 312.032C30.1547 312.552 29.9814 312.899 29.8081 312.899C29.7214 312.899 29.6348 312.466 29.7214 311.946C29.8081 311.512 30.068 311.079 30.1547 311.079Z" fill="#455A64"/>
<path d="M30.8479 307.613C30.9346 307.613 31.0212 308.046 30.9346 308.566C30.8479 309.086 30.6746 309.433 30.5013 309.433C30.4147 309.433 30.328 309 30.4147 308.48C30.588 307.96 30.7613 307.526 30.8479 307.613Z" fill="#455A64"/>
<path d="M31.5412 304.06C31.6278 304.06 31.7145 304.494 31.6278 305.014C31.5412 305.533 31.3679 305.88 31.1946 305.88C31.1079 305.88 31.0213 305.447 31.1079 304.927C31.2812 304.407 31.4545 304.06 31.5412 304.06Z" fill="#455A64"/>
<path d="M32.321 300.508C32.4076 300.508 32.4943 300.941 32.4076 301.461C32.321 301.981 32.1477 302.327 31.9744 302.327C31.8877 302.327 31.801 301.894 31.8877 301.374C31.9744 300.854 32.1477 300.508 32.321 300.508Z" fill="#455A64"/>
<path d="M33.0143 296.955C33.101 296.955 33.1876 297.388 33.101 297.908C33.0143 298.428 32.841 298.775 32.6677 298.775C32.5811 298.775 32.4944 298.341 32.5811 297.822C32.6677 297.302 32.841 296.955 33.0143 296.955Z" fill="#455A64"/>
<path d="M33.7074 293.489C33.7941 293.489 33.8807 293.922 33.7941 294.442C33.7074 294.962 33.5341 295.309 33.3608 295.309C33.2742 295.309 33.1875 294.875 33.2742 294.355C33.3608 293.836 33.5341 293.402 33.7074 293.489Z" fill="#455A64"/>
<path d="M34.4007 289.936C34.4873 289.936 34.574 290.369 34.4873 290.889C34.4007 291.409 34.2274 291.756 34.0541 291.756C33.9674 291.756 33.8808 291.323 33.9674 290.803C34.0541 290.283 34.314 289.936 34.4007 289.936Z" fill="#455A64"/>
<path d="M35.0938 286.383C35.1804 286.383 35.2671 286.817 35.1804 287.337C35.0938 287.857 34.9205 288.203 34.7472 288.203C34.6605 288.203 34.5739 287.77 34.6605 287.25C34.8338 286.73 35.0071 286.383 35.0938 286.383Z" fill="#455A64"/>
<path d="M35.787 282.831C35.8737 282.831 35.9603 283.264 35.8737 283.784C35.787 284.304 35.6137 284.65 35.4404 284.65C35.3538 284.65 35.2671 284.217 35.3538 283.697C35.5271 283.177 35.7004 282.831 35.787 282.831Z" fill="#455A64"/>
<path d="M36.4804 279.365C36.567 279.365 36.6537 279.798 36.567 280.318C36.4804 280.838 36.3071 281.184 36.1338 281.184C36.0471 281.184 35.9605 280.751 36.0471 280.231C36.2204 279.711 36.3937 279.278 36.4804 279.365Z" fill="#455A64"/>
<path d="M37.2602 275.812C37.3468 275.812 37.4335 276.245 37.3468 276.765C37.2602 277.285 37.0869 277.632 36.9136 277.632C36.8269 277.632 36.7403 277.198 36.8269 276.678C36.9136 276.159 37.0869 275.812 37.2602 275.812Z" fill="#455A64"/>
<path d="M37.9534 272.259C38.0401 272.259 38.1267 272.693 38.0401 273.212C37.9534 273.732 37.7801 274.079 37.6068 274.079C37.5201 274.079 37.4335 273.646 37.5201 273.126C37.6068 272.606 37.7801 272.259 37.9534 272.259Z" fill="#455A64"/>
<path d="M38.6466 268.707C38.7333 268.707 38.8199 269.14 38.7333 269.66C38.6466 270.18 38.4733 270.526 38.3 270.526C38.2134 270.526 38.1267 270.093 38.2134 269.573C38.3 269.053 38.4733 268.707 38.6466 268.707Z" fill="#455A64"/>
<path d="M39.3398 265.24C39.4264 265.24 39.5131 265.674 39.4264 266.194C39.3398 266.714 39.1665 267.06 38.9931 267.06C38.9065 267.06 38.8198 266.627 38.9065 266.107C38.9931 265.587 39.2531 265.154 39.3398 265.24Z" fill="#455A64"/>
<path d="M40.033 261.688C40.1196 261.688 40.2063 262.121 40.1196 262.641C40.033 263.161 39.8597 263.507 39.6864 263.507C39.5997 263.507 39.5131 263.074 39.5997 262.554C39.773 262.034 39.9463 261.601 40.033 261.688Z" fill="#455A64"/>
<path d="M40.7262 258.135C40.8129 258.135 40.8995 258.568 40.8129 259.088C40.7262 259.608 40.5529 259.955 40.3796 259.955C40.293 259.955 40.2063 259.521 40.293 259.002C40.4663 258.482 40.6396 258.135 40.7262 258.135Z" fill="#455A64"/>
<path d="M41.506 254.582C41.5927 254.582 41.6793 255.016 41.5927 255.536C41.506 256.055 41.3327 256.402 41.1594 256.402C41.0728 256.402 40.9861 255.969 41.0728 255.449C41.1594 254.929 41.3327 254.582 41.506 254.582Z" fill="#455A64"/>
<path d="M42.1993 251.03C42.2859 251.03 42.3726 251.463 42.2859 251.983C42.1993 252.503 42.0259 252.849 41.8526 252.849C41.766 252.849 41.6793 252.416 41.766 251.896C41.8526 251.463 42.0259 251.03 42.1993 251.03Z" fill="#455A64"/>
<path d="M42.8925 247.564C42.9791 247.564 43.0658 247.997 42.9791 248.517C42.8925 249.037 42.7192 249.383 42.5459 249.383C42.4592 249.383 42.3726 248.95 42.4592 248.43C42.5459 247.91 42.7192 247.477 42.8925 247.564Z" fill="#455A64"/>
<path d="M43.5857 244.011C43.6724 244.011 43.759 244.444 43.6724 244.964C43.5857 245.484 43.4124 245.831 43.2391 245.831C43.1525 245.831 43.0658 245.397 43.1525 244.877C43.2391 244.357 43.4991 244.011 43.5857 244.011Z" fill="#455A64"/>
<path d="M44.279 240.458C44.3656 240.458 44.4523 240.891 44.3656 241.411C44.279 241.931 44.1057 242.278 43.9324 242.278C43.8457 242.278 43.7591 241.845 43.8457 241.325C44.019 240.805 44.1923 240.458 44.279 240.458Z" fill="#455A64"/>
<path d="M114.9 131.537C114.9 131.537 120.879 122.525 121.052 122.439C121.052 122.439 126.425 113.34 128.244 113.34C130.064 113.34 129.371 115.16 127.551 118.453C125.905 121.312 125.731 123.132 125.731 123.132L130.151 125.818C130.151 125.818 133.097 124.692 133.27 127.464C133.27 128.418 133.097 129.544 132.75 131.19C132.577 132.144 132.144 133.27 131.19 132.837C130.757 132.664 130.411 132.317 130.411 131.71C130.324 130.064 130.671 129.457 130.411 129.457C130.151 129.457 127.204 138.036 127.204 138.036L114.9 131.537Z" fill="#FFBE9D"/>
<path d="M127.031 124.518C127.464 124.172 127.984 123.912 128.418 123.652C128.938 123.392 129.457 123.305 130.064 123.392C130.411 123.478 130.757 123.565 130.931 123.912C131.19 124.258 131.277 124.865 131.104 125.298C130.931 125.731 130.671 126.165 130.411 126.511" fill="#FFBE9D"/>
<path d="M125.038 122.699C125.471 122.439 125.905 122.092 126.425 121.919C126.945 121.745 127.464 121.572 127.984 121.659C128.331 121.745 128.591 121.832 128.851 122.092C129.111 122.439 129.111 122.959 129.024 123.392C128.851 123.825 127.898 124.778 127.638 125.212" fill="#FFBE9D"/>
<path d="M116.98 126.425L108.314 144.968L117.846 154.76L122.785 140.982C122.785 140.982 125.471 141.502 126.511 139.769C127.724 137.776 129.284 132.057 129.284 132.057L116.98 126.425Z" fill="#FFBE9D"/>
<path d="M123.219 125.991C123.132 125.991 123.305 124.692 124.258 123.392C124.692 122.785 125.298 122.352 125.731 122.092C126.165 121.832 126.511 121.745 126.511 121.832C126.598 122.005 125.472 122.525 124.605 123.652C123.738 124.865 123.392 125.991 123.219 125.991Z" fill="#EB996E"/>
<path d="M132.837 125.991C132.837 126.078 132.49 125.905 131.97 125.818C131.45 125.731 130.757 125.731 130.064 126.078C129.371 126.425 128.938 127.031 128.678 127.464C128.331 127.898 128.158 128.158 128.071 128.158C127.984 128.158 128.158 127.811 128.331 127.291C128.591 126.771 129.024 126.078 129.804 125.645C130.584 125.212 131.45 125.298 131.97 125.471C132.577 125.731 132.837 125.991 132.837 125.991Z" fill="#EB996E"/>
<path d="M129.631 123.392C129.631 123.565 128.591 123.738 127.638 124.605C126.685 125.471 126.165 126.425 126.078 126.425C125.991 126.425 126.251 125.212 127.378 124.258C127.898 123.825 128.504 123.478 128.938 123.392C129.284 123.305 129.544 123.392 129.631 123.392Z" fill="#EB996E"/>
<path d="M131.71 127.378C131.797 127.291 132.057 128.071 131.624 128.764C131.191 129.457 130.411 129.631 130.411 129.457C130.411 129.371 130.844 129.111 131.191 128.504C131.537 127.984 131.624 127.464 131.71 127.378Z" fill="#EB996E"/>
<path d="M114.987 131.19C114.987 131.19 114.727 125.645 116.026 124.432C117.326 123.219 121.226 124.518 121.226 124.518" fill="#FFBE9D"/>
<path d="M121.659 121.832C121.746 121.919 120.879 123.305 119.666 124.952C118.453 126.598 117.413 127.898 117.326 127.811C117.24 127.724 118.106 126.338 119.319 124.692C120.532 123.045 121.572 121.745 121.659 121.832Z" fill="#EB996E"/>
<path d="M44.9722 79.8928L44.8855 123.045L63.4289 123.912L63.9488 113.427C63.9488 113.427 70.5344 114.727 72.1807 108.661C73.3072 104.762 72.9606 74.607 72.9606 74.607L44.9722 79.8928Z" fill="#FFBE9D"/>
<path d="M75.3868 77.6398C72.4407 78.5063 71.8341 83.2722 71.8341 83.2722L67.2416 93.4104C64.902 91.5907 61.7825 91.6774 61.176 95.75C60.7427 98.6962 64.4687 99.3027 64.4687 99.3027C62.3024 102.942 60.916 105.888 57.7965 109.354C54.4171 113.08 52.5108 113.514 48.8714 113.514H44.7988C44.7988 113.514 42.8058 107.101 39.1665 91.0708C35.0938 73.3072 56.1502 75.5602 60.0495 71.0543C66.4617 63.6023 84.5719 74.9536 75.3868 77.6398Z" fill="#263238"/>
<path d="M39.5997 92.7172C36.2203 90.4643 35.8737 84.052 37.8667 80.1527C39.8597 76.34 44.019 73.7405 48.3515 73.6538C48.9581 73.6538 49.5647 73.6538 50.0846 73.4805C50.8644 73.1339 51.3843 72.4407 51.9043 71.7475C54.9371 67.7615 57.9699 63.8622 63.6022 63.8622C64.5554 63.8622 65.5086 63.8622 67.1549 64.7287C67.9348 65.162 69.1479 66.6351 69.3212 67.5882C70.361 67.0683 71.4875 66.5484 72.614 66.3751C73.7405 66.2018 75.0402 66.3751 75.9067 67.155C76.7733 67.9348 77.1199 69.4079 76.4266 70.3611C78.333 70.2744 80.1527 71.8342 80.4993 73.7405C80.7592 75.6468 78.073 76.9466 77.8131 77.1199C77.8131 77.1199 79.2862 80.2394 75.7334 82.1457C74.2604 82.9256 72.4407 81.9724 72.2674 81.8857" fill="#263238"/>
<path d="M53.1174 96.8765C53.2041 96.8765 53.3774 98.3495 53.0308 100.169C52.5975 101.989 51.8176 103.202 51.731 103.202C51.6443 103.115 52.1642 101.816 52.5975 100.083C52.9441 98.3495 52.9441 96.8765 53.1174 96.8765Z" fill="#455A64"/>
<path d="M55.3703 94.7968C55.457 94.7968 55.5436 96.2699 55.197 97.9163C54.8504 99.6493 54.3305 100.949 54.2438 100.949C54.1572 100.949 54.4172 99.5627 54.7638 97.8296C55.0237 96.0966 55.197 94.7102 55.3703 94.7968Z" fill="#455A64"/>
<path d="M61.7825 87.6048C61.8692 87.6914 61.2626 88.038 60.656 88.8179C59.9628 89.5977 59.183 90.8109 58.6631 92.2839C58.1431 93.757 57.7965 95.1434 57.5366 96.1833C57.2766 97.2231 57.1033 97.8296 57.1033 97.8296C57.0167 97.8296 57.1033 97.1364 57.2766 96.0966C57.4499 95.0568 57.7099 93.5837 58.2298 92.1106C58.8364 90.6376 59.6162 89.3378 60.3961 88.6446C61.0893 87.8647 61.6959 87.6048 61.7825 87.6048Z" fill="#455A64"/>
<path d="M64.2954 82.7523C64.382 82.7523 64.5553 83.1855 64.642 83.8787C64.7286 84.6586 64.7286 85.6984 64.4687 86.8249C64.2087 87.9514 63.6888 88.9045 63.2556 89.5111C62.8223 90.1176 62.3891 90.3776 62.3891 90.3776C62.3024 90.2909 63.5155 88.9045 64.0354 86.7382C64.642 84.6586 64.2087 82.8389 64.2954 82.7523Z" fill="#455A64"/>
<path d="M42.1993 93.5837C42.1126 93.6704 41.5927 93.4971 40.8995 93.1505C40.293 92.8038 39.7731 92.4572 39.8597 92.2839C39.9464 92.1973 40.4663 92.3706 41.1595 92.7172C41.8527 93.0638 42.2859 93.4104 42.1993 93.5837Z" fill="#455A64"/>
<path d="M51.211 88.9912C51.2977 88.9912 51.2977 89.9443 50.6911 90.8975C50.0846 91.8507 49.3047 92.3706 49.3047 92.1973C49.2181 92.1106 49.8246 91.5041 50.3445 90.6376C50.7778 89.6844 51.0377 88.9045 51.211 88.9912Z" fill="#455A64"/>
<path d="M53.8972 87.5181C53.9838 87.5181 53.8105 88.6446 53.0307 89.771C52.2508 90.8975 51.3843 91.5041 51.2976 91.4174C51.211 91.3308 51.9909 90.5509 52.6841 89.5111C53.4639 88.3846 53.8105 87.4314 53.8972 87.5181Z" fill="#455A64"/>
<path d="M67.5881 69.4079C67.5881 69.4079 67.2415 69.148 66.5483 68.8014C65.8551 68.4548 64.8153 68.0215 63.4288 68.0215C62.0424 68.0215 60.396 68.2814 58.8363 69.2346C57.2766 70.1878 55.9768 71.7475 54.937 73.5672C54.2438 74.867 53.7239 76.34 53.3773 77.6398L53.2906 77.8998L53.0307 77.7265C51.6442 77.0333 50.1712 76.6867 48.8714 76.6867C47.5716 76.6867 46.4451 76.86 45.492 77.2066C43.6723 77.8131 42.8058 78.6796 42.7191 78.593C42.7191 78.593 42.8924 78.333 43.3257 78.0731C43.7589 77.7265 44.4521 77.3799 45.3187 76.9466C46.2718 76.6 47.3983 76.34 48.7847 76.34C50.1712 76.34 51.6442 76.6 53.1173 77.3799L52.7707 77.5532C53.1173 76.2534 53.6372 74.7803 54.3304 73.3939C55.3702 71.4876 56.7567 69.9278 58.4031 68.888C60.0494 67.9348 61.7825 67.5882 63.1689 67.6749C64.5553 67.7615 65.6818 68.1948 66.375 68.6281C66.7216 68.888 66.9816 69.0613 67.0682 69.2346C67.5015 69.3213 67.5881 69.4079 67.5881 69.4079Z" fill="#455A64"/>
<path d="M77.3798 71.7475C77.3798 71.7475 77.8997 71.5742 78.4196 72.2674C78.6796 72.5274 78.9396 73.0473 78.8529 73.6538C78.7663 74.2604 78.4196 74.867 77.8131 75.2136C77.2065 75.5602 76.34 75.7335 75.5601 75.5602C74.7803 75.3869 74.0004 74.9536 73.2205 74.4337C72.5273 73.9138 71.7475 73.3072 70.9676 72.874C70.1011 72.4407 69.2346 72.0941 68.1948 71.9208C66.2018 71.5742 64.2954 71.7475 62.6491 72.2674C61.0027 72.7873 59.6163 73.5672 58.4898 74.3471C56.3235 75.9068 55.2837 77.2066 55.197 77.1199C55.197 77.1199 55.457 76.7733 55.8902 76.1667C56.4101 75.6468 57.19 74.867 58.2298 74.0005C59.2696 73.2206 60.7427 72.3541 62.3891 71.7475C64.1221 71.141 66.1151 70.9677 68.1948 71.3143C69.2346 71.4876 70.1877 71.8342 71.0543 72.3541C71.9208 72.874 72.614 73.4805 73.3939 74.0005C74.0871 74.5204 74.7803 74.9536 75.5601 75.1269C76.2534 75.3002 77.0332 75.2136 77.5531 74.867C78.073 74.607 78.5063 74.0871 78.5063 73.5672C78.5929 73.0473 78.4196 72.614 78.1597 72.3541C77.8131 71.7475 77.2932 71.8342 77.3798 71.7475Z" fill="#455A64"/>
<path d="M25.3023 127.551L8.75185 155.28C6.93217 158.572 5.19914 162.038 3.55276 165.591C2.25298 169.057 3.03285 173.476 5.28579 176.336L4.85253 175.643C6.67222 177.896 9.44507 179.195 12.3912 179.195H12.8245C16.6371 179.195 20.1032 176.943 21.6629 173.39L26.9487 165.331L25.3023 127.551Z" fill="#9E25FF"/>
<path d="M75.1269 122.265C70.7076 120.012 66.2884 119.493 61.5226 119.319C55.9769 119.146 48.0916 118.366 42.1126 119.059C42.1126 119.059 25.0423 120.359 23.8291 132.057L26.1687 187.081L22.2694 210.39L77.0332 212.036L76.6 184.568C77.2932 170.27 75.8201 149.994 75.8201 149.994C76.6866 142.282 80.8459 138.816 81.4524 133.877C82.059 129.371 79.1128 124.258 75.1269 122.265Z" fill="#9E25FF"/>
<path d="M59.7029 187.861C59.7029 187.861 59.4429 188.207 58.923 188.64C58.4031 189.074 57.5366 189.68 56.4101 190.374C54.2438 191.673 50.7777 192.973 46.7918 192.973C42.8058 193.06 39.3397 191.847 37.0868 190.633C35.9603 190.027 35.0938 189.42 34.4872 188.987C33.8807 188.554 33.6207 188.294 33.6207 188.294C33.7074 188.207 34.9205 189.247 37.1734 190.374C39.4264 191.5 42.8058 192.54 46.7051 192.54C50.5178 192.453 53.8972 191.24 56.1501 190.114C58.4897 188.814 59.7029 187.774 59.7029 187.861Z" fill="#263238"/>
<path d="M23.7426 132.664C23.7426 132.664 23.7426 132.837 23.8292 133.183C23.8292 133.617 23.9159 134.137 23.9159 134.743C24.0025 136.13 24.0892 138.036 24.1758 140.376C24.3491 145.228 24.6957 151.814 24.9557 159.006C25.3023 166.284 25.5622 172.87 25.8222 177.636C25.9088 179.975 26.0821 181.882 26.0821 183.268C26.0821 183.875 26.1688 184.395 26.1688 184.828C26.1688 185.174 26.1688 185.348 26.1688 185.348C26.1688 185.348 26.0821 185.174 26.0821 184.828C26.0821 184.395 25.9955 183.961 25.9088 183.268C25.8222 181.968 25.6489 179.975 25.4756 177.636C25.129 172.87 24.7824 166.284 24.5224 159.006C24.1758 151.727 24.0025 145.141 23.9159 140.289C23.8292 137.949 23.8292 136.043 23.8292 134.657C23.8292 134.05 23.8292 133.53 23.8292 133.097C23.7426 132.837 23.7426 132.664 23.7426 132.664Z" fill="#263238"/>
<path d="M20.3631 135.523C20.3631 135.523 20.2765 135.696 20.1898 135.956C20.0165 136.303 19.8432 136.65 19.5833 137.169C19.0633 138.209 18.1968 139.682 17.157 141.415C15.0774 144.968 11.9579 149.821 8.75181 155.28C7.19208 158.052 5.80566 160.739 4.67919 163.165C3.55272 165.591 2.94615 168.017 3.11946 170.097C3.20611 172.177 3.81267 173.736 4.41923 174.776C4.93914 175.816 5.3724 176.249 5.3724 176.336C5.3724 176.336 5.28575 176.249 5.02579 175.989C4.85249 175.729 4.50588 175.383 4.24593 174.863C3.63937 173.91 2.94615 172.263 2.77285 170.184C2.59955 168.104 3.11946 165.591 4.33258 163.078C5.45905 160.565 6.84548 157.879 8.4052 155.106C11.6113 149.647 14.7308 144.795 16.8971 141.329C17.9369 139.596 18.8034 138.209 19.41 137.169C19.6699 136.736 19.9299 136.303 20.1032 136.043C20.2765 135.696 20.3631 135.523 20.3631 135.523Z" fill="#263238"/>
<path d="M121.139 150.687L108.488 142.369L100.516 156.233C100.516 156.233 89.4245 140.809 84.3987 131.797C79.7195 123.479 73.7405 121.226 70.881 120.619C70.0145 120.446 69.2346 121.139 69.3213 122.005L73.6539 151.987C74.1738 153.547 83.3589 166.804 88.4713 173.476C96.9632 184.655 109.614 177.462 112.994 169.664C115.767 163.512 120.012 154.153 121.139 150.687Z" fill="#9E25FF"/>
<path d="M104.069 168.711C103.982 168.711 103.895 167.931 103.809 166.718C103.722 165.505 103.549 163.771 103.202 162.038C102.855 160.219 102.162 158.659 101.556 157.619C100.949 156.579 100.429 155.973 100.516 155.973C100.516 155.973 101.122 156.406 101.816 157.446C102.509 158.486 103.202 160.045 103.635 161.952C104.069 163.771 104.069 165.505 104.155 166.718C104.155 167.931 104.155 168.711 104.069 168.711Z" fill="#263238"/>
<path d="M107.795 162.558C107.708 162.558 107.621 161.952 107.361 160.912C107.015 159.959 106.408 158.659 105.368 157.533C104.328 156.406 103.029 155.713 101.989 155.713C100.949 155.626 100.429 156.059 100.343 155.973C100.256 155.973 100.862 155.366 101.989 155.366C103.115 155.28 104.588 156.059 105.715 157.186C106.841 158.399 107.448 159.786 107.708 160.825C107.881 161.865 107.881 162.558 107.795 162.558Z" fill="#263238"/>
<path d="M69.9278 124.345C69.9278 124.345 69.8412 124.518 69.5812 124.692C69.4945 124.778 69.3212 124.952 69.2346 125.125C69.0613 125.298 68.888 125.471 68.7147 125.731C68.0215 126.598 67.0683 128.071 66.5484 129.977C65.9418 131.884 65.6819 134.397 66.0285 137.083C66.2018 138.383 66.5484 139.769 67.155 141.155C67.6749 142.542 68.4547 143.842 69.2346 145.228C72.354 150.687 75.5602 155.366 77.8131 158.832C78.9396 160.479 79.8927 161.865 80.5859 162.818C81.2792 163.771 81.6258 164.291 81.6258 164.291C81.6258 164.291 81.5391 164.205 81.2792 163.945C81.1059 163.685 80.7593 163.338 80.4126 162.905C79.7194 162.038 78.6796 160.652 77.4665 159.006C75.0402 155.626 71.8341 150.947 68.7147 145.488C67.9348 144.102 67.2416 142.715 66.635 141.329C66.0285 139.942 65.6819 138.556 65.5086 137.169C65.162 134.397 65.4219 131.884 66.1151 129.977C66.7217 127.984 67.7615 126.598 68.4547 125.731C68.628 125.558 68.8013 125.298 68.9746 125.125C69.1479 124.952 69.2346 124.865 69.4079 124.778C69.8411 124.432 69.9278 124.345 69.9278 124.345Z" fill="#263238"/>
<path d="M70.0145 203.978C70.0145 203.978 69.9278 204.064 69.6678 204.151C69.3212 204.238 68.9746 204.411 68.5414 204.584C68.0215 204.758 67.4149 204.931 66.7217 205.104C66.0285 205.278 65.162 205.538 64.2954 205.711C62.4758 206.144 60.3095 206.577 57.7966 206.924C55.3703 207.271 52.5975 207.444 49.738 207.444C46.8785 207.444 44.1923 207.271 41.6794 206.924C39.2531 206.577 37.0002 206.231 35.1805 205.798C34.2273 205.624 33.4475 205.364 32.7543 205.191C32.0611 205.018 31.4545 204.844 30.9346 204.671C30.5013 204.498 30.0681 204.411 29.8081 204.324C29.5482 204.238 29.3749 204.151 29.4615 204.151C29.4615 204.151 29.6348 204.151 29.8948 204.238C30.2414 204.324 30.588 204.411 31.0212 204.498C31.5411 204.671 32.1477 204.844 32.8409 204.931C33.5341 205.104 34.4006 205.278 35.2672 205.451C37.0868 205.884 39.2531 206.231 41.766 206.491C44.1923 206.751 46.8785 206.924 49.738 206.924C52.5975 206.924 55.2837 206.751 57.7099 206.404C60.1362 206.057 62.3025 205.711 64.1221 205.364C65.0753 205.191 65.8552 204.931 66.5484 204.758C67.2416 204.584 67.8482 204.411 68.3681 204.238C68.8013 204.151 69.2346 203.978 69.4945 203.891C69.8411 203.978 70.0145 203.978 70.0145 203.978Z" fill="#263238"/>
<g opacity="0.3">
<path d="M22.7893 171.657L25.3022 167.844L24.0024 137.603L22.7893 171.657Z" fill="black"/>
</g>
<g opacity="0.3">
<path d="M65.5085 135.523C65.5085 135.523 65.5952 146.528 68.1081 150.947C70.621 155.28 76.6 164.725 76.6 164.205C76.6 163.598 76.2533 156.406 76.2533 156.406C76.2533 156.406 65.5952 141.762 65.5085 135.523Z" fill="black"/>
</g>
<path d="M20.623 172.61C20.623 172.61 20.363 172.783 19.8431 172.87C19.3232 172.957 18.5434 172.87 17.5902 172.61C16.7237 172.263 15.6839 171.657 14.8173 170.79C13.9508 169.837 13.171 168.711 12.4777 167.411C11.7845 166.198 11.178 164.985 10.3981 163.945C9.70489 162.992 8.92503 162.212 8.14516 161.692C6.58544 160.652 5.37231 160.739 5.37231 160.652C5.37231 160.652 5.63227 160.565 6.15218 160.652C6.67209 160.739 7.45195 160.912 8.23182 161.432C9.01168 161.952 9.8782 162.732 10.6581 163.685C11.4379 164.725 12.0445 165.938 12.7377 167.151C13.4309 168.364 14.1241 169.577 14.9906 170.444C15.8572 171.31 16.7237 171.917 17.5902 172.263C19.4099 172.957 20.623 172.523 20.623 172.61Z" fill="white"/>
<path d="M23.9159 153.633C23.8292 153.633 23.6559 152.94 23.136 151.987C22.6161 151.034 21.6629 149.734 20.3632 148.781C18.9767 147.741 17.5903 147.221 16.4638 146.961C15.424 146.701 14.6442 146.701 14.6442 146.614C14.6442 146.528 15.3374 146.441 16.4638 146.614C17.5903 146.788 19.15 147.308 20.5365 148.348C21.9229 149.387 22.8761 150.774 23.3093 151.814C23.9159 152.853 24.0025 153.633 23.9159 153.633Z" fill="white"/>
<path d="M65.682 137.343C65.682 137.429 65.0754 137.256 64.0356 137.169C62.9958 137.083 61.3494 137.083 59.5297 137.603C57.6233 138.036 55.5437 138.902 53.2041 140.116C50.9512 141.329 48.5249 142.802 45.8387 144.015C43.1525 145.315 40.293 145.921 37.6935 146.095C35.0939 146.268 32.7543 145.921 30.848 145.488C28.9417 145.055 27.4686 144.362 26.5154 143.928C25.9955 143.668 25.6489 143.495 25.389 143.322C25.129 143.148 25.0424 143.062 25.0424 143.062C25.0424 143.062 25.5623 143.322 26.6021 143.755C27.5553 144.188 29.0283 144.795 30.9347 145.228C32.841 145.661 35.0939 145.921 37.6935 145.748C40.2064 145.575 42.9792 144.968 45.6654 143.668C48.3516 142.455 50.7779 140.982 53.0308 139.769C55.2838 138.556 57.5367 137.689 59.443 137.343C61.3494 136.909 62.9958 136.909 64.0356 137.083C64.5555 137.169 64.9887 137.256 65.2487 137.343C65.5953 137.343 65.7686 137.343 65.682 137.343Z" fill="white"/>
<path d="M76.34 167.324C76.34 167.324 76.1667 167.411 75.8201 167.498C75.4735 167.584 75.0403 167.757 74.347 167.844C73.0473 168.104 71.1409 168.364 68.8013 168.277C66.4618 168.191 63.6889 167.844 60.6561 167.151C57.6233 166.458 54.3305 165.505 50.9511 164.465C47.5717 163.425 44.1923 162.645 41.1595 162.298C38.1267 161.952 35.3538 161.865 33.0142 162.212C30.6746 162.558 28.9416 163.165 27.7285 163.685C26.5154 164.205 25.9088 164.551 25.9088 164.551C25.9088 164.551 26.0821 164.465 26.3421 164.291C26.6887 164.118 27.0353 163.858 27.6418 163.598C28.855 162.992 30.6747 162.385 32.9276 161.952C35.2672 161.519 38.1267 161.519 41.1595 161.952C44.2789 162.298 47.5717 163.078 51.0378 164.118C54.5038 165.158 57.7099 166.111 60.7427 166.804C63.7756 167.498 66.4618 167.931 68.8013 168.017C71.1409 168.104 73.0473 167.931 74.2604 167.757C75.6468 167.498 76.34 167.324 76.34 167.324Z" fill="white"/>
<path d="M76.6866 184.481C76.6866 184.655 74.087 183.008 69.4945 182.575C67.1549 182.315 64.3821 182.488 61.3492 182.835C58.3164 183.268 55.0237 183.961 51.471 184.568C48.0049 185.261 44.6255 185.781 41.5927 186.041C38.4732 186.301 35.7004 186.301 33.3608 185.954C31.0212 185.694 29.2015 185.174 27.9884 184.655C27.3818 184.481 26.9486 184.221 26.602 184.048C26.2554 183.875 26.1687 183.788 26.1687 183.788C26.1687 183.788 26.8619 184.048 28.075 184.481C29.2882 184.914 31.1078 185.348 33.4474 185.608C35.787 185.868 38.5599 185.868 41.5927 185.608C44.6255 185.348 48.0049 184.741 51.471 184.048C54.937 183.355 58.3164 182.748 61.3492 182.315C64.3821 181.968 67.2416 181.795 69.5811 182.142C71.9207 182.402 73.7404 183.008 74.9535 183.528C75.5601 183.788 75.9934 184.048 76.34 184.135C76.5133 184.395 76.6866 184.481 76.6866 184.481Z" fill="white"/>
<path d="M48.5249 206.577C48.5249 206.577 48.1783 206.404 47.6584 206.057C47.1385 205.711 46.3586 205.104 45.4055 204.498C43.4125 203.198 40.7263 201.552 37.5202 199.992C34.314 198.432 31.2812 197.306 29.0283 196.526C27.9018 196.179 27.0353 195.833 26.4288 195.659C25.8222 195.486 25.4756 195.313 25.4756 195.313C25.4756 195.313 25.8222 195.313 26.5154 195.486C27.122 195.659 28.0751 195.833 29.2016 196.179C31.4545 196.872 34.4874 197.912 37.7801 199.472C40.9862 201.032 43.7591 202.765 45.6654 204.151C46.6186 204.844 47.3984 205.451 47.9183 205.798C48.265 206.317 48.5249 206.577 48.5249 206.577Z" fill="white"/>
<path d="M75.2135 206.317C75.2135 206.317 74.6069 206.837 73.3938 207.271C72.1807 207.704 70.4476 208.05 68.5413 208.05C66.635 207.964 64.9019 207.531 63.7755 207.011C62.649 206.491 61.9558 206.057 62.0424 205.971C62.0424 205.884 62.7357 206.317 63.9488 206.664C65.0752 207.097 66.8083 207.531 68.628 207.531C70.5343 207.617 72.1807 207.271 73.3938 206.924C74.4336 206.577 75.1268 206.231 75.2135 206.317Z" fill="white"/>
<path d="M94.1902 149.127C94.1902 149.127 94.1902 149.387 94.1036 149.907C94.0169 150.427 93.6703 151.034 93.0638 151.727C92.4572 152.42 91.6773 153.113 90.6375 153.72C89.5977 154.326 88.3846 154.76 87.1715 155.28C85.9583 155.8 84.7452 156.319 83.8787 157.013C83.0122 157.706 82.319 158.486 81.8857 159.266C81.1059 160.825 81.4525 161.952 81.3658 161.952C81.3658 161.952 81.1925 161.692 81.1925 161.172C81.1925 160.652 81.2792 159.959 81.6258 159.092C81.9724 158.312 82.6656 157.359 83.6188 156.666C84.5719 155.886 85.785 155.366 86.9982 154.846C88.2113 154.326 89.4244 153.893 90.4642 153.373C91.504 152.853 92.2839 152.16 92.8905 151.554C93.9303 150.254 94.1036 149.041 94.1902 149.127Z" fill="white"/>
<path d="M83.532 130.671C83.532 130.671 83.532 130.931 83.3587 131.45C83.2721 131.71 83.1854 131.97 83.0988 132.317C83.0121 132.664 82.8388 133.097 82.6655 133.443C82.3189 134.31 81.799 135.263 81.1058 136.303C80.4126 137.343 79.5461 138.383 78.5063 139.336C77.4664 140.289 76.34 141.069 75.3001 141.762C74.2603 142.369 73.2205 142.802 72.354 143.148C71.9207 143.322 71.4875 143.408 71.1409 143.495C70.7943 143.582 70.4477 143.668 70.1877 143.668C69.6678 143.755 69.4078 143.755 69.4078 143.755C69.4078 143.668 70.5343 143.495 72.1807 142.802C73.0472 142.455 74.0004 142.022 75.0402 141.329C76.08 140.722 77.1198 139.942 78.1596 138.989C79.1995 138.036 79.9793 136.996 80.6725 136.043C81.3658 135.09 81.8857 134.137 82.3189 133.27C83.0988 131.797 83.4454 130.671 83.532 130.671Z" fill="white"/>
<path d="M66.8084 119.319C66.8084 119.319 66.3751 119.579 65.5086 119.926C64.7288 120.272 63.5156 120.706 61.9559 121.139C60.4828 121.659 58.5765 122.092 56.5835 122.525C54.5039 122.959 52.2509 123.219 49.8247 123.479C47.3984 123.652 45.0588 123.652 42.9792 123.565C40.8996 123.479 38.9932 123.219 37.4335 122.959C35.8738 122.699 34.574 122.439 33.7075 122.265C32.841 122.092 32.4077 121.919 32.4077 121.919C32.4077 121.919 32.9276 122.005 33.7941 122.092C34.6607 122.265 35.9604 122.439 37.5202 122.699C39.0799 122.872 40.9862 123.045 43.0659 123.132C45.1455 123.219 47.4851 123.219 49.8247 123.045C52.2509 122.872 54.5039 122.525 56.5835 122.179C58.6631 121.745 60.4828 121.312 61.9559 120.879C63.5156 120.446 64.7288 120.099 65.5086 119.752C66.3751 119.406 66.8084 119.319 66.8084 119.319Z" fill="white"/>
<path d="M100.862 157.013C100.862 157.013 101.036 157.273 101.209 157.879C101.382 158.486 101.556 159.352 101.556 160.392C101.729 162.558 101.296 165.505 100.689 168.711C100.429 170.27 100.083 171.83 99.476 173.13C98.9561 174.43 98.1762 175.556 97.483 176.336C96.7031 177.116 96.0099 177.549 95.4033 177.809C94.8834 178.069 94.5368 178.069 94.5368 178.069C94.4502 177.982 95.8366 177.636 97.223 176.076C97.9162 175.296 98.6094 174.256 99.0427 172.957C99.5626 171.657 99.9092 170.184 100.169 168.537C100.776 165.331 101.209 162.472 101.122 160.305C101.209 158.312 100.776 157.099 100.862 157.013Z" fill="white"/>
<path d="M118.279 159.266C118.193 159.266 117.759 158.399 116.893 157.099C116.026 155.8 114.467 154.067 112.474 152.68C110.481 151.294 108.401 150.514 106.841 150.081C105.282 149.647 104.328 149.647 104.328 149.561C104.328 149.561 104.588 149.561 105.022 149.561C105.455 149.561 106.148 149.647 106.928 149.821C107.708 149.994 108.661 150.254 109.701 150.687C110.654 151.12 111.781 151.64 112.82 152.42C113.86 153.113 114.727 153.98 115.507 154.76C116.2 155.54 116.806 156.319 117.24 157.013C117.673 157.706 117.933 158.312 118.106 158.746C118.193 159.006 118.279 159.266 118.279 159.266Z" fill="white"/>
<g opacity="0.3">
<path d="M67.3282 204.671C68.1947 204.238 68.5413 203.025 67.9347 202.331C67.3282 201.638 66.375 201.465 65.4218 201.465C60.916 201.552 57.0166 204.584 52.5974 205.364C49.218 205.971 45.7519 205.278 42.5458 204.324C39.2531 203.371 36.1336 202.071 32.7542 201.378C32.061 201.205 31.3678 201.118 30.6746 201.292C29.9813 201.465 29.3748 201.985 29.2881 202.765C29.2015 203.458 29.3748 203.978 30.4146 204.324C30.4146 204.324 41.506 207.444 49.4779 207.271C58.0565 207.184 67.3282 204.671 67.3282 204.671Z" fill="black"/>
</g>
<path d="M110.249 224.296V215.474H113.231C113.92 215.474 114.486 215.591 114.928 215.827C115.37 216.06 115.698 216.38 115.91 216.788C116.123 217.195 116.229 217.659 116.229 218.179C116.229 218.699 116.123 219.16 115.91 219.562C115.698 219.964 115.372 220.28 114.932 220.51C114.493 220.737 113.931 220.85 113.248 220.85H110.835V219.885H113.213C113.684 219.885 114.063 219.816 114.351 219.678C114.641 219.54 114.85 219.345 114.98 219.092C115.112 218.837 115.178 218.532 115.178 218.179C115.178 217.826 115.112 217.517 114.98 217.253C114.847 216.989 114.636 216.785 114.346 216.641C114.056 216.495 113.673 216.421 113.196 216.421H111.318V224.296H110.249ZM114.402 220.333L116.573 224.296H115.333L113.196 220.333H114.402ZM118.009 224.296V215.474H123.334V216.421H119.077V219.403H123.058V220.35H119.077V223.349H123.403V224.296H118.009ZM125.259 224.296V215.474H130.55V216.421H126.328V219.403H130.153V220.35H126.328V224.296H125.259ZM132.379 224.296V215.474H135.361C136.05 215.474 136.616 215.591 137.058 215.827C137.5 216.06 137.828 216.38 138.04 216.788C138.253 217.195 138.359 217.659 138.359 218.179C138.359 218.699 138.253 219.16 138.04 219.562C137.828 219.964 137.502 220.28 137.062 220.51C136.623 220.737 136.061 220.85 135.378 220.85H132.965V219.885H135.343C135.814 219.885 136.193 219.816 136.481 219.678C136.771 219.54 136.98 219.345 137.11 219.092C137.242 218.837 137.308 218.532 137.308 218.179C137.308 217.826 137.242 217.517 137.11 217.253C136.977 216.989 136.766 216.785 136.476 216.641C136.186 216.495 135.803 216.421 135.326 216.421H133.448V224.296H132.379ZM136.532 220.333L138.703 224.296H137.463L135.326 220.333H136.532ZM140.139 224.296V215.474H145.464V216.421H141.207V219.403H145.188V220.35H141.207V223.349H145.533V224.296H140.139ZM152.214 217.679C152.163 217.243 151.953 216.904 151.585 216.663C151.218 216.421 150.767 216.301 150.233 216.301C149.842 216.301 149.5 216.364 149.207 216.49C148.917 216.617 148.69 216.79 148.527 217.012C148.366 217.233 148.285 217.484 148.285 217.766C148.285 218.001 148.341 218.203 148.453 218.373C148.568 218.54 148.715 218.679 148.893 218.791C149.071 218.9 149.258 218.99 149.453 219.062C149.648 219.131 149.828 219.187 149.991 219.23L150.887 219.471C151.117 219.532 151.373 219.615 151.654 219.721C151.939 219.828 152.21 219.973 152.469 220.156C152.73 220.337 152.945 220.57 153.115 220.854C153.284 221.139 153.369 221.488 153.369 221.901C153.369 222.378 153.244 222.809 152.994 223.194C152.747 223.578 152.385 223.884 151.908 224.111C151.435 224.338 150.859 224.451 150.181 224.451C149.549 224.451 149.002 224.35 148.54 224.146C148.08 223.942 147.718 223.657 147.454 223.293C147.193 222.928 147.045 222.504 147.01 222.022H148.113C148.142 222.355 148.254 222.631 148.449 222.849C148.647 223.064 148.897 223.225 149.199 223.331C149.503 223.435 149.831 223.486 150.181 223.486C150.589 223.486 150.955 223.42 151.28 223.288C151.604 223.153 151.861 222.967 152.051 222.728C152.24 222.487 152.335 222.206 152.335 221.884C152.335 221.591 152.253 221.353 152.089 221.169C151.926 220.985 151.71 220.836 151.443 220.721C151.176 220.606 150.887 220.505 150.577 220.419L149.492 220.109C148.802 219.911 148.257 219.628 147.855 219.26C147.453 218.893 147.252 218.412 147.252 217.817C147.252 217.323 147.385 216.892 147.652 216.525C147.922 216.154 148.284 215.867 148.738 215.663C149.194 215.456 149.704 215.353 150.267 215.353C150.836 215.353 151.341 215.455 151.784 215.659C152.226 215.86 152.576 216.136 152.835 216.486C153.096 216.836 153.234 217.234 153.248 217.679H152.214ZM155.125 224.296V215.474H156.194V219.403H160.898V215.474H161.966V224.296H160.898V220.35H156.194V224.296H155.125Z" fill="black"/>
</g>
<g clip-path="url(#clip1_67_743)">
<path d="M261.839 348.253H224.373V353.406H261.839V348.253Z" fill="#263238"/>
<path d="M261.893 353.46H224.32V348.199H261.893V353.46ZM224.427 353.352H261.732V348.36H224.427V353.352Z" fill="#263238"/>
<path d="M227.862 351.688L233.23 378.258H253.198L258.404 353.406L227.862 351.688Z" fill="#263238"/>
<path d="M227.862 375.735L230.761 379.707H254.969L258.404 375.735H227.862Z" fill="#455A64"/>
<path d="M241.711 352.44C241.657 352.44 241.55 340.148 241.496 324.904C241.442 309.713 241.496 297.368 241.55 297.368C241.603 297.368 241.711 309.66 241.764 324.904C241.818 340.148 241.764 352.44 241.711 352.44Z" fill="#263238"/>
<path d="M250.031 321.629C250.031 321.629 250.031 321.737 249.923 321.898C249.816 322.113 249.709 322.381 249.601 322.703C249.548 322.864 249.44 323.079 249.333 323.293C249.279 323.508 249.172 323.723 249.065 323.991C248.957 324.26 248.903 324.528 248.796 324.796C248.689 325.065 248.635 325.387 248.528 325.709C248.098 326.997 247.776 328.554 247.454 330.271C247.186 332.043 246.971 333.975 246.864 336.015C246.703 340.094 246.917 343.798 247.186 346.482C247.293 347.823 247.454 348.897 247.508 349.648C247.562 350.024 247.562 350.293 247.615 350.507C247.615 350.722 247.615 350.829 247.615 350.829C247.615 350.829 247.562 350.722 247.562 350.561C247.508 350.346 247.454 350.078 247.401 349.702C247.293 348.951 247.132 347.877 246.971 346.535C246.649 343.851 246.434 340.148 246.595 336.015C246.703 333.975 246.917 331.989 247.186 330.271C247.508 328.5 247.884 326.943 248.313 325.655C248.42 325.333 248.528 325.011 248.635 324.743C248.742 324.474 248.85 324.206 248.957 323.938C249.065 323.669 249.118 323.454 249.226 323.24C249.333 323.025 249.387 322.864 249.494 322.649C249.655 322.327 249.762 322.059 249.87 321.844C249.977 321.737 250.031 321.629 250.031 321.629Z" fill="#263238"/>
<path d="M249.064 311.646C249.064 311.646 249.011 311.807 248.957 312.075C248.85 312.343 248.742 312.719 248.581 313.202C248.474 313.471 248.42 313.739 248.313 314.007C248.206 314.329 248.098 314.652 247.991 315.027C247.776 315.725 247.508 316.53 247.293 317.443C247.186 317.872 247.025 318.355 246.917 318.892C246.81 319.375 246.703 319.912 246.542 320.449C246.273 321.522 246.112 322.703 245.844 323.884C245.414 326.353 245.092 329.037 244.824 331.882C244.609 334.726 244.502 337.464 244.448 339.933C244.448 342.402 244.448 344.657 244.556 346.535C244.609 347.448 244.663 348.307 244.717 349.058C244.77 349.81 244.824 350.454 244.878 350.99C244.931 351.473 244.931 351.903 244.985 352.171C244.985 352.44 244.985 352.601 244.985 352.601C244.985 352.601 244.931 352.44 244.931 352.171C244.878 351.849 244.824 351.473 244.77 350.99C244.717 350.454 244.663 349.81 244.609 349.058C244.556 348.307 244.448 347.448 244.448 346.535C244.341 344.657 244.287 342.402 244.287 339.933C244.287 337.464 244.395 334.726 244.663 331.828C244.931 328.983 245.307 326.246 245.737 323.776C246.005 322.542 246.166 321.415 246.434 320.341C246.542 319.804 246.703 319.268 246.81 318.785C246.971 318.301 247.078 317.818 247.186 317.335C247.401 316.423 247.669 315.618 247.937 314.92C248.045 314.544 248.152 314.222 248.259 313.954C248.367 313.632 248.474 313.363 248.581 313.149C248.742 312.665 248.903 312.29 249.011 312.021C249.011 311.807 249.064 311.646 249.064 311.646Z" fill="#263238"/>
<path d="M239.349 354.64C239.349 354.64 239.349 354.587 239.349 354.479C239.349 354.372 239.349 354.211 239.295 354.05C239.295 353.674 239.242 353.137 239.188 352.44C239.081 350.99 238.973 348.951 238.812 346.428C238.49 341.382 238.007 334.351 237.148 326.675C236.719 322.81 236.182 319.16 235.699 315.886C235.431 314.222 235.162 312.665 234.894 311.216C234.626 309.767 234.357 308.371 234.089 307.137C233.82 305.902 233.552 304.775 233.337 303.809C233.123 302.843 232.908 301.984 232.747 301.286C232.586 300.588 232.425 300.105 232.371 299.676C232.317 299.515 232.317 299.354 232.264 299.246C232.264 299.139 232.21 299.085 232.264 299.085C232.264 299.085 232.264 299.139 232.317 299.246C232.371 299.354 232.371 299.461 232.425 299.676C232.532 300.052 232.693 300.588 232.854 301.232C233.069 301.93 233.284 302.735 233.498 303.755C233.713 304.721 234.035 305.849 234.303 307.083C234.572 308.318 234.894 309.66 235.162 311.163C235.484 312.612 235.699 314.222 236.021 315.832C236.558 319.16 237.095 322.81 237.524 326.675C238.383 334.404 238.812 341.382 239.081 346.428C239.242 348.951 239.295 350.99 239.349 352.44C239.349 353.137 239.403 353.674 239.403 354.05C239.403 354.211 239.403 354.372 239.403 354.479C239.349 354.587 239.349 354.64 239.349 354.64Z" fill="#263238"/>
<path d="M241.389 303.379C241.228 301.608 239.456 300.32 237.685 300.32C235.914 300.32 234.303 301.34 233.23 302.735C232.156 304.131 231.566 305.795 231.083 307.513C229.902 311.646 229.258 315.94 229.741 320.18C230.224 324.421 231.995 328.607 235.001 331.613C235.484 332.096 236.128 332.579 236.826 332.418C237.202 332.365 237.524 332.096 237.792 331.828C243.804 326.407 247.239 318.301 247.025 310.25C246.971 308.64 246.756 306.976 245.898 305.634C244.985 304.238 242.945 302.843 241.389 303.379Z" fill="#9E25FF"/>
<path d="M228.292 289.37C227.487 290.873 226.628 292.376 225.823 293.825C225.769 293.932 225.715 294.04 225.554 294.04C225.447 294.04 225.34 293.932 225.232 293.825C223.031 290.497 220.884 287.169 218.684 283.788L220.294 282.982L228.292 289.37Z" fill="#9E25FF"/>
<g opacity="0.2">
<path d="M228.292 289.37C227.487 290.873 226.628 292.376 225.823 293.825C225.769 293.932 225.715 294.04 225.554 294.04C225.447 294.04 225.34 293.932 225.232 293.825C223.031 290.497 220.884 287.169 218.684 283.788L220.294 282.982L228.292 289.37Z" fill="black"/>
</g>
<path d="M241.55 297.421C234.142 293.074 226.681 288.672 219.274 284.324C219.059 284.217 218.791 284.056 218.737 283.788C218.63 283.466 218.898 283.143 219.113 282.875C222.173 279.708 226.628 277.883 231.029 278.205C235.431 278.527 239.617 281.05 241.764 284.915C243.911 288.779 244.019 293.771 241.55 297.421Z" fill="#9E25FF"/>
<path d="M222.495 280.084C222.495 280.084 222.602 280.084 222.763 280.03C222.978 280.03 223.246 279.977 223.622 279.977C224.373 279.977 225.393 280.03 226.735 280.245C228.023 280.46 229.526 280.889 231.137 281.587C232.747 282.285 234.357 283.305 235.86 284.646C237.363 285.988 238.544 287.545 239.403 289.048C240.262 290.551 240.852 292 241.174 293.288C241.496 294.577 241.657 295.596 241.711 296.348C241.764 296.724 241.764 296.992 241.764 297.207C241.764 297.421 241.764 297.475 241.764 297.475C241.764 297.475 241.711 297.099 241.603 296.348C241.496 295.65 241.335 294.577 240.959 293.342C240.261 290.873 238.598 287.545 235.699 284.861C232.747 282.177 229.258 280.889 226.735 280.46C225.447 280.245 224.427 280.138 223.676 280.138C222.924 280.138 222.495 280.138 222.495 280.084Z" fill="#263238"/>
<path d="M238.544 288.35C238.544 288.404 238.114 288.565 237.417 288.887C236.719 289.155 235.699 289.531 234.625 289.853C233.498 290.229 232.478 290.497 231.781 290.658C231.029 290.819 230.6 290.927 230.546 290.873C230.546 290.819 230.975 290.712 231.727 290.443C232.532 290.175 233.498 289.907 234.572 289.531C235.645 289.209 236.558 288.887 237.417 288.618C238.061 288.457 238.544 288.35 238.544 288.35Z" fill="#263238"/>
<path d="M235.055 278.957C235.109 278.957 235.27 280.084 235.323 281.426C235.377 282.821 235.27 283.949 235.162 283.895C235.109 283.895 235.055 282.768 235.055 281.426C235.001 280.084 234.948 278.957 235.055 278.957Z" fill="#263238"/>
<path d="M219.113 284.056C219.113 284.002 219.703 283.788 220.723 283.466C221.743 283.143 223.139 282.768 224.695 282.392C226.252 282.016 227.701 281.748 228.721 281.533C229.741 281.372 230.439 281.265 230.439 281.318C230.439 281.372 229.795 281.48 228.775 281.748C227.755 281.963 226.306 282.285 224.749 282.66C223.192 283.036 221.797 283.412 220.723 283.68C219.757 283.949 219.113 284.11 219.113 284.056Z" fill="#263238"/>
<path d="M231.298 299.246C229.365 297.797 227.379 297.529 224.964 297.582C222.548 297.69 220.24 298.388 218.04 299.354C214.282 301.018 210.74 303.433 208.539 306.868C206.231 310.304 205.479 314.866 207.143 318.57C207.304 318.946 207.519 319.321 207.895 319.482C208.27 319.643 208.754 319.536 209.129 319.375C213.423 317.979 217.717 316.584 221.636 314.383C225.554 312.182 229.151 309.177 231.244 305.204C231.727 304.238 232.156 303.218 232.264 302.145C232.371 301.125 232.049 299.998 231.298 299.246Z" fill="#9E25FF"/>
<path d="M231.298 298.763C231.298 298.763 231.19 298.817 230.976 298.871C230.761 298.924 230.439 299.032 230.063 299.193C229.848 299.246 229.634 299.354 229.419 299.407C229.204 299.515 228.936 299.622 228.667 299.676C228.131 299.891 227.487 300.105 226.842 300.427C226.52 300.588 226.145 300.749 225.769 300.91C225.393 301.071 225.017 301.286 224.642 301.501C223.89 301.877 223.085 302.36 222.226 302.843C220.616 303.863 218.845 305.097 217.181 306.6C215.517 308.103 214.067 309.66 212.833 311.163C212.242 311.914 211.652 312.665 211.169 313.363C210.901 313.739 210.686 314.061 210.471 314.383C210.256 314.705 210.042 315.027 209.881 315.349C209.505 315.94 209.183 316.584 208.915 317.067C208.754 317.335 208.646 317.55 208.539 317.765C208.485 318.033 208.378 318.248 208.27 318.409C208.109 318.731 207.948 319.053 207.841 319.268C207.734 319.482 207.68 319.536 207.68 319.536C207.68 319.536 207.734 319.429 207.787 319.214C207.895 318.999 208.002 318.677 208.163 318.355C208.27 318.14 208.324 317.979 208.431 317.711C208.539 317.496 208.646 317.228 208.807 316.96C209.076 316.423 209.344 315.832 209.773 315.242C209.988 314.974 210.203 314.652 210.417 314.276C210.632 313.954 210.901 313.578 211.115 313.256C211.598 312.504 212.189 311.807 212.779 311.055C214.014 309.552 215.463 307.942 217.181 306.493C218.898 304.99 220.616 303.755 222.28 302.735C223.139 302.252 223.89 301.769 224.695 301.393C225.071 301.179 225.447 301.018 225.823 300.857C226.198 300.696 226.52 300.535 226.896 300.374C227.54 300.052 228.184 299.837 228.721 299.676C228.99 299.568 229.258 299.461 229.473 299.407C229.687 299.354 229.956 299.246 230.117 299.193C230.492 299.085 230.814 298.978 231.029 298.924C231.19 298.817 231.298 298.763 231.298 298.763Z" fill="#263238"/>
<path d="M216.376 306.868C216.376 306.922 214.336 307.62 211.706 308.371C209.129 309.123 206.982 309.713 206.982 309.606C206.982 309.552 209.022 308.854 211.652 308.103C214.228 307.352 216.322 306.815 216.376 306.868Z" fill="#263238"/>
<path d="M216.161 317.174C216.107 317.174 216.107 316.638 216.054 315.725C216.054 314.813 216 313.578 216.054 312.236C216.107 310.84 216.161 309.606 216.215 308.747C216.268 307.835 216.376 307.298 216.376 307.298C216.429 307.298 216.429 307.835 216.376 308.747C216.322 309.713 216.322 310.948 216.268 312.236C216.215 313.578 216.215 314.759 216.161 315.725C216.215 316.584 216.215 317.174 216.161 317.174Z" fill="#263238"/>
<path d="M224.964 312.665C224.91 312.665 224.642 310.143 224.427 307.029C224.212 303.916 224.105 301.393 224.159 301.393C224.212 301.393 224.481 303.916 224.695 307.029C224.91 310.143 225.071 312.665 224.964 312.665Z" fill="#263238"/>
<path d="M214.014 301.125C214.014 301.071 214.604 301.071 215.517 301.071C216.429 301.071 217.717 301.125 219.113 301.125C220.509 301.179 221.797 301.232 222.709 301.286C223.622 301.34 224.212 301.393 224.212 301.447C224.212 301.501 223.622 301.501 222.709 301.501C221.797 301.501 220.509 301.447 219.113 301.447C217.717 301.393 216.429 301.34 215.517 301.286C214.604 301.232 214.014 301.179 214.014 301.125Z" fill="#263238"/>
<path d="M236.021 332.794C236.021 332.794 236.021 332.687 235.967 332.472C235.967 332.257 235.967 331.935 235.914 331.613C235.86 330.862 235.86 329.735 235.914 328.393C235.914 327.051 236.021 325.44 236.182 323.615C236.343 321.844 236.612 319.858 236.987 317.818C237.363 315.779 237.792 313.846 238.275 312.129C238.759 310.411 239.242 308.854 239.671 307.566C240.1 306.278 240.476 305.258 240.798 304.56C240.959 304.238 241.067 303.97 241.12 303.755C241.174 303.594 241.228 303.487 241.281 303.487C241.281 303.487 241.281 303.594 241.174 303.755C241.12 303.97 241.013 304.238 240.906 304.56C240.637 305.258 240.262 306.332 239.886 307.62C239.456 308.908 239.027 310.465 238.544 312.182C238.114 313.9 237.685 315.832 237.309 317.872C236.934 319.912 236.719 321.844 236.504 323.669C236.289 325.387 236.182 326.997 236.128 328.393C236.075 329.735 236.075 330.862 236.075 331.613C236.075 331.989 236.075 332.257 236.075 332.472C236.021 332.687 236.021 332.794 236.021 332.794Z" fill="#263238"/>
<path d="M237.202 317.604C237.202 317.604 236.88 317.979 236.29 318.57C235.699 319.16 234.894 319.912 233.981 320.717C233.069 321.522 232.156 322.22 231.512 322.757C230.868 323.24 230.439 323.562 230.439 323.508C230.439 323.454 230.815 323.132 231.405 322.596C232.103 322.005 232.908 321.307 233.82 320.502C234.733 319.697 235.538 318.999 236.182 318.409C236.773 317.872 237.148 317.55 237.202 317.604Z" fill="#263238"/>
<path d="M244.234 323.24C244.18 323.24 243.858 322.757 243.267 321.951C242.677 321.039 241.926 319.965 241.067 318.731C240.208 317.496 239.456 316.423 238.812 315.564C238.222 314.759 237.9 314.222 237.9 314.222C237.953 314.222 238.329 314.652 238.973 315.457C239.617 316.262 240.423 317.335 241.281 318.57C242.14 319.804 242.892 320.985 243.428 321.844C243.965 322.703 244.287 323.24 244.234 323.24Z" fill="#263238"/>
<path d="M240.53 305.419C240.584 305.473 238.222 307.083 235.323 308.962C232.371 310.84 230.009 312.343 229.956 312.236C229.902 312.182 232.264 310.572 235.162 308.693C238.115 306.815 240.53 305.365 240.53 305.419Z" fill="#263238"/>
<path d="M247.132 312.504C247.078 312.558 245.522 311.109 243.59 309.23C241.711 307.352 240.208 305.795 240.262 305.741C240.315 305.688 241.872 307.137 243.804 309.015C245.683 310.948 247.186 312.504 247.132 312.504Z" fill="#263238"/>
<path d="M248.796 312.397L250.782 312.236C252.231 312.129 253.573 311.699 254.862 311.002C255.452 310.679 256.096 310.304 256.74 310.035C259.209 309.015 262 309.23 264.684 309.069C269.032 308.854 273.38 307.727 277.298 305.849C277.513 305.741 277.728 305.58 277.835 305.365C278.264 304.614 277.459 303.97 276.815 303.54C273.434 301.447 269.998 299.354 266.134 298.28C262.269 297.26 257.921 297.421 254.647 299.676C250.889 302.306 249.44 307.781 248.796 312.397Z" fill="#9E25FF"/>
<path d="M277.889 305.097C277.889 305.097 277.781 305.043 277.567 304.936C277.352 304.829 277.03 304.668 276.6 304.453C275.795 304.024 274.561 303.379 273.058 302.682C271.555 301.984 269.73 301.179 267.637 300.588C265.543 299.998 263.074 299.676 260.605 299.998C258.082 300.32 255.828 301.286 254.164 302.735C252.5 304.185 251.534 305.956 250.836 307.459C250.138 308.962 249.709 310.25 249.387 311.109C249.226 311.538 249.118 311.86 249.011 312.129C248.903 312.343 248.903 312.504 248.85 312.451C248.85 312.451 248.85 312.343 248.957 312.075C249.011 311.807 249.118 311.485 249.279 311.055C249.548 310.143 249.977 308.854 250.675 307.352C251.373 305.849 252.339 304.024 254.056 302.521C255.72 301.018 258.082 299.998 260.605 299.676C263.181 299.354 265.65 299.676 267.744 300.266C269.891 300.857 271.716 301.716 273.219 302.413C274.722 303.165 275.903 303.809 276.708 304.292C277.084 304.507 277.406 304.721 277.62 304.829C277.835 305.043 277.942 305.097 277.889 305.097Z" fill="#263238"/>
<path d="M273.111 307.674C273.058 307.727 270.428 306.01 267.261 303.863C264.04 301.716 261.517 299.891 261.517 299.837C261.571 299.783 264.201 301.501 267.368 303.648C270.589 305.849 273.111 307.62 273.111 307.674Z" fill="#263238"/>
<path d="M270.589 299.622C270.589 299.676 269.676 299.944 268.549 300.052C267.422 300.159 266.456 300.105 266.456 299.998C266.456 299.944 267.368 299.891 268.549 299.783C269.622 299.676 270.535 299.568 270.589 299.622Z" fill="#263238"/>
<path d="M258.78 297.529C258.834 297.582 258.458 298.334 257.921 299.246C257.384 300.159 256.901 300.857 256.848 300.857C256.794 300.857 257.17 300.052 257.706 299.139C258.243 298.173 258.726 297.475 258.78 297.529Z" fill="#263238"/>
<path d="M261.142 309.23C261.142 309.284 260.659 309.015 259.853 308.532C259.102 308.049 258.082 307.405 256.955 306.6C255.881 305.795 254.915 305.043 254.217 304.507C253.52 303.97 253.09 303.594 253.144 303.594C253.144 303.54 253.627 303.863 254.325 304.399C255.13 304.99 256.042 305.688 257.116 306.439C258.189 307.244 259.209 307.942 259.961 308.425C260.712 308.908 261.142 309.23 261.142 309.23Z" fill="#263238"/>
<path d="M251.748 320.932C249.816 320.449 247.562 322.274 247.132 324.206C246.756 326.138 247.454 328.124 248.313 329.949C250.192 333.921 252.822 337.571 256.257 340.309C259.692 343.046 263.986 344.818 268.388 344.764C267.583 341.007 268.603 337.088 268.173 333.224C267.798 329.896 266.241 326.675 263.825 324.313C261.464 321.951 258.243 320.449 254.915 320.073C253.681 319.965 252.285 319.804 251.748 320.932Z" fill="#9E25FF"/>
<path d="M268.388 344.764C268.388 344.764 268.281 344.71 268.12 344.657C267.959 344.549 267.69 344.388 267.422 344.173C266.831 343.69 266.134 342.832 265.543 341.651C265.221 341.06 264.899 340.416 264.577 339.718C264.255 339.021 263.933 338.215 263.557 337.464C263.181 336.659 262.806 335.854 262.269 335.049C261.786 334.243 261.195 333.438 260.551 332.687C259.263 331.13 257.814 329.788 256.633 328.554C255.398 327.265 254.379 326.085 253.627 324.957C252.876 323.83 252.392 322.864 252.178 322.166C252.07 321.79 251.963 321.522 251.909 321.361C251.856 321.146 251.856 321.093 251.856 321.093C251.856 321.093 251.963 321.468 252.285 322.166C252.554 322.864 253.037 323.83 253.788 324.904C254.54 325.977 255.559 327.212 256.794 328.446C258.028 329.681 259.424 331.023 260.766 332.579C261.41 333.331 262.001 334.136 262.537 334.995C263.02 335.8 263.45 336.659 263.826 337.464C264.201 338.269 264.523 339.021 264.845 339.772C265.167 340.47 265.49 341.114 265.812 341.704C266.402 342.885 267.046 343.744 267.583 344.227C268.066 344.549 268.442 344.764 268.388 344.764Z" fill="#263238"/>
<path d="M258.512 341.651C258.458 341.651 258.512 341.168 258.673 340.362C258.834 339.557 259.048 338.484 259.424 337.303C259.746 336.122 260.122 335.048 260.39 334.297C260.659 333.546 260.873 333.116 260.927 333.116C260.981 333.116 260.82 333.599 260.605 334.351C260.39 335.102 260.068 336.176 259.692 337.357C259.37 338.537 259.102 339.611 258.887 340.362C258.673 341.168 258.512 341.651 258.512 341.651Z" fill="#263238"/>
<path d="M268.066 332.418C268.066 332.472 267.529 332.311 266.724 332.096C265.919 331.882 264.738 331.56 263.503 331.291C262.215 331.023 261.088 330.808 260.229 330.647C259.37 330.486 258.834 330.379 258.834 330.325C258.834 330.271 259.37 330.325 260.229 330.432C261.088 330.54 262.269 330.754 263.503 331.023C264.792 331.291 265.919 331.613 266.724 331.882C267.583 332.204 268.066 332.365 268.066 332.418Z" fill="#263238"/>
<path d="M251.373 335.102C251.319 335.102 251.426 334.512 251.587 333.599C251.748 332.687 252.017 331.452 252.392 330.057C252.768 328.661 253.144 327.48 253.412 326.568C253.734 325.709 253.949 325.172 253.949 325.172C254.003 325.172 253.842 325.763 253.573 326.621C253.305 327.534 252.983 328.768 252.607 330.11C252.231 331.506 251.963 332.74 251.748 333.653C251.587 334.565 251.426 335.102 251.373 335.102Z" fill="#263238"/>
<path d="M263.665 324.367C263.665 324.421 261.249 324.26 258.297 323.938C255.345 323.615 252.983 323.293 252.983 323.24C252.983 323.186 255.398 323.347 258.351 323.669C261.249 323.991 263.665 324.313 263.665 324.367Z" fill="#263238"/>
<path d="M261.893 353.352C261.893 353.406 253.466 353.46 243.106 353.46C232.747 353.46 224.32 353.406 224.32 353.352C224.32 353.298 232.747 353.245 243.106 353.245C253.466 353.245 261.893 353.298 261.893 353.352Z" fill="#455A64"/>
<path d="M256.042 364.195C256.042 364.248 250.353 364.302 243.375 364.302C236.397 364.302 230.707 364.248 230.707 364.195C230.707 364.141 236.397 364.087 243.375 364.087C250.353 364.087 256.042 364.141 256.042 364.195Z" fill="#455A64"/>
<path d="M256.257 365.751C256.257 365.805 250.567 365.859 243.589 365.859C236.612 365.859 230.922 365.805 230.922 365.751C230.922 365.698 236.612 365.644 243.589 365.644C250.621 365.59 256.257 365.698 256.257 365.751Z" fill="#455A64"/>
<path d="M256.257 362.907C256.257 362.96 250.406 363.014 243.16 363.014C235.914 363.014 230.063 362.96 230.063 362.907C230.063 362.853 235.914 362.799 243.16 362.799C250.406 362.799 256.257 362.853 256.257 362.907Z" fill="#455A64"/>
</g>
<defs>
<clipPath id="clip0_67_743">
<rect width="218.535" height="383" fill="white"/>
</clipPath>
<clipPath id="clip1_67_743">
<rect width="71.7653" height="101.556" fill="white" transform="translate(206.231 278.152)"/>
</clipPath>
</defs>
</svg>
