<svg xmlns="http://www.w3.org/2000/svg" width="181.088" height="161.241" viewBox="0 0 181.088 161.241">
  <g id="school-2" transform="translate(0 -28.057)">
    <g id="Group_57351" data-name="Group 57351" transform="translate(0 28.057)">
      <path id="Path_64991" data-name="Path 64991" d="M178.435,183.993h-3.018v-74.08h3.018a2.653,2.653,0,0,0,2.424-3.73L169.519,80.666a2.653,2.653,0,0,0-2.424-1.575H111.489L93.2,60.8V47.538H110.39a2.653,2.653,0,0,0,2.653-2.653V30.71a2.653,2.653,0,0,0-2.653-2.653H90.544a2.653,2.653,0,0,0-2.653,2.653V60.8L69.6,79.091H13.993a2.653,2.653,0,0,0-2.424,1.575L.228,106.183a2.653,2.653,0,0,0,2.424,3.73H5.67v74.08H2.653a2.653,2.653,0,1,0,0,5.305H178.435a2.653,2.653,0,0,0,0-5.306Zm-70.7-141.76H93.2v-8.87h14.541ZM15.717,84.4H64.293L44.082,104.607H6.734Zm-4.742,25.517h34.2a2.652,2.652,0,0,0,1.876-.777L90.544,65.648l43.488,43.488a2.652,2.652,0,0,0,1.876.777h19.846a2.653,2.653,0,0,0,0-5.305H137.006L116.794,84.4h48.576l8.983,20.211h-7.259a2.653,2.653,0,0,0,0,5.305h3.018v74.08H115.878v-8.688a2.653,2.653,0,0,0-2.653-2.653h-3.018V149.788a2.653,2.653,0,0,0-2.653-2.653H73.533a2.653,2.653,0,0,0-2.653,2.653v22.864H67.863a2.653,2.653,0,0,0-2.653,2.653v8.688H10.975ZM104.9,152.441v20.211H93.2V152.441ZM87.891,172.652H76.185V152.441H87.891Zm22.682,5.305v6.035H70.515v-6.035Z" transform="translate(0 -28.057)" fill="#6b00c3"/>
    </g>
    <g id="Group_57352" data-name="Group 57352" transform="translate(70.88 93.266)">
      <path id="Path_64992" data-name="Path 64992" d="M220.067,251.755A19.664,19.664,0,1,0,200.4,232.091a19.686,19.686,0,0,0,19.664,19.664Zm0-34.023a14.359,14.359,0,1,1-14.359,14.359,14.375,14.375,0,0,1,14.359-14.359Z" transform="translate(-200.403 -212.427)" fill="#6b00c3"/>
    </g>
    <g id="Group_57353" data-name="Group 57353" transform="translate(87.891 107.442)">
      <path id="Path_64993" data-name="Path 64993" d="M251.153,266.318a2.653,2.653,0,0,0,2.653-2.653v-4.031l4.2-2.1a2.653,2.653,0,1,0-2.373-4.745l-5.67,2.835A2.652,2.652,0,0,0,248.5,258v5.67A2.653,2.653,0,0,0,251.153,266.318Z" transform="translate(-248.5 -252.507)" fill="#6b00c3"/>
    </g>
    <g id="Group_57354" data-name="Group 57354" transform="translate(17.011 147.135)">
      <path id="Path_64994" data-name="Path 64994" d="M90.443,364.734H50.75a2.653,2.653,0,0,0-2.653,2.653V384.4a2.653,2.653,0,0,0,2.653,2.653h5.671a2.653,2.653,0,1,0,0-5.305H53.4V370.039H67.943v11.706h-.182a2.653,2.653,0,1,0,0,5.305H90.443A2.653,2.653,0,0,0,93.1,384.4V367.387A2.653,2.653,0,0,0,90.443,364.734ZM87.79,381.745H73.249V370.039H87.79Z" transform="translate(-48.097 -364.734)" fill="#6b00c3"/>
    </g>
    <g id="Group_57355" data-name="Group 57355" transform="translate(17.011 118.783)">
      <path id="Path_64995" data-name="Path 64995" d="M90.443,284.573H50.75a2.653,2.653,0,0,0-2.653,2.653v17.011a2.653,2.653,0,0,0,2.653,2.653H90.443a2.653,2.653,0,0,0,2.653-2.653V287.226A2.653,2.653,0,0,0,90.443,284.573ZM53.4,289.878H67.943v11.706H53.4ZM87.79,301.584H73.249V289.878H87.79Z" transform="translate(-48.097 -284.573)" fill="#6b00c3"/>
    </g>
    <g id="Group_57356" data-name="Group 57356" transform="translate(119.078 147.135)">
      <path id="Path_64996" data-name="Path 64996" d="M339.33,387.051h39.693a2.653,2.653,0,0,0,2.653-2.653V367.387a2.653,2.653,0,0,0-2.653-2.653H339.33a2.653,2.653,0,0,0-2.653,2.653V384.4A2.653,2.653,0,0,0,339.33,387.051Zm37.04-5.305H361.829V370.039H376.37Zm-34.388-11.706h14.541v11.706H341.982Z" transform="translate(-336.677 -364.734)" fill="#6b00c3"/>
    </g>
    <g id="Group_57357" data-name="Group 57357" transform="translate(119.078 118.783)">
      <path id="Path_64997" data-name="Path 64997" d="M339.33,306.889h39.693a2.653,2.653,0,0,0,2.653-2.653V287.225a2.653,2.653,0,0,0-2.653-2.653H339.33a2.653,2.653,0,0,0-2.653,2.653v17.011A2.652,2.652,0,0,0,339.33,306.889Zm37.04-5.305H361.829V289.877H376.37Zm-34.388-11.706h14.541v11.706H341.982Z" transform="translate(-336.677 -284.572)" fill="#6b00c3"/>
    </g>
  </g>
</svg>
