<svg xmlns="http://www.w3.org/2000/svg" width="193.974" height="177" viewBox="0 0 193.974 177">
  <g id="_20_Love" data-name="20 Love" transform="translate(-0.14 -45)">
    <path id="Path_64990" data-name="Path 64990" d="M67.575,69.508a2.841,2.841,0,1,0,5.111-2.481l-7.16-14.745a2.841,2.841,0,1,0-5.111,2.485Zm29.5-4.08a2.841,2.841,0,0,0,2.841-2.841V47.841a2.841,2.841,0,0,0-5.683,0V62.586a2.841,2.841,0,0,0,2.841,2.841Zm25.7,5.395a2.834,2.834,0,0,0,3.788-1.315l7.16-14.741a2.841,2.841,0,1,0-5.111-2.485l-7.16,14.745a2.838,2.838,0,0,0,1.322,3.8Zm30.747,9.668a2.785,2.785,0,0,0,1.239.288,2.834,2.834,0,0,0,2.557-1.6l3.967-8.16a2.841,2.841,0,0,0-5.111-2.485l-3.967,8.164a2.838,2.838,0,0,0,1.315,3.8Zm9.547,109.252-.057-.068-8.005-9.092a29.255,29.255,0,0,0-25.667-9.721l-23.894,3.031a4.977,4.977,0,0,1-5.5-4.213,4.664,4.664,0,0,1,2.5-4.6l22.113-11.142a23.322,23.322,0,0,0,11.131-29.073l-1.485-3.883a19.7,19.7,0,0,0-27.542-10.4,4.6,4.6,0,0,1-5.952-1.493,4.546,4.546,0,0,1-.678-3.584c.5-2.231,2.788-3.319,4.637-4.4a28.338,28.338,0,0,1,37.548,8.179,2.842,2.842,0,1,0,4.656-3.262A34.2,34.2,0,0,0,134.654,95.33a33.824,33.824,0,0,0-28.864-1.137,4.6,4.6,0,0,1,2.163-4.944c9.187-5.349,20.458-7.035,29.861-2.171a28.451,28.451,0,0,1,10.168,8.9l15.8,22.553a2.841,2.841,0,0,0,4.656-3.258l-15.8-22.553a34.1,34.1,0,0,0-12.21-10.684c-11.479-5.948-24.3-4.167-35.343,2.315a10.267,10.267,0,0,0-4.41,12.5,15.055,15.055,0,0,0-3.6,2.58,14.4,14.4,0,0,0-3.6-2.58,10.267,10.267,0,0,0-4.41-12.5l-2.481-1.462A34.009,34.009,0,0,0,41.5,92.708L.6,151.1a2.841,2.841,0,0,0,4.652,3.258L46.17,95.966a28.349,28.349,0,0,1,37.548-8.179c2.148,1.258,5.334,3.323,4.645,6.4A33.823,33.823,0,0,0,59.5,95.322a34.2,34.2,0,0,0-12.214,10.684,2.842,2.842,0,0,0,4.656,3.262A28.338,28.338,0,0,1,89.5,101.1l2.478,1.451a4.6,4.6,0,0,1-4.47,8.028,19.7,19.7,0,0,0-27.557,10.4l-1.481,3.879a23.326,23.326,0,0,0,11.153,29.084l22.068,11.123a4.664,4.664,0,0,1,2.523,4.611,5,5,0,0,1-5.5,4.213L75.1,172.16a2.839,2.839,0,0,0-.716,5.633l13.6,1.731a10.854,10.854,0,0,0,9.092-3.254,10.839,10.839,0,0,0,9.092,3.254l23.894-3.031a23.591,23.591,0,0,1,20.681,7.835l7.979,9.092,22.674,27.493a2.841,2.841,0,1,0,4.383-3.614Zm-66-27.641a10.5,10.5,0,0,0-2.8-2.1L72.2,148.876a17.647,17.647,0,0,1-8.426-22L65.249,123a14.017,14.017,0,0,1,19.594-7.4A10.278,10.278,0,0,0,97.068,113.6a10.278,10.278,0,0,0,12.225,2.008,14.017,14.017,0,0,1,19.6,7.4l1.481,3.876a17.643,17.643,0,0,1-8.4,21.973L99.86,160a10.43,10.43,0,0,0-2.788,2.1ZM193.546,151.1l-18.969-27.08a2.842,2.842,0,1,0-4.656,3.262l18.973,27.076a2.841,2.841,0,1,0,4.652-3.258ZM64.806,170.846a29.255,29.255,0,0,0-25.663,9.721l-7.99,9.108-.057.068L8.376,217.274a2.841,2.841,0,1,0,4.383,3.614l22.674-27.493,7.979-9.092a23.591,23.591,0,0,1,20.7-7.819,2.841,2.841,0,1,0,.712-5.638Zm-27.97-91.67a2.834,2.834,0,0,0,2.557,1.6,2.784,2.784,0,0,0,1.239-.288A2.838,2.838,0,0,0,41.946,76.7L37.972,68.53a2.841,2.841,0,0,0-5.111,2.485Z" transform="translate(0 0)" fill="#6b00c3"/>
  </g>
</svg>
