<svg xmlns="http://www.w3.org/2000/svg" width="170" height="170" viewBox="0 0 170 170">
  <g id="smoke" transform="translate(-1 -1)">
    <path id="Path_65011" data-name="Path 65011" d="M63.979,58.5a10.884,10.884,0,0,1-7.754,3.214H45.452A16.468,16.468,0,0,0,29,78.167h5.484A10.979,10.979,0,0,1,45.452,67.2H56.225a16.332,16.332,0,0,0,11.634-4.82L72.07,58.17l-3.877-3.877Z" transform="translate(48.774 92.833)" fill="#6b00c3"/>
    <path id="Path_65012" data-name="Path 65012" d="M64.222,75.373a17.388,17.388,0,0,0-1.615-34.228L53.5,40.008l-.68,5.44,9.106,1.138a11.9,11.9,0,0,1,1.108,23.433l-16.474,3.66A29.909,29.909,0,0,0,23,103.051h5.484A24.454,24.454,0,0,1,47.749,79.034Z" transform="translate(38.323 67.949)" fill="#6b00c3"/>
    <path id="Path_65013" data-name="Path 65013" d="M93.206,83.644l2.037-5.092a79.034,79.034,0,0,0-29.492-5.681H25.677a19.194,19.194,0,0,1,0-38.387A25.66,25.66,0,0,1,45.811,44.16l2.4,3.005L52.5,43.738l-2.4-3.005A31.123,31.123,0,0,0,25.677,29a24.677,24.677,0,1,0,0,49.355H65.751a73.508,73.508,0,0,1,27.455,5.289Z" transform="translate(0 48.774)" fill="#6b00c3"/>
    <path id="Path_65014" data-name="Path 65014" d="M14.965,40.544l3.869-1.289-1.733-5.2-3.869,1.291A9.115,9.115,0,0,0,16.117,53.1H50.871V47.621H16.117a3.632,3.632,0,0,1-1.152-7.077Z" transform="translate(10.452 57.573)" fill="#6b00c3"/>
    <path id="Path_65015" data-name="Path 65015" d="M25,39H35.968v5.484H25Z" transform="translate(41.806 66.194)" fill="#6b00c3"/>
    <path id="Path_65016" data-name="Path 65016" d="M26.107,49.61,52.69,51.382l.365-5.473L26.472,44.137a12.841,12.841,0,0,1,.853-25.654h9.095V13H27.324a18.325,18.325,0,0,0-1.217,36.61Z" transform="translate(13.935 20.903)" fill="#6b00c3"/>
    <path id="Path_65017" data-name="Path 65017" d="M24.263,29.162a38.224,38.224,0,0,1,34.9-22.679h2.46a38.274,38.274,0,0,1,36.843,28.14l5.292-1.44A43.769,43.769,0,0,0,61.619,1h-2.46A43.717,43.717,0,0,0,19.251,26.933l-.165.37,5.01,2.232Z" transform="translate(31.505 0)" fill="#6b00c3"/>
    <path id="Path_65018" data-name="Path 65018" d="M78.8,39.887l.606-5.451-39.6-4.4a8.221,8.221,0,0,1-7.321-8.176V20.71a8.226,8.226,0,1,1,16.452,0v2.742h5.484V20.71A13.71,13.71,0,1,0,27,20.71v1.152A13.7,13.7,0,0,0,39.2,35.489Z" transform="translate(45.29 10.452)" fill="#6b00c3"/>
    <path id="Path_65019" data-name="Path 65019" d="M79.965,22.439l7.085,1.012a11.359,11.359,0,0,1-.195,22.517L40.345,51.78a10.668,10.668,0,0,0-.433,21.107l9.83,1.64.9-5.41-9.83-1.64a5.183,5.183,0,0,1,.211-10.255L87.536,51.41a16.844,16.844,0,0,0,.293-33.389L80.744,17.01Z" transform="translate(52.258 27.888)" fill="#6b00c3"/>
    <path id="Path_65020" data-name="Path 65020" d="M0,0H5.487V19.388H0Z" transform="matrix(0.141, -0.99, 0.99, 0.141, 82.833, 61.268)" fill="#6b00c3"/>
    <path id="Path_65021" data-name="Path 65021" d="M55.968,49.452a5.484,5.484,0,1,1,0-10.968,23.588,23.588,0,0,1,16.783,6.948l.469.472L77.1,42.032l-.472-.474A29.037,29.037,0,0,0,55.968,33a10.968,10.968,0,0,0,0,21.935Z" transform="translate(76.645 55.742)" fill="#6b00c3"/>
    <path id="Path_65022" data-name="Path 65022" d="M81.9,43v1.335a20.624,20.624,0,0,1-20.6,20.6,6.817,6.817,0,0,1-2.158-13.285l1.689-.562-1.733-5.2-1.689.565A12.3,12.3,0,0,0,61.3,70.419,26.115,26.115,0,0,0,87.387,44.335V43Z" transform="translate(83.613 73.161)" fill="#6b00c3"/>
  </g>
</svg>
