<svg xmlns="http://www.w3.org/2000/svg" width="21" height="21" viewBox="0 0 21 21">
  <g id="Layer_2" data-name="Layer 2" transform="translate(0 -0.223)">
    <g id="_62.spotify" data-name="62.spotify" transform="translate(0 0.223)">
      <circle id="background" cx="10.5" cy="10.5" r="10.5" fill="#12c64b"/>
      <g id="icon" transform="translate(3.943 6.199)">
        <path id="Path_64939" data-name="Path 64939" d="M54.222,105.046a.626.626,0,0,1-.856.225,9.287,9.287,0,0,0-4.853-1.082,12.049,12.049,0,0,0-2.517.332.626.626,0,0,1-.332-1.2,13.045,13.045,0,0,1,2.775-.38,12.3,12.3,0,0,1,2.674.194A9.031,9.031,0,0,1,54,104.186a.625.625,0,0,1,.222.861Z" transform="translate(-43.762 -96.915)" fill="#fff"/>
        <path id="Path_64940" data-name="Path 64940" d="M51.509,82.122a.741.741,0,0,1-.641.368.731.731,0,0,1-.374-.1,10.909,10.909,0,0,0-5.747-1.274,14.225,14.225,0,0,0-2.981.393.742.742,0,0,1-.393-1.43,15.375,15.375,0,0,1,3.287-.445,14.36,14.36,0,0,1,3.168.23,10.678,10.678,0,0,1,3.415,1.248A.742.742,0,0,1,51.509,82.122Z" transform="translate(-39.886 -76.408)" fill="#fff"/>
        <path id="Path_64941" data-name="Path 64941" d="M45.924,55.962a.908.908,0,0,1-1.244.326c-4.634-2.708-10.644-1.1-10.7-1.082a.91.91,0,1,1-.481-1.754,18.889,18.889,0,0,1,4.022-.542,17.813,17.813,0,0,1,3.885.281,13.124,13.124,0,0,1,4.189,1.522.91.91,0,0,1,.331,1.249Z" transform="translate(-32.794 -52.897)" fill="#fff"/>
      </g>
    </g>
  </g>
</svg>
