<svg xmlns="http://www.w3.org/2000/svg" width="16.855" height="16.144" viewBox="0 0 16.855 16.144">
  <path id="Path_29" data-name="Path 29" d="M345.549,291.932a1,1,0,0,1,1.9,0l1.3,4.016a1,1,0,0,0,.952.691h4.22a1,1,0,0,1,.588,1.809l-3.417,2.486a1,1,0,0,0-.362,1.117l1.3,4.02a1,1,0,0,1-1.539,1.118l-3.412-2.482a1,1,0,0,0-1.176,0l-3.412,2.482a1,1,0,0,1-1.539-1.118l1.3-4.02a1,1,0,0,0-.362-1.117l-3.417-2.486a1,1,0,0,1,.588-1.809h4.22a1,1,0,0,0,.952-.691Z" transform="translate(-338.072 -291.241)" fill="#f2e7fa"/>
</svg>
