<svg xmlns="http://www.w3.org/2000/svg" width="198.92" height="200.645" viewBox="0 0 198.92 200.645">
  <g id="_x34_1" transform="translate(-3.441 -3.167)">
    <path id="Path_65045" data-name="Path 65045" d="M22.335,12.657a9.447,9.447,0,1,0-9.492,9.49A9.5,9.5,0,0,0,22.335,12.657Zm-15.742,0A6.3,6.3,0,1,1,12.843,19,6.3,6.3,0,0,1,6.592,12.657Z" transform="translate(0 0)" fill="#6b00c3"/>
    <path id="Path_65046" data-name="Path 65046" d="M74.253,10.374H70.616V6.736a1.576,1.576,0,1,0-3.152,0v3.638H63.826a1.576,1.576,0,1,0,0,3.152h3.638v3.639a1.576,1.576,0,0,0,3.152,0V13.526h3.638a1.576,1.576,0,1,0,0-3.152Z" transform="translate(126.532 4.288)" fill="#6b00c3"/>
    <path id="Path_65047" data-name="Path 65047" d="M48.509,14.056a1.575,1.575,0,0,0,2.228,0l2.573-2.574,2.573,2.574a1.576,1.576,0,0,0,2.228-2.228L55.538,9.254,58.111,6.68a1.576,1.576,0,0,0-2.228-2.228L53.31,7.025,50.737,4.452A1.576,1.576,0,0,0,48.509,6.68l2.573,2.574-2.573,2.574A1.575,1.575,0,0,0,48.509,14.056Z" transform="translate(95.973 1.77)" fill="#6b00c3"/>
    <path id="Path_65048" data-name="Path 65048" d="M14.673,59.365a9.489,9.489,0,1,0,9.489,9.49A9.459,9.459,0,0,0,14.673,59.365Zm0,15.827a6.338,6.338,0,1,1,6.337-6.337A6.3,6.3,0,0,1,14.673,75.193Z" transform="translate(3.929 120.914)" fill="#6b00c3"/>
    <path id="Path_65049" data-name="Path 65049" d="M70.866,58.828a1.575,1.575,0,0,0-2.228,0L66.065,61.4l-2.573-2.573a1.576,1.576,0,0,0-2.228,2.228l2.573,2.573L61.264,66.2a1.576,1.576,0,0,0,2.228,2.228l2.573-2.573,2.573,2.573A1.576,1.576,0,0,0,70.866,66.2l-2.573-2.573,2.573-2.573A1.575,1.575,0,0,0,70.866,58.828Z" transform="translate(123.416 118.764)" fill="#6b00c3"/>
    <path id="Path_65050" data-name="Path 65050" d="M58.147,63.954a1.575,1.575,0,0,0-2.228,0l-2.574,2.574-2.574-2.574a1.576,1.576,0,0,0-2.228,2.228l2.574,2.574L48.541,71.33a1.576,1.576,0,0,0,2.228,2.228l2.574-2.574,2.574,2.574a1.576,1.576,0,0,0,2.228-2.228l-2.574-2.574,2.574-2.574A1.575,1.575,0,0,0,58.147,63.954Z" transform="translate(96.043 129.793)" fill="#6b00c3"/>
    <path id="Path_65051" data-name="Path 65051" d="M16.544,17.085l2.574-2.574,2.574,2.574a1.576,1.576,0,1,0,2.228-2.228l-2.574-2.574,2.574-2.574a1.576,1.576,0,1,0-2.228-2.228l-2.574,2.574L16.544,7.481a1.576,1.576,0,0,0-2.228,2.228l2.574,2.574-2.574,2.574A1.576,1.576,0,0,0,16.544,17.085Z" transform="translate(22.358 8.288)" fill="#6b00c3"/>
    <path id="Path_65052" data-name="Path 65052" d="M73.367,20.571H69.729V16.932a1.576,1.576,0,1,0-3.152,0v3.639H62.937a1.576,1.576,0,1,0,0,3.152h3.641v3.639a1.576,1.576,0,1,0,3.152,0V23.723h3.638a1.576,1.576,0,0,0,0-3.152Z" transform="translate(124.618 26.225)" fill="#6b00c3"/>
    <path id="Path_65053" data-name="Path 65053" d="M96.623,6.207a89.838,89.838,0,1,0,89.838,89.838A89.939,89.939,0,0,0,96.623,6.207Zm0,145.892h0a56.054,56.054,0,1,1,56.054-56.054A56.032,56.032,0,0,1,96.62,152.1Zm42.962-96.786,19.438-19.438a86.053,86.053,0,0,1,24.271,58.595H155.8A58.754,58.754,0,0,0,139.585,55.312Zm-2.229-2.229A58.767,58.767,0,0,0,98.2,36.859V9.372a86.069,86.069,0,0,1,58.6,24.272ZM95.047,9.372l0,27.487A58.786,58.786,0,0,0,55.88,53.071L36.469,33.663A86.439,86.439,0,0,1,95.047,9.372ZM34.241,35.89,53.649,55.3a58.759,58.759,0,0,0-16.232,39.17H9.924A86.378,86.378,0,0,1,34.241,35.89ZM9.924,97.62H37.417a58.759,58.759,0,0,0,16.232,39.17L34.241,156.2A86.378,86.378,0,0,1,9.924,97.62Zm45.956,41.4A58.786,58.786,0,0,0,95.047,155.23v27.487a86.44,86.44,0,0,1-58.578-24.291Zm42.318,43.7V155.23a58.767,58.767,0,0,0,39.157-16.224l19.439,19.439A86.069,86.069,0,0,1,98.2,182.717Zm60.824-26.5-19.438-19.438A58.754,58.754,0,0,0,155.8,97.62h27.49A86.042,86.042,0,0,1,159.023,156.215Z" transform="translate(7.135 6.54)" fill="#6b00c3"/>
    <path id="Path_65054" data-name="Path 65054" d="M25.321,27.386a1.573,1.573,0,0,0,.619-2.141,4.109,4.109,0,1,1,7.2-3.964l3.441,6.242A1.575,1.575,0,0,0,39.337,26c-2.636-5.355-4.553-6.731-3.789-9.367a4.12,4.12,0,0,1,7.55-.84,1.574,1.574,0,1,0,2.758-1.52,7.241,7.241,0,0,0-13.49,2.334,7.245,7.245,0,0,0-9.183,10.156A1.574,1.574,0,0,0,25.321,27.386Z" transform="translate(40.502 15.833)" fill="#6b00c3"/>
    <path id="Path_65055" data-name="Path 65055" d="M50.3,58.8a7.229,7.229,0,0,0-6.33.291C38.558,62.076,39.846,69.77,42.5,69.77a1.576,1.576,0,0,0,1.379-2.336,4.109,4.109,0,0,1,7.2-3.964l3.438,6.243a1.574,1.574,0,1,0,2.758-1.52c-2.634-5.356-4.55-6.732-3.786-9.368a4.118,4.118,0,0,1,7.55-.839,1.574,1.574,0,1,0,2.758-1.52A7.241,7.241,0,0,0,50.3,58.8Z" transform="translate(79.111 106.607)" fill="#6b00c3"/>
    <path id="Path_65056" data-name="Path 65056" d="M67.44,36.953a4.112,4.112,0,0,1-1.619,5.58,1.576,1.576,0,0,0,1.52,2.761A7.246,7.246,0,0,0,65.008,31.8a7.241,7.241,0,0,0-10.155-9.181,1.576,1.576,0,0,0,1.52,2.761,4.108,4.108,0,1,1,3.964,7.2L54.1,36.014a1.576,1.576,0,0,0,1.52,2.761l6.242-3.438A4.111,4.111,0,0,1,67.44,36.953Z" transform="translate(107.231 39.867)" fill="#6b00c3"/>
    <path id="Path_65057" data-name="Path 65057" d="M22.82,49.736a7.063,7.063,0,0,0-.3-6.331c-3.312-6.014-12.136-3.708-10.48-.716a1.576,1.576,0,0,0,2.139.62,4.114,4.114,0,0,1,5.931,4.741c-.762,2.632-3.1,2.763-8.208,5.894a1.576,1.576,0,0,0,1.52,2.761l6.242-3.439a4.108,4.108,0,1,1,3.964,7.2,1.576,1.576,0,0,0,1.52,2.761A7.237,7.237,0,0,0,22.82,49.736Z" transform="translate(16.458 78.482)" fill="#6b00c3"/>
    <path id="Path_65058" data-name="Path 65058" d="M39.9,17.088a1.574,1.574,0,0,0,2.068-.833,3.54,3.54,0,0,1,6.531.072c.7,1.732-.158,2.529-.161,3.316a1.553,1.553,0,0,0,2.5,1.251c.351-.259.314-.307.526-.624v0a3.532,3.532,0,0,1,6.5,2.776,1.578,1.578,0,0,0,1.45,2.2h0a1.658,1.658,0,0,0,.923-.331c.9-.666.6-1.774,2.459-2.519a3.538,3.538,0,0,1,4.564,4.669,1.577,1.577,0,0,0,1.45,2.194c2.656,0,3.314-7.433-2.074-9.729a6.475,6.475,0,0,0-5.646.216A6.592,6.592,0,0,0,51.6,15.732a6.666,6.666,0,0,0-12.523-.71A1.575,1.575,0,0,0,39.9,17.088Z" transform="translate(76.39 16.784)" fill="#6b00c3"/>
    <path id="Path_65059" data-name="Path 65059" d="M42.931,62.164a6.59,6.59,0,0,0-9.391-4.009,6.668,6.668,0,0,0-12.523-.713,1.576,1.576,0,1,0,2.9,1.237,3.532,3.532,0,1,1,6.5,2.773,1.578,1.578,0,0,0,1.45,2.2h0a1.725,1.725,0,0,0,1.449-.956v0a3.534,3.534,0,0,1,6.5,2.777,1.558,1.558,0,0,0,2.216,1.968,1.612,1.612,0,0,0,.683-.73,3.533,3.533,0,0,1,6.5,2.778,1.575,1.575,0,1,0,2.9,1.234A6.67,6.67,0,0,0,42.931,62.164Z" transform="translate(37.543 108.06)" fill="#6b00c3"/>
    <path id="Path_65060" data-name="Path 65060" d="M32.891,32.449a1.576,1.576,0,0,0-2.007-2.431c-.456.376-.848.784-1.262,1.18L19.173,25.848a16.231,16.231,0,0,0,.182-1.824,1.575,1.575,0,0,0-1.56-1.591,1.488,1.488,0,0,0-1.591,1.56c-.047,4.372-2.042,7.716-5.417,10.5a1.576,1.576,0,0,0,2.007,2.431c.456-.376.847-.784,1.262-1.181l10.4,5.324a17.423,17.423,0,0,0-.129,1.841,1.577,1.577,0,0,0,1.551,1.6H25.9a1.578,1.578,0,0,0,1.576-1.551,12.264,12.264,0,0,1,.259-2.471A13.754,13.754,0,0,1,32.891,32.449Zm-14.373-3.4,8.9,4.56a16.555,16.555,0,0,0-2.256,4.283l-8.913-4.566A18.81,18.81,0,0,0,18.518,29.051Z" transform="translate(14.573 41.451)" fill="#6b00c3"/>
    <path id="Path_65061" data-name="Path 65061" d="M53.537,51.707a1.576,1.576,0,0,0,2.007,2.431c.456-.376.847-.784,1.262-1.181l10.4,5.325a17.369,17.369,0,0,0-.129,1.841,1.577,1.577,0,0,0,1.551,1.6h.025a1.578,1.578,0,0,0,1.576-1.551c.073-4.411,2-7.69,5.417-10.507a1.576,1.576,0,0,0-2.007-2.431c-.456.376-.847.784-1.262,1.181l-10.45-5.351a16.2,16.2,0,0,0,.182-1.824,1.575,1.575,0,0,0-1.56-1.591,1.634,1.634,0,0,0-1.591,1.56,12.64,12.64,0,0,1-3.568,8.774A20.063,20.063,0,0,1,53.537,51.707Zm14.379,3.4L59,50.544a16,16,0,0,0,2.265-4.276l8.9,4.561A16.853,16.853,0,0,0,67.916,55.11Z" transform="translate(106.552 78.489)" fill="#6b00c3"/>
    <path id="Path_65062" data-name="Path 65062" d="M81,41.649a8.418,8.418,0,0,0-8.144,3.892c-.515.816-1,1.7-1.468,2.631A95.487,95.487,0,0,0,70.7,35.125a9.047,9.047,0,0,0-16.25-4.066,36.975,36.975,0,0,0-2.244,3.521,8.877,8.877,0,0,0-6.478-6.575,8.742,8.742,0,0,0-9.384,3.162,42.368,42.368,0,0,0-3,4.579A25.092,25.092,0,0,0,27.436,23.58a1.575,1.575,0,1,0-2.431,2c4.053,4.92,5.715,9.245,5.386,14.133v44.26a1.576,1.576,0,1,0,3.152,0l0-41.7a49.632,49.632,0,0,1,5.312-9.2,5.667,5.667,0,0,1,6.069-2.025,5.8,5.8,0,0,1,4.355,4.883c1.55,11.679-.237,31.014-.794,48.791a1.58,1.58,0,0,0,1.527,1.625h.049a1.577,1.577,0,0,0,1.576-1.527c.465-15.068,1.92-32.467,1.195-44.517A43.953,43.953,0,0,1,57,32.915a5.9,5.9,0,0,1,10.581,2.65c1.644,11.673-.194,31.292-.739,49.078a22.053,22.053,0,0,0,.473,5.738A60.864,60.864,0,0,1,53.3,95.651a1.575,1.575,0,1,0,.788,3.05,64.476,64.476,0,0,0,14.072-5.245,22.478,22.478,0,0,0,6.943,10.09,1.575,1.575,0,1,0,2.013-2.422,19.482,19.482,0,0,1-6.149-9.282C78.587,87.079,85.377,79.56,88.91,66.93a34.51,34.51,0,0,0-.849-19.559A8.448,8.448,0,0,0,81,41.649ZM85.86,66.143c-3.133,11.2-8.895,18.043-15.629,22.5a18.827,18.827,0,0,1-.242-3.816c.27-8.749.864-18.152,1.2-27.189a40.423,40.423,0,0,1,4.335-10.413,5.33,5.33,0,0,1,9.556,1.162A31.42,31.42,0,0,1,85.86,66.143Z" transform="translate(45.619 42.681)" fill="#6b00c3"/>
  </g>
</svg>
