<svg xmlns="http://www.w3.org/2000/svg" width="40" height="40" viewBox="0 0 40 40">
  <g id="Group_57420" data-name="Group 57420" transform="translate(-25 -15)">
    <rect id="Rectangle_Copy" data-name="Rectangle Copy" width="40" height="40" rx="20" transform="translate(25 15)" fill="#6b00c3"/>
    <path id="Icon_awesome-check" data-name="Icon awesome-check" d="M8.151,22.123l-7.8-7.8a1.2,1.2,0,0,1,0-1.7l1.7-1.7a1.2,1.2,0,0,1,1.7,0L9,16.183,20.254,4.929a1.2,1.2,0,0,1,1.7,0l1.7,1.7a1.2,1.2,0,0,1,0,1.7l-13.8,13.8A1.2,1.2,0,0,1,8.151,22.123Z" transform="translate(33 21)" fill="#fff"/>
  </g>
</svg>
