<svg xmlns="http://www.w3.org/2000/svg" width="22.792" height="21.367" viewBox="0 0 22.792 21.367">
  <path id="undo_FILL0_wght400_GRAD0_opsz48" d="M22.53,29.367H12.273V27.23H22.565a6.118,6.118,0,0,0,4.291-1.656,5.6,5.6,0,0,0,0-8.226,6.118,6.118,0,0,0-4.291-1.656H12.06l4.06,4.06-1.5,1.5L8,14.624,14.624,8l1.5,1.5-4.06,4.06H22.53a8.234,8.234,0,0,1,5.823,2.279,7.394,7.394,0,0,1,2.439,5.627,7.394,7.394,0,0,1-2.439,5.627A8.234,8.234,0,0,1,22.53,29.367Z" transform="translate(-8 -8)" fill="#9ea2be"/>
</svg>
