<svg id="upload" xmlns="http://www.w3.org/2000/svg" width="175" height="175" viewBox="0 0 175 175">
  <path id="Path_65067" data-name="Path 65067" d="M87.5,0A87.5,87.5,0,1,0,175,87.5,87.5,87.5,0,0,0,87.5,0ZM36.6,151.758a50.859,50.859,0,0,1,82.127-39.648,51.6,51.6,0,0,1,7.766,7.492A50.723,50.723,0,0,1,138.4,151.73a81.772,81.772,0,0,1-101.8,0Zm107.037-4.525A56.492,56.492,0,0,0,102.17,97.891a32.43,32.43,0,1,0-29.34,0,56.492,56.492,0,0,0-41.467,49.342A81.867,81.867,0,0,1,16.406,46.73,82.047,82.047,0,0,1,165.525,62.139a82.36,82.36,0,0,1,3.158,37.16,80.91,80.91,0,0,1-6.6,22.381,82.469,82.469,0,0,1-18.443,25.607ZM87.5,95.936a26.961,26.961,0,1,1,26.961-26.961A26.961,26.961,0,0,1,87.5,95.936Z" fill="#6b00c3"/>
  <path id="Path_65068" data-name="Path 65068" d="M71.4,82.3a2.734,2.734,0,0,0-3.855,0L49.767,100.077a2.734,2.734,0,0,0,3.855,3.855L69.468,88.1l15.846,15.832a2.734,2.734,0,0,0,3.855-3.855Z" transform="translate(18.032 29.929)" fill="#6b00c3"/>
  <path id="Path_65069" data-name="Path 65069" d="M71.4,98.3a2.734,2.734,0,0,0-3.855,0L49.767,116.077a2.734,2.734,0,0,0,3.855,3.855L69.468,104.1l15.846,15.832a2.734,2.734,0,0,0,3.855-3.855Z" transform="translate(18.032 35.804)" fill="#6b00c3"/>
</svg>
