<svg xmlns="http://www.w3.org/2000/svg" width="33.6" height="33.6" viewBox="0 0 33.6 33.6">
  <g id="Group_57472" data-name="Group 57472" transform="translate(-37 -540)">
    <circle id="Ellipse_161" data-name="Ellipse 161" cx="16.8" cy="16.8" r="16.8" transform="translate(37 540)" fill="#ffbc3a"/>
    <path id="Path_689" data-name="Path 689" d="M57.849,447.327a1,1,0,0,1,1.9,0l1.653,5.088a1,1,0,0,0,.951.691h5.35a1,1,0,0,1,.588,1.809l-4.328,3.145a1,1,0,0,0-.363,1.118l1.653,5.089a1,1,0,0,1-1.539,1.118l-4.328-3.145a1,1,0,0,0-1.176,0l-4.328,3.145a1,1,0,0,1-1.539-1.118L54,459.178a1,1,0,0,0-.363-1.118l-4.328-3.145a1,1,0,0,1,.588-1.809h5.35a1,1,0,0,0,.951-.691Z" transform="translate(-5 100.364)" fill="#fff"/>
  </g>
</svg>
