<svg xmlns="http://www.w3.org/2000/svg" width="186.345" height="186.269" viewBox="0 0 186.345 186.269">
  <path id="businessman" d="M181.334,115.161H163.3v-9.017a9.028,9.028,0,0,0-9.017-9.017H124.228a8.977,8.977,0,0,0-6.561,2.87L85.156,94.582V87.05a30.046,30.046,0,0,0,15.028-25.989h3.006a9.017,9.017,0,0,0,0-18.033h-1.443l1.647-3.82A24.273,24.273,0,0,0,91.164,7.5l-8.389-3.82a30.815,30.815,0,0,0-30.75,3.336l-4.74,3.553.006.009A18.7,18.7,0,0,0,35.23,37.058l2.985,5.969H37.067a9.017,9.017,0,0,0,0,18.033h3.006A30.046,30.046,0,0,0,55.1,87.05v7.532L18.58,100.668A20.972,20.972,0,0,0,1,121.421v62.867a3,3,0,0,0,3.006,3.006H181.334a6.017,6.017,0,0,0,6.011-6.011V121.172A6.017,6.017,0,0,0,181.334,115.161Zm-24.045-9.017v9.017H138.258a21.058,21.058,0,0,0-9.735-12.022h25.761A3.009,3.009,0,0,1,157.289,106.144Zm-36.067.586a15.013,15.013,0,0,1,10.61,8.431h-10.61ZM106.195,52.044a3.011,3.011,0,0,1-3.006,3.006h-3.006V49.038h3.006A3.011,3.011,0,0,1,106.195,52.044Zm-65.119-29.9a12.779,12.779,0,0,1,10.9-6.17,14.047,14.047,0,0,1,11.7,6.261l.944,1.416,5-3.333L68.679,18.9a20.017,20.017,0,0,0-11.337-8.187A24.7,24.7,0,0,1,80.284,9.145l8.389,3.82a18.264,18.264,0,0,1,9.2,23.858l-.2.469-3.817-7.634A3.008,3.008,0,0,0,89.364,28.6L84.555,32.2a24.039,24.039,0,0,1-28.853,0L50.892,28.6A3.008,3.008,0,0,0,46.4,29.661l-4.073,8.148-1.719-3.438a12.651,12.651,0,0,1,.469-12.224Zm-4.009,32.9a3.006,3.006,0,0,1,0-6.011h3.006v6.011Zm9.017,6.011V43.736l4.082-8.166,1.93,1.446a30.056,30.056,0,0,0,36.067,0l1.93-1.446,4.082,8.166V61.061a24.045,24.045,0,0,1-48.089,0ZM70.128,91.116a29.918,29.918,0,0,0,9.017-1.386v6.152L70.128,104.9l-9.017-9.017V89.731A29.918,29.918,0,0,0,70.128,91.116Zm-.971,33.061H71.1L76,136.44l-5.876,25.466L64.252,136.44Zm6.669-12.464-4.3,6.453h-2.8l-4.3-6.453,1-3.009L68,111.277a3.008,3.008,0,0,0,4.25,0l2.573-2.573Zm-38.76,69.57V130.189H31.056v51.095H7.011V121.421a14.985,14.985,0,0,1,12.557-14.826l37.506-6.249,3.6,3.6-2.419,7.255a2.994,2.994,0,0,0,.352,2.618l5.134,7.7-5.425,13.561a3.017,3.017,0,0,0-.138,1.791L67.2,175.948a3.008,3.008,0,0,0,5.861,0l9.017-39.072a3.021,3.021,0,0,0-.138-1.791l-5.425-13.561,5.134-7.7A3.014,3.014,0,0,0,82,111.205l-2.419-7.255,3.6-3.6,32.075,5.344c-.006.153-.045.3-.045.454v9.017H97.178a6.017,6.017,0,0,0-6.011,6.011v60.111Zm63.117,0H97.178v-6.011h84.159v6.011Zm81.153-12.022H97.178V144.883a20.959,20.959,0,0,0,15.028,6.345h18.033v3.006a9.017,9.017,0,1,0,18.033,0v-3.006h18.033a20.978,20.978,0,0,0,15.031-6.345ZM136.25,154.233V139.205h6.011v15.028a3.006,3.006,0,1,1-6.011,0Zm45.083-24.045a15.045,15.045,0,0,1-15.028,15.028H148.273V136.2a3,3,0,0,0-3.006-3.006H133.245a3,3,0,0,0-3.006,3.006v9.017H112.206a15.045,15.045,0,0,1-15.028-15.028v-9.017h84.156Z" transform="translate(-1 -1.025)" fill="#6b00c3"/>
</svg>
